<?xml version="1.0" encoding="UTF-8"?>
<svg id="Layer_1" xmlns="http://www.w3.org/2000/svg" width="207.2" height="37.4" version="1.1" viewBox="0 0 207.2 37.4">
  <!-- Generator: Adobe Illustrator 29.5.1, SVG Export Plug-In . SVG Version: 2.1.0 Build 141)  -->
  <defs>
    <style>
      .st0 {
        fill: #fff;
      }
    </style>
  </defs>
  <g>
    <path class="st0" d="M10.4.6v36.2c0,.3-.2.6-.6.6H.6c-.3,0-.6-.2-.6-.6V.6c0-.3.2-.6.6-.6h9.3c.3,0,.6.2.6.6Z"/>
    <rect class="st0" x="13.9" y="13.5" width="9" height="10.4" rx=".6" ry=".6"/>
    <rect class="st0" x="13.9" y="27" width="9" height="10.4" rx=".6" ry=".6"/>
    <path class="st0" d="M207.2,27.5v9.2c0,.3-.2.6-.6.6h-78.9c-.3,0-.6-.3-.6-.6v-13.5c0-.9-.7-1.6-1.6-1.6s-.9.2-1.2.5l-11.6,13.4c-1.4,1.6-3.7,2.2-5.7,1.5-2-.8-3.4-2.7-3.4-4.9v-8.9c0-1-.8-1.6-1.6-1.6s-.9.2-1.2.5l-11.6,13.4c-1,1.1-2.4,1.8-3.9,1.8h-30.7c-.3,0-.6-.3-.6-.6V.6c0-.3.3-.6.6-.6h44.4c.4,0,.8.2.9.6.2.4.1.8-.2,1.1l-7.2,8.3c-.2.2-.5.4-.8.4h-25.7c-.7,0-1.4.5-1.6,1.2-.1.5,0,1,.4,1.4.3.3.7.5,1.1.5h21.3c.4,0,.8.2.9.6.2.4.1.8-.2,1.1l-7.2,8.4c-.2.2-.5.3-.8.3h-14.3c-.8,0-1.4.7-1.4,1.5s.7,1.6,1.6,1.6h16.2c.4,0,.9-.2,1.2-.5L105.1,1.8c1.4-1.6,3.7-2.2,5.7-1.5,2,.8,3.4,2.7,3.4,4.9v8.9c0,1,.8,1.6,1.6,1.6s.9-.2,1.2-.5l11.6-13.4c1.4-1.6,3.7-2.2,5.7-1.5,2,.8,3.4,2.7,3.4,4.9v20.2c0,.9.7,1.6,1.6,1.6h67.5c.3,0,.6.3.6.6Z"/>
    <path class="st0" d="M50.3,14v9.3c0,.3-.2.6-.6.6h-7.9c-.3,0-.6-.2-.6-.6v-9.3c0-.3.2-.6.6-.6h7.9c.3,0,.6.2.6.6Z"/>
    <path class="st0" d="M50.3,27.5v9.3c0,.3-.2.6-.6.6h-7.9c-.3,0-.6-.2-.6-.6v-9.3c0-.3.2-.6.6-.6h7.9c.3,0,.6.2.6.6Z"/>
    <path class="st0" d="M50.3.6v9.3c0,.3-.2.6-.6.6h-10.9c-.9,0-1.6.7-1.6,1.5v24.9c0,.3-.3.6-.6.6h-9.3c-.3,0-.6-.3-.6-.6V11.9c0-.9-.7-1.5-1.5-1.5h-10.9c-.3,0-.6-.3-.6-.6V.6c0-.3.3-.6.6-.6h35.3c.3,0,.6.2.6.6Z"/>
  </g>
  <g>
    <path class="st0" d="M142.7,22.3h1.8c.1,0,.2,0,.3-.1,0,0,.1-.2.1-.3v-4.1c0-.2,0-.4.3-.6s.4-.3.7-.3h1.6c.2,0,.5,0,.6.3.2.2.3.4.3.6v4.1c0,.1,0,.2,0,.3,0,0,.2.1.3.1h1.8c.1,0,.2,0,.3-.1,0,0,.1-.2.1-.3v-4.1c0-.4-.2-.8-.5-1.1-.3-.3-.7-.5-1.1-.5.4,0,.8-.2,1.1-.5.3-.3.4-.7.4-1.1v-3c0-.4-.2-.8-.5-1.1s-.7-.4-1.1-.4h-6.7c-.1,0-.2,0-.3.1,0,0,0,.2,0,.3v11.5c0,.1,0,.2.1.3,0,0,.2.1.3.1ZM144.8,12.3c0-.2,0-.4.3-.6.2-.2.4-.3.7-.3h1.6c.2,0,.5,0,.6.3.2.2.3.4.3.6v2.3c0,.3,0,.5-.3.7s-.4.3-.7.3h-1.6c-.3,0-.5,0-.7-.3-.2-.2-.3-.4-.3-.7v-2.3Z"/>
    <path class="st0" d="M155.1,22.3h6.7c.1,0,.2,0,.3-.1,0,0,.1-.2.1-.3v-.5c0-.1,0-.2,0-.3,0,0-.2-.1-.3-.1h-4.8c-.3,0-.5,0-.7-.3-.2-.2-.3-.4-.3-.7v-2.2c0-.3,0-.5.3-.7.2-.2.4-.3.7-.3h4.7c.1,0,.2,0,.3,0,0,0,.1-.1.1-.3v-.6c0,0,0-.2-.1-.3,0,0-.2-.1-.3-.1h-4.7c-.3,0-.5,0-.7-.3-.2-.2-.3-.4-.3-.7v-2.2c0-.3,0-.5.3-.7.2-.2.4-.3.7-.3h4.8c0,0,.2,0,.3,0s.1-.2.1-.3v-.6c0-.1,0-.2-.1-.3s-.2-.1-.3-.1h-6.7c-.4,0-.8.1-1.1.4-.3.3-.4.7-.4,1.1v9.2c0,.4.1.8.4,1.1.3.3.7.4,1.1.4Z"/>
    <path class="st0" d="M165.2,22.3h1.8c.1,0,.2,0,.3-.1s.1-.2.1-.3v-9.6c0-.2,0-.4.3-.6.2-.2.4-.3.7-.3h1.6c.2,0,.5,0,.6.3.2.2.3.4.3.6v9.6c0,.1,0,.2,0,.3,0,0,.2.1.3.1h1.8c.1,0,.2,0,.3-.1,0,0,.1-.2.1-.3v-10.3c0-.4-.2-.8-.5-1.1s-.7-.4-1.1-.4h-5.6c-.4,0-.8.2-1.1.5-.3.3-.4.7-.4,1.1v10.3c0,.1,0,.2.1.3,0,0,.2.1.3.1Z"/>
    <path class="st0" d="M176.4,22.3h5.7c.7,0,1.3-.3,1.8-.8.5-.5.8-1.1.8-1.8v-7.1c0-.7-.3-1.3-.8-1.8s-1.1-.8-1.8-.8h-5.7c-.1,0-.2,0-.3.1s-.1.2-.1.3v11.5c0,.1,0,.2,0,.3,0,0,.2.1.3.1ZM178.6,12.3c0-.2,0-.4.3-.6.2-.2.4-.3.7-.3h1c.4,0,.8.2,1.1.5s.5.7.5,1.1v6.5c0,.4-.2.8-.5,1.1-.3.3-.7.4-1.1.4h-1c-.3,0-.5,0-.7-.3s-.3-.4-.3-.7v-7.7Z"/>
    <path class="st0" d="M188.8,22.3h6.7c.1,0,.2,0,.3-.1,0,0,.1-.2.1-.3v-.5c0-.1,0-.2,0-.3s-.2-.1-.3-.1h-4.8c-.3,0-.5,0-.7-.3-.2-.2-.3-.4-.3-.7v-2.2c0-.3,0-.5.3-.7.2-.2.4-.3.7-.3h4.7c.1,0,.2,0,.3,0,0,0,.1-.1.1-.3v-.6c0,0,0-.2-.1-.3,0,0-.2-.1-.3-.1h-4.7c-.3,0-.5,0-.7-.3-.2-.2-.3-.4-.3-.7v-2.2c0-.3,0-.5.3-.7.2-.2.4-.3.7-.3h4.8c0,0,.2,0,.3,0,0,0,.1-.2.1-.3v-.6c0-.1,0-.2-.1-.3,0,0-.2-.1-.3-.1h-6.7c-.4,0-.8.1-1.1.4-.3.3-.4.7-.4,1.1v9.2c0,.4.1.8.4,1.1.3.3.7.4,1.1.4Z"/>
    <path class="st0" d="M207.2,14.6v-3c0-.4-.2-.8-.5-1.1s-.7-.4-1.1-.4h-6.7c-.1,0-.2,0-.3.1,0,0,0,.2,0,.3v11.5c0,.1,0,.2.1.3,0,0,.2.1.3.1h1.8c.1,0,.2,0,.3-.1,0,0,.1-.2.1-.3v-4.1c0-.2,0-.4.3-.6.2-.2.4-.3.7-.3h1.6c.2,0,.5,0,.6.3.2.2.3.4.3.6v4.1c0,.1,0,.2,0,.3,0,0,.2.1.3.1h1.8c.1,0,.2,0,.3-.1,0,0,.1-.2.1-.3v-4.1c0-.4-.2-.8-.5-1.1-.3-.3-.7-.5-1.1-.5.4,0,.8-.2,1.1-.5s.4-.7.4-1.1ZM204.6,14.6c0,.3,0,.5-.3.7-.2.2-.4.3-.7.3h-1.6c-.3,0-.5,0-.7-.3-.2-.2-.3-.4-.3-.7v-2.3c0-.2,0-.4.3-.6.2-.2.4-.3.7-.3h1.6c.2,0,.5,0,.6.3.2.2.3.4.3.6v2.3Z"/>
  </g>
</svg>