<?xml version="1.0" encoding="UTF-8"?>
<svg id="Layer_1" xmlns="http://www.w3.org/2000/svg" width=".7in" height=".7in" version="1.1" viewBox="0 0 50.4 50.4">
  <!-- Generator: Adobe Illustrator 29.5.1, SVG Export Plug-In . SVG Version: 2.1.0 Build 141)  -->
  <defs>
    <style>
      .st0 {
        fill: #fff;
      }
    </style>
  </defs>
  <path class="st0" d="M25.2,0C11.3,0,0,11.3,0,25.2s11.3,25.2,25.2,25.2,25.2-11.3,25.2-25.2S39.1,0,25.2,0ZM25.2,49.4c-13.3,0-24.2-10.9-24.2-24.2S11.9,1,25.2,1s24.2,10.9,24.2,24.2-10.9,24.2-24.2,24.2Z"/>
  <path class="st0" d="M34.6,16.9l-3.2-3.2-4.2,4.2-2.8-2.8-4.2,4.2-2.8-2.8-3.2,3.2,1.9,1.9v11.9l3.2,3.2,4.2-4.2,2.8,2.7,4.1-4.3,2.8,2.8,3.3-3.1-1.9-1.9v-11.8ZM22.9,32.1l-1,1-1.4-1.4v-11.8l1-1.1,1.4,1.5v11.8ZM29.9,30.5l-1,1.1-1.4-1.5v-11.8l1-1,1.4,1.4v11.8Z"/>
</svg>