<?xml version="1.0" standalone="no"?>
<!DOCTYPE svg PUBLIC "-//W3C//DTD SVG 20010904//EN"
 "http://www.w3.org/TR/2001/REC-SVG-20010904/DTD/svg10.dtd">
<svg version="1.0" xmlns="http://www.w3.org/2000/svg"
 width="260.000000pt" height="260.000000pt" viewBox="0 0 260.000000 260.000000"
 preserveAspectRatio="xMidYMid meet">
<metadata>
Created by potrace 1.11, written by Peter Selinger 2001-2013
</metadata>
<g transform="translate(0.000000,260.000000) scale(0.100000,-0.100000)"
fill="#000000" stroke="none">
<path d="M1675 2160 c-103 -105 -191 -190 -194 -190 -3 0 -61 55 -128 122
l-123 123 -193 -193 -193 -193 -125 126 -125 127 -147 -148 -148 -148 86 -86
85 -85 0 -535 0 -535 148 -148 147 -148 192 194 191 194 126 -126 126 -126
193 193 193 192 126 -125 127 -126 145 148 146 147 -85 86 -85 85 0 535 0 535
-142 142 c-79 78 -146 145 -149 148 -3 2 -90 -81 -194 -185z m8 -212 l63 -63
-1 -536 0 -536 -45 -47 -46 -47 -66 65 -66 65 0 535 0 534 41 45 c23 26 45 47
50 47 4 0 36 -28 70 -62z m-616 -158 l43 -45 0 -531 0 -532 -48 -48 -49 -49
-64 65 -64 65 0 536 0 535 44 47 44 47 26 -22 c14 -13 44 -43 68 -68z"/>
</g>
</svg>
