<?xml version="1.0" standalone="no"?>
<!DOCTYPE svg PUBLIC "-//W3C//DTD SVG 20010904//EN"
 "http://www.w3.org/TR/2001/REC-SVG-20010904/DTD/svg10.dtd">
<svg version="1.0" xmlns="http://www.w3.org/2000/svg"
 width="700.000000pt" height="700.000000pt" viewBox="0 0 700.000000 700.000000"
 preserveAspectRatio="xMidYMid meet">
<metadata>
Created by potrace 1.14, written by Peter Selinger 2001-2017
</metadata>
<g transform="translate(0.000000,700.000000) scale(0.100000,-0.100000)"
fill="#000000" stroke="none">
<path d="M3280 6994 c-19 -2 -84 -9 -145 -14 -636 -62 -1266 -316 -1795 -726
-148 -114 -480 -446 -594 -594 -411 -530 -654 -1132 -728 -1795 -17 -155 -17
-575 0 -730 75 -673 332 -1300 748 -1820 114 -143 339 -372 484 -494 537 -451
1163 -717 1885 -803 142 -17 586 -17 730 0 682 79 1268 318 1802 734 138 107
389 351 512 498 451 538 717 1163 803 1885 17 144 17 586 0 730 -86 723 -351
1346 -803 1885 -127 151 -376 393 -519 504 -524 406 -1092 640 -1750 722 -117
15 -552 27 -630 18z m1570 -3144 l0 -855 135 -135 135 -135 -233 -233 -232
-232 -200 200 -200 200 -307 -307 -308 -308 -198 198 c-108 108 -202 197 -209
197 -6 0 -147 -138 -312 -307 l-301 -308 -235 235 -235 235 0 855 0 855 -135
135 -135 135 232 232 233 233 200 -200 200 -200 305 305 c168 168 309 305 315
305 6 0 97 -88 204 -194 l194 -195 311 304 311 304 233 -232 232 -232 0 -855z"/>
<path d="M3902 4557 l-72 -72 0 -850 0 -850 103 -103 102 -102 78 78 77 77 0
845 0 845 -103 103 c-56 56 -105 102 -107 102 -3 0 -38 -33 -78 -73z"/>
<path d="M2887 4342 l-77 -77 0 -845 0 -845 105 -105 105 -105 75 75 75 74 0
851 0 850 -103 103 -102 102 -78 -78z"/>
</g>
</svg>
