<?xml version="1.0" standalone="no"?>
<!DOCTYPE svg PUBLIC "-//W3C//DTD SVG 20010904//EN"
 "http://www.w3.org/TR/2001/REC-SVG-20010904/DTD/svg10.dtd">
<svg version="1.0" xmlns="http://www.w3.org/2000/svg"
 width="700.000000pt" height="700.000000pt" viewBox="0 0 700.000000 700.000000"
 preserveAspectRatio="xMidYMid meet">
<metadata>
Created by potrace 1.14, written by Peter Selinger 2001-2017
</metadata>
<g transform="translate(0.000000,700.000000) scale(0.100000,-0.100000)"
fill="#000000" stroke="none">
<path d="M3250 5962 c-7 -3 -10 -196 -10 -553 l0 -548 -761 0 c-418 0 -763 -2
-766 -5 -5 -4 -8 -423 -4 -498 1 -15 37 -16 432 -16 237 0 432 -2 433 -3 2 -2
111 -148 242 -324 131 -176 241 -322 244 -325 14 -13 90 -120 90 -126 0 -3
-14 -24 -32 -46 -17 -22 -42 -55 -55 -74 -12 -19 -28 -40 -33 -47 -6 -7 -195
-259 -421 -562 -225 -302 -415 -557 -422 -565 -6 -8 -20 -27 -29 -41 l-17 -27
162 -128 c89 -70 181 -143 204 -161 l41 -34 233 308 c128 169 280 371 338 448
58 77 108 142 111 145 3 3 17 21 30 40 14 19 28 40 33 45 4 6 48 63 97 128
l89 118 134 -178 c73 -98 227 -302 341 -453 114 -151 212 -282 219 -290 7 -8
61 -80 121 -160 60 -80 113 -144 118 -143 9 3 53 37 198 152 58 45 120 95 139
109 79 62 93 27 -129 322 -109 146 -245 328 -303 405 -57 77 -194 259 -303
405 -109 146 -198 274 -198 285 0 15 511 710 565 769 4 5 205 9 458 9 248 0
451 2 452 6 0 3 1 120 2 259 l2 252 -190 0 c-104 1 -450 0 -767 0 l-578 -1 0
551 c0 517 -1 550 -17 551 -57 3 -485 3 -493 1z"/>
</g>
</svg>
