<?xml version="1.0" encoding="UTF-8"?>
<svg id="Layer_1" xmlns="http://www.w3.org/2000/svg" version="1.1" viewBox="0 0 288 162">
  <!-- Generator: Adobe Illustrator 30.6.0, SVG Export Plug-In . SVG Version: 2.1.4 Build 109)  -->
  <defs>
    <style>
      .st0 {
        fill: #6464ff;
      }

      .st1 {
        fill: #fff;
      }

      .st2 {
        fill: #ffc800;
      }

      .st3 {
        fill: #ff1e1e;
      }
    </style>
  </defs>
  <rect width="288" height="162"/>
  <g>
    <g>
      <path class="st1" d="M109.32,81.66h-21.34c-.74,0-1.41.3-1.89.78-.48.48-.78,1.15-.78,1.89v16.01c0,.74.3,1.41.78,1.89.48.48,1.15.78,1.89.78h24.01v-5.34h-21.34v-10.67h16.01v2.67h-13.34v5.34h16.01c.74,0,1.41-.3,1.89-.78.48-.48.78-1.15.78-1.89v-8c0-.74-.3-1.41-.78-1.89-.48-.48-1.15-.78-1.89-.78Z"/>
      <path class="st1" d="M116.54,78.21c.48-.48.78-1.15.78-1.89v-8c0-.74-.3-1.41-.78-1.89-.48-.48-1.15-.78-1.89-.78h-18.67v-2.67h21.24v-5.34h-23.91c-.74,0-1.41.3-1.89.78-.48.48-.78,1.15-.78,1.89v8c0,.74.3,1.41.78,1.89.48.48,1.15.78,1.89.78h18.67v2.67h-21.34v5.34h24.01c.74,0,1.41-.3,1.89-.78Z"/>
      <path class="st1" d="M192.02,95c0,.74-.3,1.41-.78,1.89-.48.48-1.15.78-1.89.78h-8c-.74,0-1.41-.3-1.89-.78-.48-.48-.78-1.15-.78-1.89v-13.34h-5.34v16.01c0,1.47.6,2.81,1.57,3.77.96.97,2.3,1.57,3.77,1.57h13.34c1.47,0,2.81-.6,3.77-1.57.97-.96,1.57-2.3,1.57-3.77v-16.01h-5.34v13.34Z"/>
      <path class="st1" d="M67.42,96.88c-.48-.48-.78-1.15-.78-1.89v-13.34h-5.34v15.9c0,1.47.6,2.81,1.57,3.77.96.97,2.3,1.57,3.77,1.57h16.01v-5.34h-14.07c-.44-.13-.84-.36-1.15-.68Z"/>
      <path class="st1" d="M224.04,81.66h-21.34c-.74,0-1.41.3-1.89.78-.48.48-.78,1.15-.78,1.89v16.01c0,.74.3,1.41.78,1.89.48.48,1.15.78,1.89.78h24.01v-5.34h-21.34v-10.67h16.01v2.67h-13.34v5.34h16.01c.74,0,1.41-.3,1.89-.78.48-.48.78-1.15.78-1.89v-8c0-.74-.3-1.41-.78-1.89-.48-.48-1.15-.78-1.89-.78Z"/>
      <path class="st1" d="M87.19,58.43c-.48-.48-1.15-.78-1.89-.78h-23.91v5.34h21.24v2.67h-18.67c-.74,0-1.41.3-1.89.78-.48.48-.78,1.15-.78,1.89v8c0,.74.3,1.41.78,1.89.48.48,1.15.78,1.89.78h21.34c.74,0,1.41-.3,1.89-.78.48-.48.78-1.15.78-1.89v-16.01c0-.74-.3-1.41-.78-1.89ZM82.64,73.65h-16.01v-2.67h16.01v2.67Z"/>
      <path class="st1" d="M168.01,57.65h-21.34c-.74,0-1.41.3-1.89.78-.48.48-.78,1.15-.78,1.89v16.01c0,.74.3,1.41.78,1.89.48.48,1.15.78,1.89.78h24.01v-5.34h-21.34v-10.67h16.01v2.67h-13.34v5.34h16.01c.74,0,1.41-.3,1.89-.78.48-.48.78-1.15.78-1.89v-8c0-.74-.3-1.41-.78-1.89-.48-.48-1.15-.78-1.89-.78Z"/>
      <path class="st1" d="M168.01,89.66h-16.01v5.34h13.34v2.67h-16.01v-10.67h21.24v-3.4c-.13-.44-.36-.84-.68-1.15-.48-.48-1.15-.78-1.89-.78h-21.34c-.74,0-1.41.3-1.89.78-.48.48-.78,1.15-.78,1.89v16.01c0,.74.3,1.41.78,1.89.48.48,1.15.78,1.89.78h21.34c.74,0,1.41-.3,1.89-.78.48-.48.78-1.15.78-1.89v-8c0-.74-.3-1.41-.78-1.89-.48-.48-1.15-.78-1.89-.78Z"/>
      <path class="st1" d="M140.55,82.44c-.48-.48-1.15-.78-1.89-.78h-23.91v5.34h21.24v2.67h-18.67c-.74,0-1.41.3-1.89.78-.48.48-.78,1.15-.78,1.89v8c0,.74.3,1.41.78,1.89.48.48,1.15.78,1.89.78h21.34c.74,0,1.41-.3,1.89-.78.48-.48.78-1.15.78-1.89v-16.01c0-.74-.3-1.41-.78-1.89ZM136,97.67h-16.01v-2.67h16.01v2.67Z"/>
      <path class="st1" d="M174.91,59.21c-.97.96-1.57,2.3-1.57,3.77v16.01h5.34v-13.34c0-.74.3-1.41.78-1.89.48-.48,1.15-.78,1.89-.78h13.34v-5.34h-16.01c-1.47,0-2.81.6-3.77,1.57Z"/>
      <path class="st1" d="M125.33,57.75h-5.34v15.9c0,1.47.6,2.81,1.57,3.77.96.97,2.3,1.57,3.77,1.57h16.01v-5.34h-16.01v-4h16.01v-5.34h-16.01v-6.56Z"/>
      <g>
        <polygon class="st2" points="226.7 68.32 225.41 69.61 219.15 75.87 211.61 75.87 219.16 68.32 211.61 60.48 219.15 60.48 225.41 67.02 226.7 68.32"/>
        <polygon class="st2" points="213.82 68.32 212.52 69.61 206.27 75.87 198.73 75.87 206.27 68.32 198.73 60.48 206.27 60.48 212.52 67.02 213.82 68.32"/>
      </g>
    </g>
    <g>
      <polygon class="st3" points="197.07 109.67 197.07 114.48 189.06 114.48 189.06 116.09 197.07 116.09 197.07 117.69 187.45 117.69 187.45 112.88 195.47 112.88 195.47 111.28 187.45 111.28 187.45 109.67 197.07 109.67"/>
      <path class="st3" d="M217.92,109.67v-.02h-1.6v4.83h8.02v1.6h-8.02v1.6h9.62v-8.02h-8.02ZM224.33,112.88h-6.41v-1.6h6.41v1.6Z"/>
      <polygon class="st3" points="214.71 109.65 214.71 117.67 213.11 117.67 213.11 111.28 208.3 111.28 208.3 112.88 206.69 112.88 206.69 109.65 208.3 109.65 208.3 109.67 213.11 109.67 213.11 109.65 214.71 109.65"/>
      <polygon class="st3" points="206.69 116.09 206.69 117.69 198.68 117.69 198.68 116.09 201.88 116.09 201.88 111.26 198.68 111.26 198.68 109.65 203.49 109.65 203.49 116.09 206.69 116.09"/>
    </g>
    <path class="st0" d="M242.71,49.64c0-1.47-.6-2.81-1.57-3.77-.83-.83-1.93-1.39-3.16-1.53-.2-.02-.4-.04-.61-.04H45.29v66.7c0,1.47.6,2.81,1.57,3.77.82.83,1.92,1.39,3.15,1.53.2.02.41.04.62.04h130.72v-5.34H50.63v-61.36h186.75v61.36h-5.34v5.34h8s2.67,0,2.67,0V49.64Z"/>
  </g>
</svg>