<?xml version="1.0" encoding="UTF-8"?>
<svg id="Layer_1" xmlns="http://www.w3.org/2000/svg" version="1.1" viewBox="0 0 288 162">
  <!-- Generator: Adobe Illustrator 30.6.0, SVG Export Plug-In . SVG Version: 2.1.4 Build 109)  -->
  <defs>
    <style>
      .st0 {
        fill: #0096ff;
      }

      .st1 {
        fill: #fff;
      }

      .st2 {
        fill: #ffc800;
      }
    </style>
  </defs>
  <rect width="288" height="162"/>
  <g>
    <path class="st1" d="M107.94,75.45h-22.19c-.76,0-1.46.31-1.96.81-.5.5-.81,1.2-.81,1.96v16.65c0,.76.31,1.46.81,1.96.5.5,1.2.81,1.96.81h24.97v-5.55h-22.19v-11.1h16.65v2.77h-13.87v5.55h16.65c.76,0,1.46-.31,1.96-.81.5-.5.81-1.2.81-1.96v-8.32c0-.76-.31-1.46-.81-1.96-.5-.5-1.2-.81-1.96-.81Z"/>
    <path class="st1" d="M115.44,71.86c.5-.5.81-1.2.81-1.96v-8.32c0-.76-.31-1.46-.81-1.96-.5-.5-1.2-.81-1.96-.81h-19.42v-2.77h22.08v-5.55h-24.86c-.76,0-1.46.31-1.96.81-.5.5-.81,1.2-.81,1.96v8.32c0,.76.31,1.46.81,1.96.5.5,1.2.81,1.96.81h19.42v2.77h-22.19v5.55h24.97c.76,0,1.46-.31,1.96-.81Z"/>
    <path class="st1" d="M193.94,89.32c0,.76-.31,1.46-.81,1.96-.5.5-1.2.81-1.96.81h-8.32c-.76,0-1.46-.31-1.96-.81-.5-.5-.81-1.2-.81-1.96v-13.87h-5.55v16.65c0,1.53.62,2.92,1.63,3.92,1,1,2.39,1.63,3.92,1.63h13.87c1.53,0,2.92-.62,3.92-1.63,1-1,1.63-2.39,1.63-3.92v-16.65h-5.55v13.87Z"/>
    <path class="st1" d="M64.36,91.28c-.5-.5-.81-1.2-.81-1.96v-13.87h-5.55v16.54c0,1.53.62,2.92,1.63,3.92,1,1,2.39,1.63,3.92,1.63h16.65v-5.55h-14.63c-.46-.13-.87-.38-1.2-.7Z"/>
    <path class="st1" d="M227.23,75.45h-22.19c-.76,0-1.46.31-1.96.81-.5.5-.81,1.2-.81,1.96v16.65c0,.76.31,1.46.81,1.96.5.5,1.2.81,1.96.81h24.97v-5.55h-22.19v-11.1h16.65v2.77h-13.87v5.55h16.65c.76,0,1.46-.31,1.96-.81.5-.5.81-1.2.81-1.96v-8.32c0-.76-.31-1.46-.81-1.96-.5-.5-1.2-.81-1.96-.81Z"/>
    <path class="st1" d="M84.93,71.86c.5-.5.81-1.2.81-1.96v-16.65c0-.76-.31-1.46-.81-1.96-.5-.5-1.2-.81-1.96-.81h-24.86v5.55h22.08v2.77h-19.42c-.76,0-1.46.31-1.96.81-.5.5-.81,1.2-.81,1.96v8.32c0,.76.31,1.46.81,1.96.5.5,1.2.81,1.96.81h22.19c.76,0,1.46-.31,1.96-.81ZM80.19,67.13h-16.65v-2.77h16.65v2.77Z"/>
    <path class="st1" d="M168.97,50.48h-22.19c-.76,0-1.46.31-1.96.81-.5.5-.81,1.2-.81,1.96v16.65c0,.76.31,1.46.81,1.96.5.5,1.2.81,1.96.81h24.97v-5.55h-22.19v-11.1h16.65v2.77h-13.87v5.55h16.65c.76,0,1.46-.31,1.96-.81.5-.5.81-1.2.81-1.96v-8.32c0-.76-.31-1.46-.81-1.96-.5-.5-1.2-.81-1.96-.81Z"/>
    <path class="st1" d="M168.97,83.77h-16.65v5.55h13.87v2.77h-16.65v-11.1h22.08v-3.54c-.13-.46-.38-.87-.7-1.2-.5-.5-1.2-.81-1.96-.81h-22.19c-.76,0-1.46.31-1.96.81-.5.5-.81,1.2-.81,1.96v16.65c0,.76.31,1.46.81,1.96.5.5,1.2.81,1.96.81h22.19c.76,0,1.46-.31,1.96-.81.5-.5.81-1.2.81-1.96v-8.32c0-.76-.31-1.46-.81-1.96-.5-.5-1.2-.81-1.96-.81Z"/>
    <path class="st1" d="M138.45,75.45h-24.86v5.55h22.08v2.77h-19.42c-.76,0-1.46.31-1.96.81-.5.5-.81,1.2-.81,1.96v8.32c0,.76.31,1.46.81,1.96.5.5,1.2.81,1.96.81h22.19c.76,0,1.46-.31,1.96-.81.5-.5.81-1.2.81-1.96v-16.65c0-.76-.31-1.46-.81-1.96-.5-.5-1.2-.81-1.96-.81ZM135.68,92.1h-16.65v-2.77h16.65v2.77Z"/>
    <path class="st1" d="M176.14,52.11c-1,1-1.63,2.39-1.63,3.92v16.65h5.55v-13.87c0-.76.31-1.46.81-1.96.5-.5,1.2-.81,1.96-.81h13.87v-5.55h-16.65c-1.53,0-2.92.62-3.92,1.63Z"/>
    <path class="st1" d="M124.58,50.59h-5.55v16.54c0,1.53.62,2.92,1.63,3.92,1,1,2.39,1.63,3.92,1.63h16.65v-5.55h-16.65v-4.16h16.65v-5.55h-16.65v-6.83Z"/>
  </g>
  <g>
    <polygon class="st0" points="230 61.58 228.65 62.93 222.15 69.43 214.31 69.43 222.15 61.58 214.31 53.42 222.15 53.42 228.65 60.23 230 61.58"/>
    <polygon class="st0" points="216.61 61.58 215.26 62.93 208.75 69.43 200.91 69.43 208.76 61.58 200.91 53.42 208.75 53.42 215.26 60.23 216.61 61.58"/>
  </g>
  <g>
    <rect class="st0" x="184.99" y="103.19" width="1.67" height="8.32"/>
    <rect class="st0" x="181.65" y="103.19" width="1.67" height="8.32"/>
    <rect class="st0" x="178.32" y="103.19" width="1.67" height="8.32"/>
    <rect class="st0" x="174.98" y="103.19" width="1.67" height="8.32"/>
    <rect class="st0" x="171.65" y="103.19" width="1.67" height="8.32"/>
    <rect class="st0" x="168.31" y="103.19" width="1.67" height="8.32"/>
    <rect class="st0" x="164.98" y="103.19" width="1.67" height="8.32"/>
    <rect class="st0" x="161.64" y="103.19" width="1.67" height="8.32"/>
    <rect class="st0" x="158.31" y="103.19" width="1.67" height="8.32"/>
    <rect class="st0" x="154.98" y="103.19" width="1.67" height="8.32"/>
    <rect class="st0" x="151.64" y="103.19" width="1.67" height="8.32"/>
    <rect class="st0" x="148.31" y="103.19" width="1.67" height="8.32"/>
    <rect class="st0" x="144.97" y="103.19" width="1.67" height="8.32"/>
    <rect class="st0" x="141.64" y="103.19" width="1.67" height="8.32"/>
    <rect class="st0" x="138.3" y="103.19" width="1.67" height="8.32"/>
    <rect class="st0" x="134.97" y="103.19" width="1.67" height="8.32"/>
    <rect class="st0" x="131.63" y="103.19" width="1.67" height="8.32"/>
    <rect class="st0" x="128.3" y="103.19" width="1.67" height="8.32"/>
    <rect class="st0" x="124.97" y="103.19" width="1.67" height="8.32"/>
    <rect class="st0" x="121.63" y="103.19" width="1.67" height="8.32"/>
    <rect class="st0" x="118.3" y="103.19" width="1.67" height="8.32"/>
    <rect class="st0" x="114.96" y="103.19" width="1.67" height="8.32"/>
    <rect class="st0" x="111.63" y="103.19" width="1.67" height="8.32"/>
    <rect class="st0" x="108.29" y="103.19" width="1.67" height="8.32"/>
    <rect class="st0" x="104.96" y="103.19" width="1.67" height="8.32"/>
    <rect class="st0" x="101.62" y="103.19" width="1.67" height="8.32"/>
    <rect class="st0" x="98.29" y="103.19" width="1.67" height="8.32"/>
    <rect class="st0" x="94.96" y="103.19" width="1.67" height="8.32"/>
    <rect class="st0" x="91.62" y="103.19" width="1.67" height="8.32"/>
    <rect class="st0" x="88.29" y="103.19" width="1.67" height="8.32"/>
    <rect class="st0" x="84.95" y="103.19" width="1.67" height="8.32"/>
    <rect class="st0" x="81.62" y="103.19" width="1.67" height="8.32"/>
    <rect class="st0" x="78.28" y="103.19" width="1.67" height="8.32"/>
    <rect class="st0" x="74.95" y="103.19" width="1.67" height="8.32"/>
    <rect class="st0" x="71.61" y="103.19" width="1.67" height="8.32"/>
    <rect class="st0" x="68.28" y="103.19" width="1.67" height="8.32"/>
    <rect class="st0" x="64.95" y="103.19" width="1.67" height="8.32"/>
    <rect class="st0" x="61.61" y="103.19" width="1.67" height="8.32"/>
    <rect class="st0" x="58.28" y="103.19" width="1.67" height="8.32"/>
  </g>
  <g>
    <polygon class="st2" points="199.99 103.18 199.99 108.18 191.65 108.18 191.65 109.85 199.99 109.85 199.99 111.52 189.99 111.52 189.99 106.51 198.32 106.51 198.32 104.85 189.99 104.85 189.99 103.18 199.99 103.18"/>
    <path class="st2" d="M221.66,103.18v-.02h-1.67v5.02h8.34v1.67h-8.34v1.67h10v-8.34h-8.34ZM228.33,106.51h-6.67v-1.67h6.67v1.67Z"/>
    <polygon class="st2" points="218.33 103.16 218.33 111.5 216.66 111.5 216.66 104.85 211.66 104.85 211.66 106.51 209.99 106.51 209.99 103.16 211.66 103.16 211.66 103.18 216.66 103.18 216.66 103.16 218.33 103.16"/>
    <polygon class="st2" points="209.99 109.85 209.99 111.52 201.66 111.52 201.66 109.85 204.99 109.85 204.99 104.83 201.66 104.83 201.66 103.16 206.66 103.16 206.66 109.85 209.99 109.85"/>
  </g>
</svg>