<?xml version="1.0" encoding="UTF-8"?>
<svg id="Layer_1" xmlns="http://www.w3.org/2000/svg" version="1.1" viewBox="0 0 288 162">
  <!-- Generator: Adobe Illustrator 30.6.0, SVG Export Plug-In . SVG Version: 2.1.4 Build 109)  -->
  <defs>
    <style>
      .st0 {
        fill: #0096ff;
      }

      .st1 {
        fill: #fff;
      }

      .st2 {
        fill: #ffc800;
      }
    </style>
  </defs>
  <rect width="288" height="162"/>
  <g>
    <g>
      <path class="st0" d="M108.91,75.45h-22.19c-.76,0-1.52.31-2.1.81-.59.5-1.02,1.2-1.16,1.96l-2.93,16.65c-.13.76.05,1.46.47,1.96.41.5,1.05.81,1.82.81h24.97l.98-5.55h-22.19l1.96-11.1h16.65l-.49,2.77h-13.87l-.98,5.55h16.65c.76,0,1.52-.31,2.1-.81.59-.5,1.02-1.2,1.16-1.96l.49-2.77.49-2.77.49-2.77c.13-.76-.05-1.46-.47-1.96-.41-.5-1.05-.81-1.82-.81Z"/>
      <path class="st0" d="M117.06,71.86c.59-.5,1.02-1.2,1.16-1.96l1.47-8.32c.13-.76-.05-1.46-.47-1.96-.41-.5-1.05-.81-1.82-.81h-19.42l.49-2.77h22.08l.98-5.55h-24.86c-.76,0-1.52.31-2.1.81-.59.5-1.02,1.2-1.16,1.96l-.49,2.77-.49,2.77-.49,2.77c-.13.76.05,1.46.47,1.96.41.5,1.05.81,1.82.81h19.42l-.49,2.77h-22.19l-.98,5.55h24.97c.76,0,1.52-.31,2.1-.81Z"/>
      <path class="st0" d="M192.47,89.32c-.13.76-.57,1.46-1.16,1.96-.59.5-1.34.81-2.1.81h-8.32c-.76,0-1.41-.31-1.82-.81-.41-.5-.6-1.2-.47-1.96l2.45-13.87h-5.55l-2.93,16.65c-.27,1.53.11,2.92.94,3.92.82,1,2.1,1.63,3.63,1.63h13.87c1.53,0,3.03-.62,4.21-1.63,1.18-1,2.05-2.39,2.32-3.92l2.93-16.65h-5.55l-2.45,13.87Z"/>
      <path class="st0" d="M62.55,91.28c-.41-.5-.6-1.2-.47-1.96l2.45-13.87h-5.55l-2.92,16.54c-.27,1.53.11,2.92.94,3.92.82,1,2.1,1.63,3.63,1.63h16.65l.98-5.55h-14.63c-.44-.13-.81-.38-1.07-.7Z"/>
      <path class="st0" d="M228.2,75.45h-22.19c-.76,0-1.52.31-2.1.81-.59.5-1.02,1.2-1.16,1.96l-2.93,16.65c-.13.76.05,1.46.47,1.96.41.5,1.05.81,1.82.81h24.97l.98-5.55h-22.19l1.96-11.1h16.65l-.49,2.77h-13.87l-.98,5.55h16.65c.76,0,1.52-.31,2.1-.81.59-.5,1.02-1.2,1.16-1.96l.49-2.77.49-2.77.49-2.77c.13-.76-.05-1.46-.47-1.96-.41-.5-1.05-.81-1.82-.81Z"/>
      <path class="st0" d="M86.54,71.86c.59-.5,1.02-1.2,1.16-1.96l.49-2.77.49-2.77.98-5.55.49-2.77.49-2.77c.13-.76-.05-1.46-.47-1.96-.41-.5-1.05-.81-1.82-.81h-24.86l-.98,5.55h22.08l-.49,2.77h-19.42c-.76,0-1.52.31-2.1.81-.59.5-1.02,1.2-1.16,1.96l-.49,2.77-.98,5.55c-.13.76.05,1.46.47,1.96.41.5,1.05.81,1.82.81h22.19c.76,0,1.52-.31,2.1-.81ZM82.64,67.13h-16.65l.49-2.77h16.65l-.49,2.77Z"/>
      <path class="st0" d="M174.35,50.48h-22.19c-.76,0-1.52.31-2.1.81-.59.5-1.02,1.2-1.16,1.96l-2.93,16.65c-.13.76.05,1.46.47,1.96.41.5,1.05.81,1.82.81h24.97l.98-5.55h-22.19l1.96-11.1h16.65l-.49,2.77h-13.87l-.98,5.55h16.65c.76,0,1.52-.31,2.1-.81.59-.5,1.02-1.2,1.16-1.96l.49-2.77.49-2.77.49-2.77c.13-.76-.05-1.46-.47-1.96-.41-.5-1.05-.81-1.82-.81Z"/>
      <path class="st0" d="M168.48,83.77h-16.65l-.98,5.55h13.87l-.49,2.77h-16.65l.49-2.77.98-5.55.49-2.77h22.08l.62-3.54c-.05-.46-.22-.87-.49-1.2-.41-.5-1.05-.81-1.82-.81h-22.19c-.76,0-1.52.31-2.1.81-.59.5-1.02,1.2-1.16,1.96l-.49,2.77-.49,2.77-.98,5.55-.49,2.77-.49,2.77c-.13.76.05,1.46.47,1.96.41.5,1.05.81,1.82.81h22.19c.76,0,1.52-.31,2.1-.81.59-.5,1.02-1.2,1.16-1.96l1.47-8.32c.13-.76-.05-1.46-.47-1.96-.41-.5-1.05-.81-1.82-.81Z"/>
      <path class="st0" d="M139.43,75.45h-24.86l-.98,5.55h22.08l-.49,2.77h-19.42c-.76,0-1.52.31-2.1.81-.59.5-1.02,1.2-1.16,1.96l-1.47,8.32c-.13.76.05,1.46.47,1.96.41.5,1.05.81,1.82.81h22.19c.76,0,1.52-.31,2.1-.81.59-.5,1.02-1.2,1.16-1.96l.49-2.77.49-2.77.98-5.55.49-2.77.49-2.77c.13-.76-.05-1.46-.47-1.96-.41-.5-1.05-.81-1.82-.81ZM133.72,92.1h-16.65l.49-2.77h16.65l-.49,2.77Z"/>
      <path class="st0" d="M181.24,52.11c-1.18,1-2.05,2.39-2.32,3.92l-2.93,16.65h5.55l2.45-13.87c.13-.76.57-1.46,1.16-1.96.59-.5,1.34-.81,2.1-.81h13.87l.96-5.44.02-.11h-16.65c-1.53,0-3.03.62-4.21,1.63Z"/>
      <path class="st0" d="M129.94,50.59h-5.55l-2.92,16.54c-.27,1.53.11,2.92.94,3.92.82,1,2.1,1.63,3.63,1.63h16.65l.98-5.55h-16.65l.73-4.16h16.65l.98-5.55h-16.65l1.2-6.83Z"/>
    </g>
    <g>
      <polygon class="st1" points="233.42 61.58 231.84 62.93 224.19 69.43 216.35 69.43 225.58 61.58 219.17 53.42 227.01 53.42 232.31 60.23 233.42 61.58"/>
      <polygon class="st1" points="220.03 61.58 218.44 62.93 210.79 69.43 202.95 69.43 212.18 61.58 205.77 53.42 213.62 53.42 218.92 60.23 220.03 61.58"/>
    </g>
    <g>
      <polygon class="st1" points="181.27 111.51 179.61 111.51 181.07 103.19 182.74 103.19 181.27 111.51"/>
      <polygon class="st1" points="177.94 111.51 176.27 111.51 177.74 103.19 179.41 103.19 177.94 111.51"/>
      <polygon class="st1" points="174.6 111.51 172.94 111.51 174.4 103.19 176.07 103.19 174.6 111.51"/>
      <polygon class="st1" points="171.27 111.51 169.6 111.51 171.07 103.19 172.74 103.19 171.27 111.51"/>
      <polygon class="st1" points="167.93 111.51 166.27 111.51 167.74 103.19 169.4 103.19 167.93 111.51"/>
      <polygon class="st1" points="164.6 111.51 162.93 111.51 164.4 103.19 166.07 103.19 164.6 111.51"/>
      <polygon class="st1" points="161.27 111.51 159.6 111.51 161.07 103.19 162.73 103.19 161.27 111.51"/>
      <polygon class="st1" points="157.93 111.51 156.26 111.51 157.73 103.19 159.4 103.19 157.93 111.51"/>
      <polygon class="st1" points="154.6 111.51 152.93 111.51 154.4 103.19 156.06 103.19 154.6 111.51"/>
      <polygon class="st1" points="151.26 111.51 149.6 111.51 151.06 103.19 152.73 103.19 151.26 111.51"/>
      <polygon class="st1" points="147.93 111.51 146.26 111.51 147.73 103.19 149.4 103.19 147.93 111.51"/>
      <polygon class="st1" points="144.59 111.51 142.93 111.51 144.39 103.19 146.06 103.19 144.59 111.51"/>
      <polygon class="st1" points="141.26 111.51 139.59 111.51 141.06 103.19 142.73 103.19 141.26 111.51"/>
      <polygon class="st1" points="137.92 111.51 136.26 111.51 137.73 103.19 139.39 103.19 137.92 111.51"/>
      <polygon class="st1" points="134.59 111.51 132.92 111.51 134.39 103.19 136.06 103.19 134.59 111.51"/>
      <polygon class="st1" points="131.26 111.51 129.59 111.51 131.06 103.19 132.72 103.19 131.26 111.51"/>
      <polygon class="st1" points="127.92 111.51 126.25 111.51 127.72 103.19 129.39 103.19 127.92 111.51"/>
      <polygon class="st1" points="124.59 111.51 122.92 111.51 124.39 103.19 126.05 103.19 124.59 111.51"/>
      <polygon class="st1" points="121.25 111.51 119.59 111.51 121.05 103.19 122.72 103.19 121.25 111.51"/>
      <polygon class="st1" points="117.92 111.51 116.25 111.51 117.72 103.19 119.39 103.19 117.92 111.51"/>
      <polygon class="st1" points="114.58 111.51 112.92 111.51 114.38 103.19 116.05 103.19 114.58 111.51"/>
      <polygon class="st1" points="111.25 111.51 109.58 111.51 111.05 103.19 112.72 103.19 111.25 111.51"/>
      <polygon class="st1" points="107.91 111.51 106.25 111.51 107.72 103.19 109.38 103.19 107.91 111.51"/>
      <polygon class="st1" points="104.58 111.51 102.91 111.51 104.38 103.19 106.05 103.19 104.58 111.51"/>
      <polygon class="st1" points="101.25 111.51 99.58 111.51 101.05 103.19 102.71 103.19 101.25 111.51"/>
      <polygon class="st1" points="97.91 111.51 96.24 111.51 97.71 103.19 99.38 103.19 97.91 111.51"/>
      <polygon class="st1" points="94.58 111.51 92.91 111.51 94.38 103.19 96.04 103.19 94.58 111.51"/>
      <polygon class="st1" points="91.24 111.51 89.58 111.51 91.04 103.19 92.71 103.19 91.24 111.51"/>
      <polygon class="st1" points="87.91 111.51 86.24 111.51 87.71 103.19 89.38 103.19 87.91 111.51"/>
      <polygon class="st1" points="84.57 111.51 82.91 111.51 84.37 103.19 86.04 103.19 84.57 111.51"/>
      <polygon class="st1" points="81.24 111.51 79.57 111.51 81.04 103.19 82.71 103.19 81.24 111.51"/>
      <polygon class="st1" points="77.9 111.51 76.24 111.51 77.71 103.19 79.37 103.19 77.9 111.51"/>
      <polygon class="st1" points="74.57 111.51 72.9 111.51 74.37 103.19 76.04 103.19 74.57 111.51"/>
      <polygon class="st1" points="71.24 111.51 69.57 111.51 71.04 103.19 72.7 103.19 71.24 111.51"/>
      <polygon class="st1" points="67.9 111.51 66.23 111.51 67.7 103.19 69.37 103.19 67.9 111.51"/>
      <polygon class="st1" points="64.57 111.51 62.9 111.51 64.37 103.19 66.03 103.19 64.57 111.51"/>
      <polygon class="st1" points="61.23 111.51 59.57 111.51 61.03 103.19 62.7 103.19 61.23 111.51"/>
      <polygon class="st1" points="57.9 111.51 56.23 111.51 57.7 103.19 59.37 103.19 57.9 111.51"/>
      <polygon class="st1" points="54.56 111.51 52.9 111.51 54.36 103.19 56.03 103.19 54.56 111.51"/>
    </g>
    <g>
      <polygon class="st2" points="196.08 103.18 195.2 108.18 186.86 108.18 186.57 109.85 194.9 109.85 194.61 111.52 184.61 111.52 185.49 106.51 193.82 106.51 194.12 104.85 185.78 104.85 186.08 103.18 196.08 103.18"/>
      <path class="st2" d="M217.75,103.18v-.02s-1.66,0-1.66,0l-.89,5.02h8.34l-.29,1.67h-8.34l-.29,1.67h10l1.47-8.34h-8.34ZM223.83,106.51h-6.67l.29-1.67h6.67l-.29,1.67Z"/>
      <polygon class="st2" points="214.42 103.16 212.95 111.5 211.29 111.5 212.46 104.85 207.46 104.85 207.16 106.51 205.49 106.51 206.09 103.16 207.75 103.16 207.75 103.18 212.75 103.18 212.75 103.16 214.42 103.16"/>
      <polygon class="st2" points="204.91 109.85 204.61 111.52 196.28 111.52 196.57 109.85 199.9 109.85 200.79 104.83 197.46 104.83 197.75 103.16 202.75 103.16 201.57 109.85 204.91 109.85"/>
    </g>
  </g>
</svg>