<?xml version="1.0" encoding="UTF-8"?>
<svg id="Layer_1" xmlns="http://www.w3.org/2000/svg" xmlns:xlink="http://www.w3.org/1999/xlink" version="1.1" viewBox="0 0 288 162">
  <!-- Generator: Adobe Illustrator 30.6.0, SVG Export Plug-In . SVG Version: 2.1.4 Build 109)  -->
  <defs>
    <style>
      .st0 {
        fill: url(#linear-gradient);
      }
    </style>
    <linearGradient id="linear-gradient" x1="146.6" y1="68.25" x2="141.4" y2="97.75" gradientTransform="translate(0 164) scale(1 -1)" gradientUnits="userSpaceOnUse">
      <stop offset="0" stop-color="#43a7c6"/>
      <stop offset=".1" stop-color="#67b7cf"/>
      <stop offset=".23" stop-color="#8cc8d9"/>
      <stop offset=".36" stop-color="#abd6e2"/>
      <stop offset=".5" stop-color="#c2e1e8"/>
      <stop offset=".64" stop-color="#d3e8ed"/>
      <stop offset=".8" stop-color="#ddedf0"/>
      <stop offset="1" stop-color="#e1eff1"/>
    </linearGradient>
  </defs>
  <rect width="288" height="162"/>
  <path class="st0" d="M176.49,79.54v-1.71c0-.47-.38-.79-.86-.71l-7.69,1.36c-.94.17-1.71-.46-1.71-1.41v-6.84c0-.94.77-1.85,1.71-2.01l15.39-2.71v3.42l-9.4,1.66c-.47.08-.86.53-.86,1.01v1.71c0,.47.38.79.86.71l7.69-1.36c.94-.17,1.71.46,1.71,1.41v6.84c0,.94-.77,1.85-1.71,2.01l-13.11,2.31-3.42-2.82,10.54-1.86c.47-.08.86-.53.86-1.01ZM141.15,76.37v-3.42l-17.1,3.02v17.1l17.1-3.02v-3.42l-10.26,1.81v-3.42l10.26-1.81v-3.42l-10.26,1.81v-3.42s10.26-1.81,10.26-1.81ZM243.19,72.06v-13.68l5.13-.9v-3.42l-17.1,3.02v3.42l5.13-.9v13.68l6.84-1.21h0ZM76.16,87.83v-3.42l-17.1,3.02v17.1l17.1-3.02v-3.42l-10.26,1.81v-3.42l10.26-1.81v-3.42l-10.26,1.81v-3.42s10.26-1.81,10.26-1.81ZM56.78,91.25v-3.42l-17.1,3.02v17.1l6.84-1.21v-6.84l10.26-1.81v-3.42l-10.26,1.81v-3.42l10.26-1.81ZM101.25,85.12v11.97l17.1-3.02c1.89-.33,3.42-2.13,3.42-4.02v-10.26c0-1.89-1.53-3.15-3.42-2.82l-17.1,3.02v3.42l12.83-2.26c.47-.08.86.23.86.7v8.55c0,.47-.38.92-.86,1.01l-5.99,1.06v-8.55l-6.84,1.21h0ZM208.42,66.22v10.26c0,.95.76,1.58,1.71,1.41l17.1-3.02c.95-.17,1.71-1.07,1.71-2.01v-13.68c0-.95-.76-1.58-1.71-1.41l-17.1,3.02c-.95.17-1.71,1.07-1.71,2.01v1.71l12.83-2.26c.47-.08.86.23.86.7v8.55c0,.47-.38.92-.86,1.01l-5.13.9c-.47.08-.86-.23-.86-.7v-7.7l-6.84,1.21h0ZM185.61,65.11v17.1l6.84-1.21v-6.84l6.84-1.21v6.84l6.84-1.21v-17.1l-6.84,1.21v6.84l-6.84,1.21v-6.84l-6.84,1.21h0ZM98.97,97.49v-15.39c0-.94-.77-1.58-1.71-1.41l-4.32.76c-.53.09-1.05.31-1.53.63l-6.12,4.14v-3.42l-6.84,1.21v17.1l6.84-1.21v-8.36l6.84-4.63v11.78l6.84-1.21h0ZM33.03,85.37v30.4l124.46-21.95-3.42-2.82-117.62,20.74v-23.56l215.1-37.93v23.56l-84.39,14.88-8.36-6.89,3.44-.61c.95-.17,1.71-1.07,1.71-2.01v-8.55c0-.95-.76-1.58-1.71-1.41l-18.81,3.32v3.42l12.83-2.26c.47-.08.86.23.86.7v3.42c0,.47-.38.92-.86,1.01l-5.99,1.06v-3.42l-6.84,1.21v11.97l6.84-1.21v-5.13l11.78,9.7,92.92-16.38v-30.4L33.03,85.37Z"/>
</svg>