<?xml version="1.0" encoding="UTF-8"?>
<svg id="Layer_1" xmlns="http://www.w3.org/2000/svg" xmlns:xlink="http://www.w3.org/1999/xlink" version="1.1" viewBox="0 0 288 162">
  <!-- Generator: Adobe Illustrator 30.6.0, SVG Export Plug-In . SVG Version: 2.1.4 Build 109)  -->
  <defs>
    <style>
      .st0 {
        fill: url(#linear-gradient);
      }
    </style>
    <linearGradient id="linear-gradient" x1="144" y1="220.06" x2="144" y2="189.95" gradientTransform="translate(0 -124)" gradientUnits="userSpaceOnUse">
      <stop offset="0" stop-color="#43a7c6"/>
      <stop offset=".15" stop-color="#61b4ce"/>
      <stop offset=".43" stop-color="#97cddd"/>
      <stop offset=".68" stop-color="#bfdfe7"/>
      <stop offset=".88" stop-color="#d8eaee"/>
      <stop offset="1" stop-color="#e1eff1"/>
    </linearGradient>
  </defs>
  <rect width="288" height="162"/>
  <path class="st0" d="M129.99,75.26l-1.37,3.78h9.14c.17,0,.25.14.19.3l-1.15,3.17c-.06.17-.25.3-.41.3h-9.14l-1.37,3.78h11.03c.17,0,.25.14.19.3l-1.15,3.17c-.06.17-.25.3-.41.3h-15.76c-.17,0-.25-.14-.19-.3l6.65-18.28c.06-.17.25-.3.41-.3h15.76c.17,0,.25.14.19.3l-1.15,3.17c-.06.17-.25.3-.41.3h-11.05ZM167.45,75.26h11.34c.17,0,.35-.14.41-.3l1.15-3.17c.06-.17-.03-.3-.19-.3h-13.55c-2.09,0-4.39,1.69-5.15,3.78l-1.37,3.78c-.76,2.09.32,3.78,2.4,3.78h7.87c.52,0,.79.42.6.95l-.69,1.89c-.19.52-.77.95-1.29.95h-14.18l2.63,3.78h12.39c2.09,0,4.39-1.69,5.15-3.78l1.37-3.78c.76-2.09-.32-3.78-2.4-3.78h-7.87c-.52,0-.79-.42-.6-.95l.69-1.89c.19-.52.77-.95,1.29-.95h0ZM63.93,90.37h15.76c.17,0,.35-.14.41-.3l1.15-3.17c.06-.17-.03-.3-.19-.3h-11.03l1.37-3.78h9.14c.17,0,.35-.14.41-.3l1.15-3.17c.06-.17-.03-.3-.19-.3h-9.14l1.37-3.78h11.03c.17,0,.35-.14.41-.3l1.15-3.17c.06-.17-.03-.3-.19-.3h-15.76c-.17,0-.35.14-.41.3l-6.65,18.28c-.06.17.03.3.19.3h.02,0ZM94.15,90.37h4.43c.17,0,.35-.14.41-.3l5.28-14.51c.82-2.25-.34-4.07-2.59-4.07h0c-.63,0-1.31.15-1.98.43l-7.91,3.35,1.26-3.48c.06-.17-.03-.3-.19-.3h-4.43c-.17,0-.35.14-.41.3l-6.65,18.28c-.06.17.03.3.19.3h4.43c.17,0,.35-.14.41-.3l3.57-9.8,8.12-3.44c.37-.16.66.07.53.42l-4.66,12.82c-.06.17.03.3.19.3h0ZM64.13,82.94l1.46-4.01c.06-.17-.03-.3-.19-.3h-10.09l2.93-8.04h11.03c.17,0,.35-.14.41-.3l1.46-4.01c.06-.17-.03-.3-.19-.3h-21.1l2.94,4.62-9.16,25.16c-.06.17.03.3.19.3h4.85c.17,0,.35-.14.41-.3l4.55-12.5h10.09c.17,0,.35-.14.41-.3,0,0,0-.02,0-.02ZM110.11,77.15h-4.43c-.17,0-.35.14-.41.3l-4.7,12.92h13.85c2.09,0,4.39-1.69,5.15-3.78l4.12-11.33c.76-2.09-.32-3.78-2.4-3.78h-13.55c-.17,0-.35.14-.41.3l-1.15,3.17c-.06.17.03.3.19.3h11.34c.52,0,.79.42.6.95l-3.44,9.44c-.19.52-.77.95-1.29.95h-6.61l3.33-9.14c.06-.17-.03-.3-.19-.3h0ZM203.71,77.15h-4.43c-.17,0-.35.14-.41.3l-3.33,9.14c-.76,2.09.32,3.78,2.4,3.78h10.07c2.09,0,4.39-1.69,5.15-3.78l4.12-11.33c.76-2.09-.32-3.78-2.4-3.78h-10.07c-2.09,0-4.39,1.69-5.15,3.78h11.65c.52,0,.79.42.6.95l-3.44,9.44c-.19.52-.77.95-1.29.95h-5.66c-.52,0-.79-.42-.6-.95l2.98-8.2c.06-.17-.03-.3-.19-.3h0ZM187.75,90.37h4.43c.17,0,.35-.14.41-.3l6.65-18.28c.06-.17-.03-.3-.19-.3h-4.43c-.17,0-.35.14-.41.3l-2.64,7.25h-7.56l2.64-7.25c.06-.17-.03-.3-.19-.3h-4.43c-.17,0-.35.14-.41.3l-6.65,18.28c-.06.17.03.3.19.3h4.43c.17,0,.35-.14.41-.3l2.64-7.25h7.56l-2.64,7.25c-.06.17.03.3.19.3ZM51.22,94.15c-.17,0-.35.14-.41.3l-.47,1.28c-.06.17.03.3.19.3h98.99l-1.31-1.89H51.22ZM239.77,65.96h-19.92c-.17,0-.35.14-.41.3l-1.46,4.01c-.06.17.03.3.19.3h7.75l-9.16,25.16c-.06.17.03.3.19.3h4.85c.17,0,.35-.14.41-.3l9.16-25.16h6.72l6.3-4.62h-4.62ZM72.13,67.85h144.76c.17,0,.35-.14.41-.3l.47-1.28c.06-.17-.03-.3-.19-.3H72.82c-.17,0-.35.14-.41.3l-.47,1.28c-.06.17.03.3.19.3ZM215.78,94.15h-57.83l-6.56-9.44h1.6c2.09,0,4.39-1.69,5.15-3.78l2.06-5.67c.76-2.09-.32-3.78-2.4-3.78h-13.55c-.17,0-.35.14-.41.3l-1.15,3.17c-.06.17.03.3.19.3h11.34c.52,0,.79.42.6.95l-1.37,3.77c-.19.52-.77.95-1.29.95h-6.61l1.26-3.48c.06-.17-.03-.3-.19-.3h-4.43c-.17,0-.35.14-.41.3l-4.59,12.62c-.06.17.03.3.19.3h4.43c.17,0,.35-.14.41-.3l1.95-5.36,7.87,11.33h63.05c.17,0,.35-.14.41-.3l.47-1.28c.06-.17-.03-.3-.19-.3h0Z"/>
</svg>