<?xml version="1.0" encoding="UTF-8"?>
<svg id="Layer_1" xmlns="http://www.w3.org/2000/svg" xmlns:xlink="http://www.w3.org/1999/xlink" version="1.1" viewBox="0 0 288 162">
  <!-- Generator: Adobe Illustrator 30.6.0, SVG Export Plug-In . SVG Version: 2.1.4 Build 109)  -->
  <defs>
    <style>
      .st0 {
        fill: url(#linear-gradient);
      }
    </style>
    <linearGradient id="linear-gradient" x1="144" y1="96.13" x2="144" y2="65.87" gradientUnits="userSpaceOnUse">
      <stop offset="0" stop-color="#43a7c6"/>
      <stop offset="1" stop-color="#e1eff1"/>
    </linearGradient>
  </defs>
  <rect width="288" height="162"/>
  <path class="st0" d="M65.83,87.56l2.31-13.12c.2-1.11,1.25-2,2.36-2h13.12c1.11,0,1.85.9,1.65,2l-1.16,6.56c-.2,1.11-1.25,2-2.36,2h-9.4c-.14,0-.24-.12-.22-.26l.61-3.48c.03-.14.16-.26.31-.26h7.39l.45-2.55h-9.11l-1.61,9.11h12.86c.14,0,.24.12.22.26l-.61,3.48c-.03.14-.16.26-.31.26h-14.86c-1.11,0-1.85-.9-1.65-2ZM126.53,89.57h14.86c.14,0,.28-.12.31-.26l.61-3.48c.03-.14-.07-.26-.22-.26h-12.86l1.61-9.11h9.11l-.45,2.55h-7.39c-.14,0-.28.12-.31.26l-.61,3.48c-.03.14.07.26.22.26h9.4c1.11,0,2.16-.9,2.36-2l1.16-6.56c.2-1.11-.54-2-1.65-2h-13.12c-1.11,0-2.16.9-2.36,2l-2.31,13.12c-.2,1.11.54,2,1.65,2ZM183.38,76.18l.61-3.48c.03-.14-.07-.26-.22-.26h-14.86c-1.11,0-2.16.9-2.36,2l-1.16,6.56c-.2,1.11.54,2,1.65,2h11.12l-.45,2.55h-25.98c-.14,0-.28.12-.31.26l-.61,3.48c-.03.14.07.26.22.26h27.99c1.11,0,2.16-.9,2.36-2l1.16-6.56c.2-1.11-.54-2-1.65-2h-11.12l.45-2.55h12.86c.14,0,.28-.12.31-.26ZM163.24,78.73l.76-4.29c.2-1.11-.54-2-1.65-2h-13.12c-1.11,0-2.16.9-2.36,2l-2.62,14.86c-.03.14.07.26.22.26h3.48c.14,0,.28-.12.31-.26l2.27-12.86h9.11l-.4,2.29c-.03.14.07.26.22.26h3.48c.14,0,.28-.12.31-.26ZM102.33,89.3l2.62-14.86c.2-1.11-.54-2-1.65-2h-15.13l-2.97,16.87c-.03.14.07.26.22.26h3.48c.14,0,.28-.12.31-.26l2.27-12.86h9.11l-2.27,12.86c-.03.14.07.26.22.26h3.48c.14,0,.28-.12.31-.26ZM221.4,72.43c1.11,0,1.85.9,1.65,2l-2.31,13.12c-.2,1.11-1.25,2-2.36,2h-13.12c-1.11,0-1.85-.9-1.65-2l2.31-13.12c.2-1.11,1.25-2,2.36-2h13.12ZM218.69,76.44h-9.11l-1.61,9.11h9.11l1.61-9.11ZM52.62,89.57h3.48c.14,0,.28-.12.31-.26l2.27-12.86h6.3c.14,0,.28-.12.31-.26l.61-3.48c.03-.14-.07-.26-.22-.26h-6.3l.45-2.55h6.56l.71-4.01h-8.57c-1.11,0-2.16.9-2.36,2l-.8,4.56h-6.3c-.14,0-.28.12-.31.26l-.61,3.48c-.03.14.07.26.22.26h6.3l-2.27,12.86c-.03.14.07.26.22.26ZM236.52,72.43l1.11-6.3c.03-.14-.07-.26-.22-.26h-3.48c-.14,0-.28.12-.31.26l-1.11,6.3h-6.3c-.14,0-.28.12-.31.26l-.61,3.48c-.03.14.07.26.22.26h6.3l-2.27,12.86c-.03.14.07.26.22.26h3.48c.14,0,.28-.12.31-.26l2.27-12.86h6.3c.14,0,.28-.12.31-.26l.61-3.48c.03-.14-.07-.26-.22-.26h-6.3ZM120.98,72.43l1.11-6.3c.03-.14.16-.26.31-.26h3.48c.14,0,.24.12.22.26l-1.46,8.3-2.31,13.12-.35,2h-15.13c-1.11,0-1.85-.9-1.65-2l2.31-13.12c.2-1.11,1.25-2,2.36-2h11.12ZM120.27,76.44h-9.11l-1.61,9.11h9.11l1.61-9.11ZM189.89,76.44h9.11l-2.27,12.86c-.03.14.07.26.22.26h3.48c.14,0,.28-.12.31-.26l2.62-14.86c.2-1.11-.54-2-1.65-2h-11.12l1.11-6.3c.03-.14-.07-.26-.22-.26h-3.48c-.14,0-.28.12-.31.26l-1.46,8.3-2.62,14.86c-.03.14.07.26.22.26h3.48c.14,0,.28-.12.31-.26l2.27-12.86ZM184.93,65.87h-55.97c-.14,0-.28.12-.31.26l-.61,3.48c-.03.14.07.26.22.26h55.97c.14,0,.28-.12.31-.26l.61-3.48c.03-.14-.07-.26-.22-.26ZM235.6,92.12H49.35l2.27-12.86c.03-.14-.07-.26-.22-.26h-3.48c-.14,0-.28.12-.31.26l-2.62,14.86c-.2,1.11.54,2,1.65,2h190.26c1.11,0,2.16-.9,2.36-2l2.62-14.86c.03-.14-.07-.26-.22-.26h-3.48c-.14,0-.28.12-.31.26l-2.27,12.86ZM230.86,65.87h-36.29c-.14,0-.28.12-.31.26l-.61,3.48c-.03.14.07.26.22.26h36.29c.14,0,.28-.12.31-.26l.61-3.48c.03-.14-.07-.26-.22-.26ZM119.32,65.87h-49.41c-.14,0-.28.12-.31.26l-.61,3.48c-.03.14.07.26.22.26h49.41c.14,0,.28-.12.31-.26l.61-3.48c.03-.14-.07-.26-.22-.26Z"/>
</svg>