<?xml version="1.0" encoding="UTF-8"?>
<svg id="Layer_1" xmlns="http://www.w3.org/2000/svg" xmlns:xlink="http://www.w3.org/1999/xlink" version="1.1" viewBox="0 0 288 162">
  <!-- Generator: Adobe Illustrator 30.6.0, SVG Export Plug-In . SVG Version: 2.1.4 Build 109)  -->
  <defs>
    <style>
      .st0 {
        fill: url(#linear-gradient);
      }
    </style>
    <linearGradient id="linear-gradient" x1="144" y1="96.2" x2="144" y2="65.8" gradientUnits="userSpaceOnUse">
      <stop offset="0" stop-color="#a3bedc"/>
      <stop offset=".8" stop-color="#fcfdff"/>
      <stop offset="1" stop-color="#d1e3ec"/>
    </linearGradient>
  </defs>
  <rect width="288" height="162"/>
  <path class="st0" d="M176.49,85.27v-1.71c0-.47-.38-.86-.86-.86h-7.69c-.94,0-1.71-.77-1.71-1.71v-6.84c0-.94.77-1.71,1.71-1.71h15.39v3.42h-9.4c-.47,0-.86.38-.86.86v1.71c0,.47.38.86.86.86h7.69c.94,0,1.71.77,1.71,1.71v6.84c0,.94-.77,1.71-1.71,1.71h-13.11l-3.42-3.42h10.54c.47,0,.86-.38.86-.86ZM141.15,75.87v-3.42h-17.1v17.1h17.1v-3.42h-10.26v-3.42h10.26v-3.42h-10.26v-3.42h10.26ZM243.19,89.55v-13.68h5.13v-3.42h-17.1v3.42h5.13v13.68h6.84ZM76.16,75.87v-3.42h-17.1v17.1h17.1v-3.42h-10.26v-3.42h10.26v-3.42h-10.26v-3.42h10.26ZM56.78,75.87v-3.42h-17.1v17.1h6.84v-6.84h10.26v-3.42h-10.26v-3.42h10.26ZM101.25,77.58v11.97h17.1c1.89,0,3.42-1.53,3.42-3.42v-10.26c0-1.89-1.53-3.42-3.42-3.42h-17.1v3.42h12.83c.47,0,.86.38.86.86v8.55c0,.47-.38.86-.86.86h-5.99v-8.55h-6.84ZM208.42,77.58v10.26c0,.95.76,1.71,1.71,1.71h17.1c.95,0,1.71-.76,1.71-1.71v-13.68c0-.95-.76-1.71-1.71-1.71h-17.1c-.95,0-1.71.76-1.71,1.71v1.71h12.83c.47,0,.86.38.86.86v8.55c0,.47-.38.86-.86.86h-5.13c-.47,0-.86-.38-.86-.86v-7.7h-6.84ZM185.61,72.45v17.1h6.84v-6.84h6.84v6.84h6.84v-17.1h-6.84v6.84h-6.84v-6.84h-6.84ZM98.97,89.55v-15.39c0-.94-.77-1.71-1.71-1.71h-4.32c-.53,0-1.05.12-1.53.36l-6.12,3.06v-3.42h-6.84v17.1h6.84v-8.36l6.84-3.42v11.78h6.84ZM33.03,65.8v30.4h124.46l-3.42-3.42H36.45v-23.56h215.1v23.56h-84.39l-8.36-8.36h3.44c.95,0,1.71-.76,1.71-1.71v-8.55c0-.95-.76-1.71-1.71-1.71h-18.81v3.42h12.83c.47,0,.86.38.86.86v3.42c0,.47-.38.86-.86.86h-5.99v-3.42h-6.84v11.97h6.84v-5.13l11.78,11.78h92.92v-30.4H33.03Z"/>
</svg>