<?xml version="1.0" encoding="UTF-8"?>
<svg id="Layer_1" xmlns="http://www.w3.org/2000/svg" xmlns:xlink="http://www.w3.org/1999/xlink" version="1.1" viewBox="0 0 288 162">
  <!-- Generator: Adobe Illustrator 30.6.0, SVG Export Plug-In . SVG Version: 2.1.4 Build 109)  -->
  <defs>
    <style>
      .st0 {
        fill: url(#linear-gradient);
      }
    </style>
    <linearGradient id="linear-gradient" x1="85.92" y1="141.76" x2="202.47" y2="25.21" gradientUnits="userSpaceOnUse">
      <stop offset="0" stop-color="#43a7c6"/>
      <stop offset=".1" stop-color="#67b7cf"/>
      <stop offset=".23" stop-color="#8cc8d9"/>
      <stop offset=".36" stop-color="#abd6e2"/>
      <stop offset=".5" stop-color="#c2e1e8"/>
      <stop offset=".64" stop-color="#d3e8ed"/>
      <stop offset=".8" stop-color="#ddedf0"/>
      <stop offset="1" stop-color="#e1eff1"/>
    </linearGradient>
  </defs>
  <rect width="288" height="162"/>
  <path class="st0" d="M111.16,76.44l-1.61,9.11h9.11l1.61-9.11h-9.11ZM111.16,76.44l-1.61,9.11h9.11l1.61-9.11h-9.11ZM111.16,76.44l-1.61,9.11h9.11l1.61-9.11h-9.11ZM111.16,76.44l-1.61,9.11h9.11l1.61-9.11h-9.11ZM111.16,76.44l-1.61,9.11h9.11l1.61-9.11h-9.11ZM111.16,76.44l-1.61,9.11h9.11l1.61-9.11h-9.11ZM111.16,76.44l-1.61,9.11h9.11l1.61-9.11h-9.11ZM209.57,76.44l-1.61,9.11h9.11l1.61-9.11h-9.11ZM111.16,76.44l-1.61,9.11h9.11l1.61-9.11h-9.11ZM209.57,76.44l-1.61,9.11h9.11l1.61-9.11h-9.11ZM243.46,68.79h-2.65l.47-2.65c.38-2.15-1.06-3.91-3.22-3.91H59.18c-3.12,0-6.1,2.53-6.65,5.65l-.16.91h-2.65c-2.15,0-4.22,1.75-4.6,3.91l-3.78,21.42c-.55,3.12,1.54,5.65,4.65,5.65h190.26c3.12,0,6.1-2.53,6.65-5.65l3.78-21.42c.38-2.15-1.06-3.91-3.22-3.91ZM194.26,66.14c.03-.15.16-.26.31-.26h36.29c.15,0,.24.12.22.26l-.61,3.48c-.03.15-.16.26-.31.26h-36.29c-.15,0-.24-.12-.22-.26l.61-3.48ZM223.05,74.44l-2.31,13.12c-.2,1.11-1.25,2-2.36,2h-13.12c-1.11,0-1.85-.9-1.65-2l2.31-13.12c.2-1.11,1.25-2,2.36-2h13.12c1.11,0,1.85.9,1.65,2ZM187.7,66.14c.03-.15.16-.26.31-.26h3.48c.15,0,.24.12.22.26l-1.11,6.3h11.12c1.11,0,1.85.9,1.65,2l-2.62,14.86c-.03.15-.16.26-.31.26h-3.48c-.15,0-.24-.12-.22-.26l2.27-12.86h-9.11l-2.27,12.86c-.03.15-.16.26-.31.26h-3.48c-.15,0-.24-.12-.22-.26l4.08-23.17ZM128.65,66.14c.03-.15.16-.26.31-.26h55.97c.15,0,.24.12.22.26l-.61,3.48c-.03.15-.16.26-.31.26h-55.97c-.15,0-.24-.12-.22-.26l.61-3.48ZM180.88,79c1.11,0,1.85.9,1.65,2l-1.16,6.56c-.2,1.11-1.25,2-2.36,2h-27.99c-.15,0-.24-.12-.22-.26l.61-3.48c.03-.15.16-.26.31-.26h25.98l.45-2.55h-11.12c-1.11,0-1.85-.9-1.65-2l1.16-6.56c.2-1.11,1.25-2,2.36-2h14.86c.15,0,.24.12.22.26l-.61,3.48c-.03.15-.16.26-.31.26h-12.86l-.45,2.55h11.12ZM150.53,76.44l-2.27,12.86c-.03.15-.16.26-.31.26h-3.48c-.15,0-.24-.12-.22-.26l2.62-14.86c.2-1.11,1.25-2,2.36-2h13.12c1.11,0,1.85.9,1.65,2l-.76,4.29c-.03.15-.16.26-.31.26h-3.48c-.15,0-.24-.12-.22-.26l.4-2.29h-9.11ZM127.19,74.44c.2-1.11,1.25-2,2.36-2h13.12c1.11,0,1.85.9,1.65,2l-1.16,6.56c-.2,1.11-1.25,2-2.36,2h-9.4c-.15,0-.24-.12-.22-.26l.61-3.48c.03-.15.16-.26.31-.26h7.39l.45-2.55h-9.11l-1.61,9.11h12.86c.15,0,.24.12.22.26l-.61,3.48c-.03.15-.16.26-.31.26h-14.86c-1.11,0-1.85-.9-1.65-2l2.31-13.12ZM122.09,66.14c.03-.15.16-.26.31-.26h3.48c.15,0,.24.12.22.26l-4.13,23.43h-15.13c-1.11,0-1.85-.9-1.65-2l2.31-13.12c.2-1.11,1.25-2,2.36-2h11.12l1.11-6.3ZM69.61,66.14c.03-.15.16-.26.31-.26h49.41c.15,0,.24.12.22.26l-.61,3.48c-.03.15-.16.26-.31.26h-49.41c-.15,0-.24-.12-.22-.26l.61-3.48ZM91.48,76.44l-2.27,12.86c-.03.15-.16.26-.31.26h-3.48c-.15,0-.24-.12-.22-.26l2.97-16.87h15.13c1.11,0,1.85.9,1.65,2l-2.62,14.86c-.03.15-.16.26-.31.26h-3.48c-.15,0-.24-.12-.22-.26l2.27-12.86h-9.11ZM68.14,74.44c.2-1.11,1.25-2,2.36-2h13.12c1.11,0,1.85.9,1.65,2l-1.16,6.56c-.2,1.11-1.25,2-2.36,2h-9.4c-.15,0-.24-.12-.22-.26l.61-3.48c.03-.15.16-.26.31-.26h7.39l.45-2.55h-9.11l-1.61,9.11h12.86c.15,0,.24.12.22.26l-.61,3.48c-.03.15-.16.26-.31.26h-14.86c-1.11,0-1.85-.9-1.65-2l2.31-13.12ZM48.77,72.7c.03-.15.16-.26.31-.26h6.3l.8-4.56c.2-1.11,1.25-2,2.36-2h8.57l-.71,4.01h-6.56l-.45,2.55h6.3c.15,0,.24.12.22.26l-.61,3.48c-.03.15-.16.26-.31.26h-6.3l-2.27,12.86c-.03.15-.16.26-.31.26h-3.48c-.15,0-.24-.12-.22-.26l2.27-12.86h-6.3c-.15,0-.24-.12-.22-.26l.61-3.48ZM239.26,94.12c-.2,1.11-1.25,2-2.36,2H46.64c-1.11,0-1.85-.9-1.65-2l2.62-14.86c.03-.15.16-.26.31-.26h3.48c.15,0,.24.12.22.26l-2.27,12.86h186.25l2.27-12.86c.03-.15.16-.26.31-.26h3.48c.15,0,.24.12.22.26l-2.62,14.86ZM242.42,76.18c-.03.15-.16.26-.31.26h-6.3l-2.27,12.86c-.03.15-.16.26-.31.26h-3.48c-.15,0-.24-.12-.22-.26l2.27-12.86h-6.3c-.15,0-.24-.12-.22-.26l.61-3.48c.03-.15.16-.26.31-.26h6.3l1.11-6.3c.03-.15.16-.26.31-.26h3.48c.15,0,.24.12.22.26l-1.11,6.3h6.3c.15,0,.24.12.22.26l-.61,3.48ZM207.97,85.56h9.11l1.61-9.11h-9.11l-1.61,9.11ZM120.27,76.44h-9.11l-1.61,9.11h9.11l1.61-9.11ZM111.16,76.44l-1.61,9.11h9.11l1.61-9.11h-9.11ZM111.16,76.44l-1.61,9.11h9.11l1.61-9.11h-9.11ZM111.16,76.44l-1.61,9.11h9.11l1.61-9.11h-9.11ZM111.16,76.44l-1.61,9.11h9.11l1.61-9.11h-9.11ZM111.16,76.44l-1.61,9.11h9.11l1.61-9.11h-9.11ZM111.16,76.44l-1.61,9.11h9.11l1.61-9.11h-9.11ZM111.16,76.44l-1.61,9.11h9.11l1.61-9.11h-9.11ZM111.16,76.44l-1.61,9.11h9.11l1.61-9.11h-9.11Z"/>
  <g>
    <path d="M67.48,89.57h14.86c.14,0,.28-.12.31-.26l.61-3.48c.03-.14-.07-.26-.22-.26h-12.86l1.61-9.11h9.11l-.45,2.55h-7.39c-.14,0-.28.12-.31.26l-.61,3.48c-.03.14.07.26.22.26h9.4c1.11,0,2.16-.9,2.36-2l1.16-6.56c.2-1.11-.54-2-1.65-2h-13.12c-1.11,0-2.16.9-2.36,2l-2.31,13.12c-.2,1.11.54,2,1.65,2Z"/>
    <path d="M126.53,89.57h14.86c.14,0,.28-.12.31-.26l.61-3.48c.03-.14-.07-.26-.22-.26h-12.86l1.61-9.11h9.11l-.45,2.55h-7.39c-.14,0-.28.12-.31.26l-.61,3.48c-.03.14.07.26.22.26h9.4c1.11,0,2.16-.9,2.36-2l1.16-6.56c.2-1.11-.54-2-1.65-2h-13.12c-1.11,0-2.16.9-2.36,2l-2.31,13.12c-.2,1.11.54,2,1.65,2Z"/>
    <path d="M183.38,76.18l.61-3.48c.03-.14-.07-.26-.22-.26h-14.86c-1.11,0-2.16.9-2.36,2l-1.16,6.56c-.2,1.11.54,2,1.65,2h11.12l-.45,2.55h-25.98c-.14,0-.28.12-.31.26l-.61,3.48c-.03.14.07.26.22.26h27.99c1.11,0,2.16-.9,2.36-2l1.16-6.56c.2-1.11-.54-2-1.65-2h-11.12l.45-2.55h12.86c.14,0,.28-.12.31-.26Z"/>
    <path d="M163.24,78.73l.76-4.29c.2-1.11-.54-2-1.65-2h-13.12c-1.11,0-2.16.9-2.36,2l-2.62,14.86c-.03.14.07.26.22.26h3.48c.14,0,.28-.12.31-.26l2.27-12.86h9.11l-.4,2.29c-.03.14.07.26.22.26h3.48c.14,0,.28-.12.31-.26Z"/>
    <path d="M102.33,89.3l2.62-14.86c.2-1.11-.54-2-1.65-2h-15.13l-2.97,16.87c-.03.14.07.26.22.26h3.48c.14,0,.28-.12.31-.26l2.27-12.86h9.11l-2.27,12.86c-.03.14.07.26.22.26h3.48c.14,0,.28-.12.31-.26Z"/>
    <path d="M208.28,72.43c-1.11,0-2.16.9-2.36,2l-2.31,13.12c-.2,1.11.54,2,1.65,2h13.12c1.11,0,2.16-.9,2.36-2l2.31-13.12c.2-1.11-.54-2-1.65-2h-13.12ZM217.08,85.56h-9.11l1.61-9.11h9.11l-1.61,9.11Z"/>
    <path d="M52.62,89.57h3.48c.14,0,.28-.12.31-.26l2.27-12.86h6.3c.14,0,.28-.12.31-.26l.61-3.48c.03-.14-.07-.26-.22-.26h-6.3l.45-2.55h6.56l.71-4.01h-8.57c-1.11,0-2.16.9-2.36,2l-.8,4.56h-6.3c-.14,0-.28.12-.31.26l-.61,3.48c-.03.14.07.26.22.26h6.3l-2.27,12.86c-.03.14.07.26.22.26Z"/>
    <path d="M236.52,72.43l1.11-6.3c.03-.14-.07-.26-.22-.26h-3.48c-.14,0-.28.12-.31.26l-1.11,6.3h-6.3c-.14,0-.28.12-.31.26l-.61,3.48c-.03.14.07.26.22.26h6.3l-2.27,12.86c-.03.14.07.26.22.26h3.48c.14,0,.28-.12.31-.26l2.27-12.86h6.3c.14,0,.28-.12.31-.26l.61-3.48c.03-.14-.07-.26-.22-.26h-6.3Z"/>
    <path d="M109.86,72.43c-1.11,0-2.16.9-2.36,2l-2.31,13.12c-.2,1.11.54,2,1.65,2h15.13l.35-2,2.31-13.12,1.46-8.3c.03-.14-.07-.26-.22-.26h-3.48c-.14,0-.28.12-.31.26l-1.11,6.3h-11.12ZM118.67,85.56h-9.11l1.61-9.11h9.11l-1.61,9.11Z"/>
    <path d="M189.89,76.44h9.11l-2.27,12.86c-.03.14.07.26.22.26h3.48c.14,0,.28-.12.31-.26l2.62-14.86c.2-1.11-.54-2-1.65-2h-11.12l1.11-6.3c.03-.14-.07-.26-.22-.26h-3.48c-.14,0-.28.12-.31.26l-1.46,8.3-2.62,14.86c-.03.14.07.26.22.26h3.48c.14,0,.28-.12.31-.26l2.27-12.86Z"/>
    <path d="M184.93,65.87h-55.97c-.14,0-.28.12-.31.26l-.61,3.48c-.03.14.07.26.22.26h55.97c.14,0,.28-.12.31-.26l.61-3.48c.03-.14-.07-.26-.22-.26Z"/>
    <path d="M235.6,92.12H49.35l2.27-12.86c.03-.14-.07-.26-.22-.26h-3.48c-.14,0-.28.12-.31.26l-2.62,14.86c-.2,1.11.54,2,1.65,2h190.26c1.11,0,2.16-.9,2.36-2l2.62-14.86c.03-.14-.07-.26-.22-.26h-3.48c-.14,0-.28.12-.31.26l-2.27,12.86Z"/>
    <path d="M230.86,65.87h-36.29c-.14,0-.28.12-.31.26l-.61,3.48c-.03.14.07.26.22.26h36.29c.14,0,.28-.12.31-.26l.61-3.48c.03-.14-.07-.26-.22-.26Z"/>
    <path d="M119.32,65.87h-49.41c-.14,0-.28.12-.31.26l-.61,3.48c-.03.14.07.26.22.26h49.41c.14,0,.28-.12.31-.26l.61-3.48c.03-.14-.07-.26-.22-.26Z"/>
  </g>
</svg>