<?xml version="1.0" encoding="UTF-8"?>
<svg id="Layer_1" xmlns="http://www.w3.org/2000/svg" version="1.1" viewBox="0 0 288 162">
  <!-- Generator: Adobe Illustrator 30.6.0, SVG Export Plug-In . SVG Version: 2.1.4 Build 109)  -->
  <defs>
    <style>
      .st0 {
        fill: #fff;
      }
    </style>
  </defs>
  <rect width="288" height="162"/>
  <g>
    <path class="st0" d="M104.98,98.52l-.76.83c.94,2.32.82,4.9-.34,6.9l-1.05,1.24s-.01,0-.02.01l-.65.13s-.06.08-.08.22c0,.07-.02.15-.04.25,0,.01,0,.02-.02.02-1.97.98-5.19,2.04-7.59,2.04h-5.97c-.5,0-1.17-.14-1.43-.5-.4-.55-.34-1.14.15-1.63.01-.01.03-.01.05,0,.76.65,1.68.69,2.67.73.18,0,.37.02.56.03,5.61.37,7.8-1.16,8.61-2.1,1.09-1.28,1.6-3.36,1.29-5.29-.27-1.68-1.1-3.03-2.36-3.79-.2-.12-.42-.59-.47-.8,0-.01,0-.03.01-.04h.04l.56.25h0s.07-.11.1-.19c0-.02.02-.05.03-.07,0-.01.01-.02.03-.02l1.29-.23c-.32-.36-.53-.38-.88-.42h-.08l-1.7-.19c-.32-.03-.63-.11-.93-.19-.48-.12-.93-.24-1.45-.19-.25.02-.73-.16-.87-.22-.19.16-.72.24-1.05.16-.16-.04-.26-.12-.29-.22l-.37-1.33v-.03s.02-.01.03-.01c1.07.11,2.39,0,3.53-.31.93-.24,2.19-.72,2.84-1.61,1.57-2.15,1.52-5.24-.13-7.2-.32-.39-.76-.71-1.19-1.02-.23-.17-.45-.33-.64-.5,0,0-.01-.02-.01-.03v-.07c.01-.22.03-.73-.11-.75l-.99-.19s-.02-.01-.03-.02l-.16-.5c-.03-.08-.21-.16-.28-.18h0c-.1.29-.18.52-.3.59-.16.09-.42-.26-.49-.36-.36.15-.85.25-1.17.1-1.38-.63-2.56-.39-3.82-.13-.75.15-1.52.31-2.32.26-1.01,1.21-.68,3.06-.55,3.6h0c-.22,1.25-.3,2.22.01,3.22v.02c-.23,1.76-.18,3.47-.03,5.49l.84-.64h.03s.02,0,.02.02c.12.22.41.41.56.38.6-.13,1.08-.1,1.59-.08.19,0,.38.02.59.02h1.66s.01.02.02.02c.24.17.39.61.4.94,0,.23-.05.41-.16.5h-.02l-2.89-.07c-1.15.24-1.87.01-2.56-.21-.7-.22-1.37-.44-2.42-.08-.07.08-.14.18-.21.27-.15.19-.28.37-.43.46-.23.13-.71.14-.87.02-.05-.04-.07-.09-.05-.14v-6.31c0-.63.01-1.22,0-1.87l-.1-3.54c-.02-.67-.35-1.03-.64-1.35-.36-.4-.65-.71-.12-1.4l-.8-.43s-.02-.02-.02-.03c-.09-1.18.58-2.34,1.74-3.01h.03s.02.01.02.02l.81,2.19.74-.8s.02-.01.03,0c.01,0,.02,0,.03.02.32.58.79.83,1.29,1.1.46.25.94.51,1.34,1.05l.57-.17c.05-.02.11-.13.09-.55,0-.02,0-.03.02-.03l1.29-.46c1.06-1.16,1.7-2.51,2.36-4.02l2.74-6.26s.01-.02.03-.02c.01,0,.02,0,.03.01l1.09,1.32s.01.02,0,.04l-2.01,4.69-1.14,3.16c-.13.35.14.91.39,1.14l.69-.61h.03s.02,0,.02.02c.5.81,1.18.91,1.96,1.02l.13.02,3.01.43c1.75.25,4.61,1.51,5.44,3.24,0,.02,0,.04-.02.05-.43.22-.71.47-.78.7.53.97.77,2.06.76,3.5-.02,2.69-.92,3.93-3.72,5.12-.86.37-1.68.99-1.57,1.41.04.14.27.35.4.37.03,0,.04,0,.05-.02l.35-.74c.04-.08.2-.12.35-.11.14,0,.24.06.27.14s-.02.17-.13.28l2.17.88c1.39.56,2.5,1.41,3.5,2.68.01.01,0,.03,0,.04v-.08Z"/>
    <path class="st0" d="M137.2,79.34l-.06,1.38s0,.02,0,.03c-.79.63-1.98.56-2.71-.15v-.02l-.1-.48s-.03-.03-.08-.04c-.13-.02-.28.02-.31.07-.05.09-.12.28-.13.34l.5.24s.04.03.05.08c0,.13-.11.36-.18.42-.11.08-.34-.01-.42-.09l-.39-.38c-.06,0-.19.18-.27.3-.06.09-.11.16-.15.2h-.02l-2.41.03h0s-.08-.06-.16-.31c0-.03-.02-.05-.02-.06h0s-.19.33-.19.33c0,0-.02.02-.03.02l-2.42.04h0s-.03-.01-.03-.03l-.05-.36c0-.06-.07-.16-.1-.18l-.36.22h-.02c-.08,0-.16-.04-.22-.12-.18-.24-.19-.73-.13-1l-.04-.03-.57,1.2s-.03.02-.04.02c-.94-.35-1.67-.33-2.68-.15h0l-1.19-.14c-1.12.68-2.26.91-3.4.69-1.11.51-2.19.2-3.21-.22-.18-.03-.37-.08-.55-.13-.5-.13-1.02-.28-1.48-.04-1.77.89-1.99,2.86-1.99,4.26l-.02,4.07.08,5.48s0,.02-.01.03l-1.19.98c-.06.05-.16.08-.28.08-.07,0-.15,0-.23-.03-.3-.07-.68-.28-.81-.56-.42-.93-.4-2.01-.38-3.06v-.45l-.27-.72-.13.81c.2.95.13,2.1.06,2.7,0,.08.04.2.08.32.05.14.1.26.07.34-.07.18-.53.25-.69.22-.27-.05-.22-.62-.15-1.47.08-.87.17-1.96-.05-2.88v-.02c.15-.65.15-1.33,0-2.2h0c.13-.78.11-1.49.08-2.23,0-.1,0-.19-.01-.29,0-.23,0-.47.02-.7.03-.45.05-.92-.07-1.36-.03-.11.05-.43.14-.49.03-.02.06-.02.08,0l.4.29.1.1c.04.05.15.16.18.16l.35-.34h0c-.05-.14-.65-.44-.75-.46l-.53.26h-.03s-.02-.01-.02-.02c-.18-.77-.55-1.29-1.13-1.61,0,0-.01,0-.01-.01l-.32-.58c-.65-.07-1.46-.04-2.29.09h-.03s-.01-.01-.01-.02l-.16-1.07v-.03s.02-.01.03-.01l2.57-.16h.02c.77.57,1.2.61,2.06.19.09-.05.19-.09.29-.13.45-.19.88-.36.86-1.07-.03-1.11-.49-2.18-.94-3.22-.05-.11-.1-.22-.14-.33l-1.01-2.35c-.07-.17-.13-.35-.19-.52-.12-.35-.25-.71-.5-1.07v-.03l.23-.61c-.52.15-.9.18-1.26-.09-.61.43-1.37.19-2.04-.03-.48.29-1.04.3-1.63.03-.3.06-.97.14-1.14-.26v-.03s.02-.02.03-.01l.4.04h0s.11-.08.13-.15c.01-.03,0-.13-.02-.15,0,0-.03,0-.11.15-.01.02-.04.03-.06.03-.08-.02-.19-.26-.18-.38.02-.19.19-.38.34-.44.03-.01.06,0,.09,0,.13.08.21.44.24.64l1.38-.21s.03,0,.03.02l.29.45s.16-.05.24-.09c.07-.04.12-.07.17-.08l.61-.16c.08-.02.1-.14.12-.37,0-.05,0-.1.02-.16,0-.02.02-.03.03-.03l1.34-.03-2.36-5.67s0-.04.02-.04l1.33-.68c-.25-.28-.39-.18-.58-.04-.14.1-.3.21-.53.19-.01,0-.03,0-.03-.02v-.03c.52-.68,1.46-1.05,2.22-1.36.09-.04.18-.07.26-.11.02,0,.03,0,.04,0,.52.77.82,1.51,1.14,2.29.14.34.28.69.44,1.04l2.69,5.83v.02l-.7,3.13-.42,2.3c.28.27.5.66.66.95.1.19.21.38.26.39l.36-.36v-.02c-.03-.09-.3-.25-.4-.25,0,0-.02,0-.02-.01-.69-.78-.76-1.95-.17-2.97l.58-2.16.03-.03s.03,0,.03.02l.68,1.13,1.29,2.86,1.67,3.3.92-.51s.03,0,.04.01c1.04,1.54,2.74,1.91,4.44.98.67-.37.96-1.03,1.18-1.9v-17.14c.01-.09.09-.4.2-.46.02,0,.05-.02.07,0l.43.23s.15-.02.23-.1c.06-.06.09-.12.07-.14-.13-.26-.38-.32-.57-.36-.14-.03-.25-.06-.29-.15-.03-.07,0-.17.08-.31.02-.03.04-.05.07-.05.06,0,.14.02.25.11l.84.04-.05-.35s0-.05.04-.07c.09-.06.38-.07.46-.02l1.54.89s.01,0,.02.02c.14.43.22.65.44,1.03v12.19l-.25.27s.07.11.12.16c.08.09.14.16.14.22l-.03,3.92c0,.51.24,1.09.48,1.6l.71-.57c.15-.12.45.15.65.34.05.04.09.08.11.1l.09.03c2.45.26,5.11.25,8.15-.03l2.17-.3h.03s0,.02,0,.03l-.08-.07Z"/>
    <path class="st0" d="M212.95,58.07l-.23-.09c.77-.58.54-1.26.3-1.98-.23-.67-.49-1.44.02-2.25l1.17-.68s.02-.02.02-.03,0-.02-.02-.03c-.37-.25-.66-.38-1.01-.43-.02-.02-.03-.03-.05-.05-.12-.13-.26-.28-.38-.24l-.48.16c-.1.03-.4.05-.54.05-.09,0-.19-.18-.2-.4,0-.02,0-.03-.03-.03l-2.09-.15-3.55.09h-.06c-.34,0-.73.02-.94.29-.12.15-.2.43-.17.64,0,.12.06.22.14.28h.03l.18-.04c.79-.16,1.47-.3,1.99.22.14.14.28.26.41.39.45.41.88.8,1.12,1.43l2.21,5.73-2.2,5.76-2.39,6.31s-.03-.06-.04-.09c-.1-.21-.17-.34-.24-.35-.02,0-.04,0-.06.02l-.28.28c-.1.1-.41.24-.57.26-.12-.95-.52-1.73-1.12-2.2.16-.85-.16-1.59-.48-2.29-.08-.19-.17-.39-.25-.58l-2.56-6.61c-.3-.77-.86-.99-1.38-1.11l-1.84-.41-1.25-.24c.23-.45.75-.28,1.45-.05.67.22,1.5.49,2.34.27,0,0,.02,0,.02-.02v-.03c-.22-.48-.43-.75-.56-.9l-1.14-2.7c.26-.05.29-.1.3-.11,0-.02,0-.03,0-.05l-.12-.32c-.22-.61-.42-1.4,0-2.09l1.44-.72c1.66.27,2.45-.26,2.55-.66.03-.13,0-.23-.11-.26-.14-.05-.57-.15-.72-.11l-3.46.91-3.4.82s.08-.09.11-.14c.12-.14.22-.26.22-.37l-.02-.53c.31.49.66.5,1.25.33l2.99-.89s.03-.02.02-.04c0-.02-.02-.03-.03-.03l-8.35-.02s-.03.02-.03.03v1.18h.03l.87-.19,1.68,1.29c.59.87.99,1.78,1.41,2.74.1.23.2.46.31.69,0,0,0,0,.02.02h.03c.63-.28,1.24-.27,1.72.02l-1.62.21s-.02,0-.03.02,0,.02,0,.03l1.28,3.34,4.17,11.67s0,.02.02.02h.03l.74-.72s0-.03,0-.04c-.8-1.51-1.18-3.04-1.21-4.78l.72,2.81c.14.54.34,1.17.73,1.73,0,.02.03.02.05,0,.15-.09.28-.18.41-.27.37-.25.7-.46,1.11-.63-.86.65-1.67,1.3-2.37,2.26v.03c.84,2.76,1.58,4.84,2.5,6.94l-3.06.06h-.73c-.86,0-1.38,0-1.49.28-.13.32-.24.75-.02.97,0,0,0,0,.02.01l4.62.46-.38.76s0,.04,0,.04c.98.61,1.55,1.76,1.8,2.38,0,.01.02.02.03.02h0l1.26-.47s.03-.02.02-.04l-.47-1.58c-.24-.78-.11-1.66.02-2.51l.02-.11h0c-.11-.62,0-1.13.36-1.53v-.02c.13-.67.3-1.16.57-1.67.22-.43.35-.92.47-1.41.15-.6.29-1.17.61-1.58.73-.97,1.15-2.05,1.32-3.38.46-.68.74-1.35,1.06-2.16l1.2-3.45c.09-.26-.22-.66-.44-.92l.7-.14s.02,0,.02-.02c.36-.55.6-1.23.84-1.88.1-.27.19-.53.29-.78.1-.24.12-.48.15-.74.02-.21.05-.43.11-.66l.53-1.91s.02-.05.03-.08c.05-.13.1-.27.02-.3l-.03.04Z"/>
    <path class="st0" d="M162.19,80.6c.65.45,1.63.22,1.94.13.26.14.52.17.76.09.26-.09.49-.31.64-.62.27-.77.61-1.5,1.03-2.24.12-.21.21-.45.3-.67.22-.54.42-1.06.97-1.29l-.26.57c-.03.06,0,.13.03.2.05.08.15.16.29.16,1.13,1.58,2.62,2.88,4.67,4.1l-3.72-.45s-.07-.01-.11-.02c-.22-.04-.39-.07-.44.02l-.24.39s-.03-.04-.05-.06c-.15-.19-.29-.37-.43-.39-.13-.02-.28.17-.42.34-.03.04-.06.08-.09.11,0-.02-.02-.04-.03-.07-.11-.24-.27-.56-.44-.53-.22.04-.53.36-.55.57-.02.23.31.48.5.59.51.29.96.22,1.42-.21.13.23.43.55.71.6l2.24.39c.11.02.31.2.38.34.02.04.03.08.02.09l-.19.37v.03s0,.02.02.02c2.76,1.38,4.64,2.94,5.93,4.91.07.11.37.34.51.27l.37-.17-.46.6v.03s0,.02.02.02c.5.27.54.53.43.96v.02c.86,1.66,1.23,3.4,1.1,5.18.09.94.44,1.48,1.15,1.72.63.88,1.57,1.52,2.79,1.9h.03s0-.01.02-.02c.25-1.21.43-2.49.11-3.68.17-.56.15-1.17.06-1.98l-.88-3.36-.71-1.51c-.08-.17-.18-.55-.09-.65.1-.11.35-.21.63-.33h.03s.02-.02.02-.04v-.03l-1.67-1.87-1.63-1.43-1.93-1.11.64-.12s.03-.02.03-.03,0-.03-.02-.04c-.4-.14-.72-.2-1.16-.19,0,0-.02,0-.03.01l-.65.74c-.17-.11-.26-.26-.26-.44,0-.29.22-.66.55-.9,1.81.44,3.61.6,5.68.49.02,0,.03-.02.03-.03,0-.55-.07-1-.21-1.35,0-.01-.02-.02-.04-.02-2.54.32-5.02-.37-6.8-1.87l-2.24-2.37s-.02-.01-.03-.01-.02,0-.03.01l-.62.85c-1.04-1.71-1.58-3.48-2.06-5.6-.12-.52-.22-.98-.86-1.18-.02,0-.03,0-.04.02-.28.49-.59.95-.89,1.39-.53.77-1.03,1.5-1.3,2.35-.79,2.42-2.63,4.31-4.81,4.92,0,0-.02,0-.02.02v.03l.4,1.34s0,.01,0,.02l-.05-.03ZM179.27,86.51l-.63.81s-.09.11-.12.11h0c-.05-.06-.19-.34-.17-.39l.69-.95c.19.17.28.36.24.42h-.01Z"/>
    <path class="st0" d="M74.75,52.8h.03c1.05-.2,1.8-.19,2.56.05.31.49.73.99,1.18,1.4.26,1.78.24,3.53.22,5.38v.9l.2.36s-.09.18-.14.25c-.02.02-.03.05-.05.07v4.08l-1.54.22s-.03.02-.03.03c0,.02.01.03.03.03l1.18.21c-.61.31-1.01.3-1.57.23l.27-.31c.05-.06.06-.23.02-.3-.02-.05-.06-.06-.08-.06h-.35c-.63,0-1.2.04-1.68.15-.01,0-.02.01-.03.02,0,.01,0,.03.01.03l.36.33s0,.14-.02.23c0,.05-.02.1-.03.15,0,.02,0,.03.02.04.74.34,1.63.43,2.27.5.52.05.93.09.98.23.02.06-.02.14-.12.25l-.19.2s-.04.07-.02.1c.01.03.04.04.07.04l.42.02.06,4.6v.02c.34.45.62.97.89,1.46.66,1.19,1.34,2.42,2.83,3.01h.03s.02-.02.02-.03v-14.36s-.01-.03-.03-.03l-1.04-.04,1.07-.3s.03-.02.03-.03l-.06-3.63-.02-1.41c-.01-1.3.22-2.47.73-3.55.1-.04.2-.08.3-.12.42-.16.84-.33,1.21-.41l1.73-.37c.32.07.58.06.8-.02s.38-.29.43-.46c.04-.12.03-.23-.02-.3h-.01c-.6-.29-1.03.12-1.31.48l-.47-.55s-.02,0-.03,0h-9.12s-.03,0-.03.03l-.1.35h0l-.14-.34s-.02-.02-.03-.02l-1.72-.02s-.02,0-.03,0c0,0-.01.02,0,.03l.04,1.16s0,.02.01.03h0Z"/>
    <path class="st0" d="M154.45,109.52c-1.5-.21-2.23-.76-2.8-2.09,0-.01,0-.02-.02-.02h-.03l-.81.68-1.45-2.98c-.12-.49-.38-.96-.76-1.4-.02-.21-.09-.71-.29-1.15l-5.41-12.27-1.31-2.29s-.02-.02-.03-.02l-3.27.24s-.02,0-.03.02v.03l4.35,10.58h-2.51s-.03,0-.03.02c0,.01,0,.03,0,.04.39.27.66.52.89.75.62.59.96.91,2.54.55l-.2.56c-.04.1.1.22.23.33.04.04.08.07.11.1l1.11,2.77c.03.07.05.15.08.23.18.52.36,1.07.7,1.2l.55,1.99c.14.49.17,1.21-.19,1.61-.25.28-.73.45-1.43.49l-1.44.09s-.03.02-.03.04l.05,1.34s0,.02.02.03h.03l1.68-.62s0,0,.02-.01l.08-.13s.02.05.04.07c.28.29,1.67.19,2.96-.53,1.33-.3,2.93-.08,3.39,0,.86.5,1.68.68,2.65.79,0,0,.03,0,.03-.02l.53-.96v-.03s0-.02-.03-.02h.02Z"/>
    <path class="st0" d="M141.76,52.8c.84-.2,1.91-.27,2.36.14.84.76,1.36,1.48,1.38,2.71l.09,6.27s0,.03.02.03c0,0,.03,0,.04,0l1.01-1.3c.21-.27.57-.48.83-.51l-.8.8s0,.02,0,.03c0,0,0,.02.02.03l.47.18s.02.03,0,.1c0,.07-.02.13-.03.15l-.36-.22h-.04l-1.26,1.21s0,.02,0,.03c.13.84.17,1.56.13,2.35l-.07,1.57.03,3.11-.05,4.82s0,.03.03.03l2.62.63c.25.06.5.11.7.11.1,0,.18-.01.25-.04.22-.08.42-.68.37-.96-.21-1.21-.16-2.34-.12-3.43.02-.52.04-1.07.04-1.61l-.08-6.74s0-.02,0-.02c-.18-.18-.46-.37-.86-.59l.85-.04s.03-.02.03-.03l.03-4.77.09-2.37c.45-1.13,1.19-1.37,1.78-1.56.51-.17.96-.31.98-1,0,0,0-.02,0-.03s-.02,0-.03,0c-.75.18-1.36.11-1.87-.23h-.02l-2.12-.07s-.02,0-.03,0,0,.02,0,.03l.15,1.1-.84-.37.54-.17c.18-.06.06-.55.06-.55,0-.02-.02-.03-.03-.03h0l-4.82.02c-.09,0-.21.07-.34.14-.14.08-.29.16-.36.12l-.72-.44h-.04c-.15.11-.25.32-.27.57-.02.32.09.63.27.8,0,0,.02,0,.03,0h-.02Z"/>
    <path class="st0" d="M227.53,52.51s0,0-.02,0h-.09c-.06,0-.21.02-.22-.02l-.2-.46s-.02-.02-.03-.02l-2.15.13-.93-.31h-.03s0,.02,0,.03v1.3s.02.02.03.03.02,0,.03,0c.77-.22,1.72-.19,2.43.08-.05.36.16.62.37.86.2.23.39.45.36.77-.11,1.04-.36,2.09-.74,3.13l-5.52,14.96-1.2.41c-.11-.14-.18-.41-.24-.68-.04-.17-.08-.35-.13-.5l-.7-1.91c-.04-.11-.08-.23-.12-.34-.23-.66-.46-1.34-.99-1.79h0l-1.61-.69c-.14-.34-.31-.57-.72-.59-.25-.01-.39.22-.54.49l-.72,1.22v.03l2.13,5.85.61,1.46c.18.64.4,1.21.63,1.8.09.22.18.45.27.69l.51,1.36s.06.04.1.05c.05,0,.14,0,.22-.02-.11.19-.17.32-.15.4l.82,2.31c.07.19.28.37.44.43.04.01.07.02.11.02s.06,0,.08-.02c.41-.24.39-.78.37-1.45-.02-.57-.04-1.27.18-2.02l1.2-4.07c1.08-1.27,1.77-3,1.94-4.87,0-.01,0-.02,0-.03l-.38-.37s.02-.05.08-.1c.05-.04.09-.05.1-.05l.41.18h.04c.38-.4.6-1.01.59-1.67.42-.54.63-1.1.65-1.7.06-.14.12-.28.17-.42.32-.74.64-1.51.59-2.13v-.02c-.1-.16-.14-.35-.09-.56.08-.38.38-.8.76-1.05.44-.28.48-.76.53-1.22.03-.27.05-.53.16-.72.08-.14.17-.27.26-.4.37-.53.71-1.03.54-1.86l.94-2.03v-.02c-.1-.41-.04-.55.04-.77.03-.08.07-.18.11-.31l.42-1.47s0-.03-.02-.04c-.7-.39-1.2-.78-1.63-1.28h-.03Z"/>
    <path class="st0" d="M192.52,73.43c.12-.06.19-.1.21-.15l.7-1.98c.58-2.99.65-7.38-.36-9.62,0,0-.02-.02-.03-.02s-.03,0-.03.02c-1.09,1.98-1.25,3.94-1.27,5.77,0,.52-.06.97-.17,1.37l.04-4.02s0-.03-.03-.03l-2.07-.19h-.03s0,.02,0,.03v3.69c0,2.05-.48,4.05-.96,5.74-.87,3.06-3.15,5.38-6.24,6.35-.02,0-.03.02-.02.04l.15,1.35s0,.02,0,.02h.03l1.97-.35-.2.54s0,.03,0,.04l1.09.88h.02l3.19.31h.09c.23,0,.65-.05.78-.19.11-.11.19-.32.27-.54.02-.06.05-.13.08-.19l1.87-.63h0s.04-.04.08-.07c.18-.16.28-.23.31-.22l.31.41s.02.01.03.01h0l3.25-.05,1.04-.12s.03-.02.03-.03l.07-.87s0-.03-.03-.04l-2.21-.35h0c-1.64.19-3.37.22-5.46.07l-.49.06s-.02,0-.03-.02c-.03-.05-.04-.13-.02-.16l.2-.35v-.04s-.02-.02-.04-.01c-.49.11-.82.37-1.26.81-.28-.36-.16-.78.36-1.24,2.31-1.66,3.84-3.44,4.68-5.46v-.02l-.07-.43s.12-.09.19-.12h-.04Z"/>
    <path class="st0" d="M130.52,103.51c-.17.11-.35.22-.48.35-.36.38-.56.91-.75,1.42-.11.31-.23.63-.39.9-.67,1.21-1.1,2.16-1.33,3.44,0,.02-.02.03-.04.03l-1.08-.09c-1.97.29-4.11.55-6.35.52-.02,0-.03-.01-.03-.03l-.05-.67c-.27.09-.59.34-.81.63,0,0-.02.01-.03.01l-2.03.09c-1.19.05-3.46.08-5.26-.36-.72-.18-2-.23-2.77-.03l-2.32.61h0s-.03,0-.03-.03l-.37-1.21v-.03l.02-.02c.69-.16,1.13-.78,1.15-1.63l.13-4.52v-.36c0-.81,0-1.58.87-2l-.81-.1s-.04-.02-.06-.06c-.08-.23.07-1.42.23-1.58.17-.17.62-.21,1.07-.24l-.16-.78c-.39.26-.77.22-1,.1-.12-.06-.19-.15-.19-.23,0-.17.14-.45.29-.56.06-.05.11-.06.16-.05.32.07.91.07,1.19-.1l-.19-.26c-.04-.06-.02-.19.03-.28.02-.05.08-.15.16-.15l1.82-.12s.03.01.04.03l.38,2.98.11,1.69c-.2,1.39-.19,2.45,0,3.46h0c-.3,1.4-.19,2.85.32,4.22l.71-.56c.13-.1.32.13.51.36.06.07.12.14.16.18,4.23.38,7.78.23,10.84-.46,1.18-.27,2.12-1.01,2.74-2.14l1.86-3.43s.02-.02.04-.02c.83.12,1.53.09,2.34,0,.02,0,.03,0,.04.03.14.51-.27.77-.67,1.02v.03Z"/>
    <path class="st0" d="M166.29,74.02h0s.02,0,.03-.02l2.64-4.41c.36-.6.34-1.34.33-2.05v-.6c.06-3.99.96-9.38,3.26-11.47,1.12-1.02,2.06-1.66,3.24-2.21,0,0,.02-.02.02-.03s0-.03-.02-.03c-.79-.42-1.66-.69-2.45-.74h-.02c-5.15,2.52-8.36,7.79-8.38,13.75,0,2.23.15,4.9,1.33,7.77,0,.01.02.02.03.02v.02Z"/>
    <path class="st0" d="M139.86,99.5c-.12-.08-.24-.16-.34-.26-.02-.02-.05-.05-.09-.09-.16-.17-.31-.31-.41-.31h0s-.05.01-.07.03l-.36.42-.31-.35h0s-.03-.01-.05,0v.02s-.13-.03-.21-.05c-.45-.11-1.39-.33-1.9.11l-1.33-.33s-.04,0-.04.03c-.05.15-.14.42-.19.43-.42-.3-.79-.29-1.09-.28-.35,0-.61.01-.82-.43,0,0,0-.02-.02-.02h-.03l-.65.49,1.12-2.67c.49-1.17.46-2.13.34-2.35h.02c.3-.08.48-.14.52-.21l.93-1.54v-.04c-.25-.37-.08-.54.11-.71.1-.09.2-.18.23-.31l.64-2.28s0-.03-.02-.04c-.14-.09-.2-.18-.18-.28.05-.21.43-.39.74-.43.02,0,.03-.01.03-.03l.32-1.79c0-.07.15-.28.2-.34h0s0,0,.02.02c.02.04.08.24.09.26h0s0,.02.03.02h.02c.23-.08.55-.15.82-.18-.58.62-.09,1.36.1,1.65.02.04.05.07.06.09h0s.02.04.04.04h0l.55-.06,2.73-.08s.02,0,.03-.01v-.03c-.12-1.02-.52-1.85-.94-2.74-.06-.12-.11-.24-.17-.36l-.72-1.52c-.27-.58-.49-1.14-.13-1.6.32-.4.81-.65,1.35-.69,0,0,.02,0,.03-.02l.94-2.23,1.44-3.29c.04-.09.17-.54.05-.65l-.4-.38,1.14-.3s.03-.02.03-.04-.02-.03-.03-.03l-1.45-.02h0s-.02,0-.03.02l-2.02,3.31c-.76,1-1.74,1.7-2.92,2.1,0,0-.02.02-.02.03l-.07,1.13c.11,1.02-.2,1.85-.55,2.68l-7.6,17.9v.03s0,.02.02.02c.17.05.33.07.48.07.66,0,1.13-.44,1.48-.78.32-.3.49-.45.65-.29l.32.33h.02s8.25.03,8.25.03h0s.02,0,.03-.02v-.03c-.21-.4-.49-.59-.76-.77Z"/>
    <path class="st0" d="M54.77,52.19s0,.13,0,.22c-.02.19-.05.41.08.45.21.08.61-.09.73-.14.46-.2,1.26-.02,1.65.06.11.02.18.04.22.04l-.1.36s0,.03,0,.04c.48.31,1.28.98,1.3,1.95l.09,4.37s0,.03.02.03c.19.08.31.13.35.17l-.33.19s-.02.02-.02.03l-.03,4.32s0,.03.02.03l.56.17-.58.12s-.03.02-.03.03v3.07s.02.03.04.03c.07.01.13.02.2.02.5,0,.73-.34,1-.77l.03-.04.31-.48s.15.01.38.01c.65.01,2,.04,2.88.36h.04c.23-.25.36-.64.34-1.03-.02-.37-.17-.68-.42-.89,0-.01-.03-.01-.04,0l-.05.04c-.26.22-.45.38-.82.58l-.02-9.45c0-.94.33-1.9.63-2.75h0l2.19-.75s.02,0,.02-.02v-.03l-.06-.08c-.29-.37-.43-.54-.54-.84,0,0-.02-.02-.03-.02h0l-8.49.06c-.09,0-.2.03-.32.05-.24.05-.52.11-.65-.03-.08-.08-.44-.13-.56-.07-.05.02-.05.06-.05.08l.07.52h-.01Z"/>
    <path class="st0" d="M164.15,108.71c-.69-.18-1.05-.37-1.44-.77,0-.01-.03-.01-.05,0l-.8.6c-.24-.76-.35-1.44-.35-2.08v-2.7l.03-3.16-.03-3.91c0-.58-.06-1.09-.19-1.62,0-.01,0-.02-.02-.03l-3.58-1.17h-.03s0,.02,0,.03l.07,5.99s0,.03.03.03.03,0,.04-.02c.19-.55.5-.93,1.01-1.19l-1.24,2.08v.03s0,.02.02.02l.4.16s.11.07.12.1l-.34.21s-.02.02-.02.03l-.12,5.91c-.1,1.02-.57,1.7-1.29,1.89-.18.05-.35.12-.51.19-.29.13-.56.24-.93.22-.02,0-.03,0-.04.03l-.19.72v.03s0,.01.02.02c.09.01.18.03.26.04.38.06.7.11,1.01.11.21,0,.41-.02.61-.08l2.36-.65c.72-.2,1.97-.16,2.77-.02.24.04.47.1.7.15.51.12.99.23,1.53.18.02,0,.03-.01.03-.03l.18-1.28s0-.03-.03-.04l.02-.02Z"/>
    <path class="st0" d="M196.68,108.79l-3.72-.16c-.11,0-.23,0-.34-.01-.82-.02-1.59-.04-2.13-.75,0,0,0-.01-.02-.01h-.03l-.67.61c-.23-.5-.35-.87-.36-1.14l-.14-3.95s0-.02,0-.03h-.03l-.59.08s-.03-.02-.04-.08c-.02-.1,0-.19.03-.2l.6-.15s.02,0,.02-.02c.2-.45.12-1.37,0-2.02l.13-1.66,1.21-1.3c.07-.08.03-.4-.03-.53-.04-.07-.07-.08-.1-.07l-.46.06-4.5.04s-.02,0-.02.01c0,0,0,.02,0,.03l.1,2.34s0,.02.02.03l1.12.5-1.12-.15h-.03s0,.02,0,.03l-.02,6.7c0,.52-.37,1.26-.65,1.79-1.1.56-2.13.74-3.33.84-.02,0-.03.02-.03.03-.03.48.02.97.14,1.28,0,0,0,.02.02.02h.02l.96-.43c1.54-.03,2.73-.23,3.84-.66,1.17-.44,2.44-.22,3.68,0,.28.05.57.1.85.14l3.29.14h2.55s.02,0,.03-.01v-.03l-.2-1.29s-.02-.03-.03-.03h0Z"/>
    <path class="st0" d="M67.64,80.79c-1.58-.05-2.74-.49-3.76-1.42,0,0-.02-.01-.03,0,0,0-.02,0-.02.01l-.54.65-.72-1.33c.15-.6.14-1.13-.02-1.78v-4.66s-.02-.02-.03-.03l-.37-.24s.09-.06.14-.09c.14-.08.22-.13.22-.19-.02-.63.29-.94.6-1.24.32-.31.65-.63.55-1.3,0-.02-.02-.03-.03-.03h0l-2.85.03s-.02,0-.03.02l-.53.77c-.07-.2-.08-.31-.15-.67l-.02-.12s-.02-.03-.03-.03h-1.24s-.03.02-.03.04l-.02,2.8s0,.02,0,.03h.03l1.01-.31c.46.26.96.38,1.56.45-.51.03-1.03,0-1.64-.11h-.02l-.93.31s-.02.02-.02.03l-.02,5.12c0,.55-.17,1.58-.51,2.04-.74.97-2.01,1.11-3.27,1.11h-.04s-.02,0-.03.02c-.27.4-.24.99.07,1.35,0,0,.02.01.03.01h.02l.62-.34c1.37.11,2.56-.3,3.82-.74.2-.07.4-.14.6-.21,1.48-.14,2.66.14,3.9.43.32.07.64.15.98.22.01,0,.02,0,.03-.01.03-.03.07-.09.12-.15.13-.17.35-.45.46-.42l.7.16s0,.04-.02.06c-.05.21-.08.36,0,.38l.39.11c.23.06.54.12.76.05.28-.09.42-.48.34-.74,0-.01-.02-.02-.03-.02v-.02Z"/>
    <path class="st0" d="M94.24,68.45h0c.4-.09,1.73-.45,2.17-1.41l.53-1.14c.09-.19.18-.38.27-.57.72-1.54,1.46-3.14,1.99-4.77l.88-1.97c.04-.08.07-.16.1-.24.27-.64.55-1.3,1.21-1.24l-.53.71c-.09.12.08.31.25.5.02.02.04.04.05.05l2,4.93s.01.02.02.02h.03c.72-.56,1.39-.83,1.92-1.05.51-.21.88-.36.99-.65.07-.19.04-.43-.11-.75l-1.68-3.65-1.17-2.7c-.49-1.13-.7-2.12-.1-3.23,0-.02,0-.04-.01-.05-.47-.26-1.11-.3-1.49-.08,0,0-.01,0-.02.02l-4.5,10.67-2.82,6.57v.04s.02.01.03.01v-.02Z"/>
    <path class="st0" d="M181.99,101.56s.06-.06.1-.1c.57-.56.67-1.86.64-2.47,0-.01,0-.02-.02-.03l-2.13-1.44-1.5-1.32s-.02-.01-.04,0c0,0-.02.02-.02.03-.02,4.01-1.23,7.13-3.59,9.27-2.21,2-5.38,3.1-9.42,3.29,0,0-.02,0-.02.01v.03l.04.37s-.02.04-.08.06-.09.02-.1.02l-.18-.21s-.02-.01-.03-.01-.02,0-.03.02l-.37.57c-.05.08-.32-.04-.51-.13-.03-.02-.07-.03-.1-.05h-.03s-.02.02-.02.03l.02.54s.02.06.04.08c.11.09.42.06.51.05h.17c.35.03.7.05,1.04.05.48,0,.94-.04,1.42-.18,1.03.11,2.13-.05,3.2-.45h0c1.39,0,2.61-.55,3.79-1.08.3-.14.61-.28.92-.4,1.44-.6,2.39-1.3,3.06-2.28.7-.26,1.21-.66,1.57-1.21.6-.66,1.22-1.46,1.32-2.36.04-.38.09-.43.36-.69h0Z"/>
    <path class="st0" d="M182.69,52.86h.03c.28-.19.64-.25.9-.15.17.07.29.2.34.37-.09.19-.22.52-.24.68-.02.11.2.28.69.65.81.61,2.17,1.64,2.97,3.03.81,1.42,1.34,2.56,1.61,3.48l.4,3.13s0,.03.03.03l2.02.54h0s.02,0,.03-.02c1.11-1.95,1.35-3.7,1.24-4.39h0c-.26-.65-.91-1.63-1.38-2.28h-.02s-.54-.22-.54-.22c0,0-.03-.06-.02-.13,0-.06.03-.09.03-.09.31.03.54.11.74.18.3.1.55.19.9.08,0,0,.02,0,.02-.02v-.03c-1.66-2.67-3.89-4.53-6.62-5.56h-.02c-.28.04-.71.24-1.1.43,0-.75-.46-.78-1.1-.82-.56-.04-1.26-.08-1.92-.62h-.03s-.02,0-.02.02l-.63,1.3v.03s0,.02.02.02l1.65.37h.02Z"/>
    <path class="st0" d="M161.71,80.92c-.03-.51-.16-1.07-.37-1.56,0-.01-.02-.02-.04-.02l-3.83.42-2.23.06s-.02,0-.03.01,0,.02,0,.03v.08c.06.35.07.43.04.53,0,0-.04.03-.12.04-.13.01-.25-.01-.26-.03l.16-.59v-.03s-.02-.01-.03-.01l-3.71-.12c-.11-.18-.45-.69-.66-.58l-.83.42c-.53-1.2-.52-2.51-.46-3.98,0-.01,0-.03-.02-.03-.87-.44-1.7-.46-2.67-.49-.29,0-.6-.02-.91-.04-.02,0-.03.01-.04.03l-.21,1.17h0c.24,1.2.04,2.47-.56,3.58-1.07.67-2.23.91-3.55.74h-.03s0,.02,0,.03c.05.39.26.84.53,1.13,0,0,.02.01.03.01h0c.27-.02.54-.04.81-.06,1.1-.07,2.24-.15,3.23-.56h.02c.71-.31,1.28-.54,2.09-.35h.02c1.09-.32,1.95-.2,2.63.37h.02c3.41.25,6.89.2,10.96-.18.02,0,.03-.02.03-.04v.02Z"/>
    <path class="st0" d="M162.64,83.46v-.03s-.02-.01-.03-.01h0l-2.7.06s-.02,0-.03.02c-.18.29-.33.44-.43.46-.12.02-.33-.09-.48-.16-.02-.01-.05-.02-.07-.03l-1.07-.52h-.03s-.02.01-.02.02c-.11.38-.1.7-.09,1.05v.43l-.04,2.66s0,.1,0,.16c-.03.25-.06.56.11.6l.68.13h0c.02.07-.04.23-.11.3-.02.02-.03.02-.04.02l-.5-.16h-.03s0,.02,0,.03v3.74s.03.03.04.05c.05.05.18.18.15.21l-.24.33v.03s0,.02.02.02l1.4.68c.18.09.35.18.51.27.5.28.96.54,1.63.57h0s.03-.01.03-.02c.14-.48.27-.95.27-1.44v-7.75c.67-.55,1.02-1.1,1.07-1.72h.02Z"/>
    <path class="st0" d="M175.72,64.87s-.02,0-.03.02v.03c2.05,3.05,3.91,6.06,4.08,9.24,0,.01,0,.03.02.03h0s.02,0,.03-.01c.59-.82.55-1.84.5-2.92-.03-.7-.06-1.43.09-2.12.24-.46.42-.96.54-1.5l1.35-1.63c.21-.13.46-.19.72-.26.49-.13,1-.26,1.24-.85v-.03s0-.02-.03-.02c-.93-.12-1.94-.54-2.69-1.14l-.06-.05c-.31-.25-.44-.35-1.01-.12l-.08-1.25-.24-2.17c0-.09-.13-.16-.21-.18-.07,0-.09.03-.1.04l-.17.38v.02c.13,1.07-.15,2.06-.79,2.86-.73.91-1.86,1.49-3.17,1.62h0Z"/>
    <path class="st0" d="M185.57,84.31s0,.02,0,.03v4.9s0,.03,0,.03l.41.15s-.05.12-.07.13l-.33.11s-.02.02-.02.03v4.01s0,.02.02.03h.04l3.75-2.31s.02-.02.02-.03v-7.05h0s-.26-.79-.26-.79c0,0-.02-.02-.03-.02l-2.38-.1s-.02,0-.03.01c0,0,0,.02,0,.03l.11.98-1.19-.13h-.04Z"/>
    <path class="st0" d="M86.53,109.63s-.02.01-.03.01h-2.84c-1.18.62-2.2.72-3.19.82-.76.08-1.55.16-2.4.47h-.03s-.01-.02-.02-.03l-.07-1.25s.01-.03.03-.04c.12,0,.25-.01.37-.02,1.18-.06,2.39-.12,3.21-.93.66-.66.66-1.94.65-3.3,0-.97,0-1.97.24-2.76,0,0,0-.02.02-.02h.03c1.66.72,2.31,2.05,2.72,3.24l1.3,3.77v.03h0Z"/>
    <path class="st0" d="M203.77,89.64v-.03s-.02-.02-.03-.02l-1.52-.11s-.03,0-.03.02c-.15.38-.24.81-.34,1.23-.2.88-.41,1.79-1.06,2.35-.93.73-2.22.75-3.36.77-.32,0-.63.01-.92.03-.02,0-.03.01-.03.03l-.07.35h-.08c-.05-.01-.09-.04-.1-.05v-.02c-.1-.25-.14-.29-.18-.29l-2.3-.11h-.03v.02s-.04,1.46-.04,1.46v.03h.02s6.62.01,6.62.01c.06.02.17.17.21.29,0,.05.02.08,0,.1l-.23.39v.04c.64.7,1.05,1.27,1.37,2.24,0,.01,0,.02.02.02h.03l1.13-.75s.02-.02,0-.04l-.24-1.08s-.02-.03-.04-.03l-.42.02s-.12-.07-.13-.1l.45-.23s.02-.02.02-.03c-.03-.43-.31-.95-.53-1.37-.15-.29-.31-.58-.26-.65,0-.02.06-.01.08,0l.54.1s.03,0,.04-.02c.39-.94.56-2.01.72-3.05.03-.17.06-.35.08-.52l.55-1h.05Z"/>
    <path class="st0" d="M208.39,102.77h0l-1.48.02s-.03,0-.03.02c-1.83,4.28-3.96,5.69-8.77,5.81,0,0-.03,0-.03.02-.18.41-.23.84-.15,1.39,0,.02.02.03.03.03.77.05,1.4-.02,2.02-.22l.76.26h0s.02,0,.03-.02v-.04l-.25-.25s0-.05.06-.09c.04-.04.07-.05.08-.05.02.01.04.03.07.05.1.08.18.13.24.14h.98l3.59-.21s.03-.01.03-.02l.85-2.73.37-.37c.12-.12.06-.56.04-.68l.48-.96.51-.97c.26-.14.6-.37.68-.67.04-.14,0-.29-.08-.43,0-.01-.02-.02-.03-.02h0Z"/>
    <path class="st0" d="M86.62,98.63c-.14.12-.28.24-.39.37-.31.36-.21.9-.12,1.43.1.55.19,1.08-.19,1.34l.17,2.36v2.34s0,.03-.02.03h0s-.02,0-.03-.02l-.71-1.51c-.75-1.59-1.76-2.66-3.01-3.19,0,0-.02-.01-.02-.03-.1-.52-.09-1.24.02-2.03,0-.01,0-.02.02-.03l.28-.11s.11-.07.13-.09l-.43-.13s-.02-.01-.03-.03c-.11-.52-.21-1.29.17-2l.02-.02h.03l1.61,1.43-.03-.51s0-.07.06-.11c.1-.09.34-.14.45-.12.12.03.19.24.19.65.02.03.18.08.34.08.09,0,.13-.02.14-.04l.27-.56s0-.01.01-.02c.48-.26.99-.46,1.62-.69h.03s.02.01.02.02c.14.55-.24.86-.6,1.17v.02Z"/>
    <path class="st0" d="M80.17,80.7l.21-1.64c.77-.75,1.29-1.37,1.71-2.09v-.03s0-.02-.02-.02c-1.62-.87-2.41-2.04-3.22-3.76,0-.01-.02-.02-.04-.02s-.03.02-.03.03l-.1,4.67c-.01.67-.3,1.58-.66,2.07-1.07.51-2.21.75-3.28.94-.02,0-.03.02-.03.03v1.06s.01.02.02.03h.02l2.53-.5s.02-.01.03-.02l.41-1.01.15.05-.15.78v.03s.02.01.03.01c.83-.03,1.54-.2,2.38-.58.01,0,.02-.02.02-.03h.02Z"/>
    <path class="st0" d="M214.3,66.96c-.21-.25-.25-.31-.21-.38.24-.36.78-.06,1.48.33.55.3,1.16.65,1.78.74,0,0,.02,0,.03-.01s0-.02,0-.03c-.13-.72-.42-1.39-.71-2.04-.29-.66-.57-1.28-.68-1.96l-.15-3.26-.11-.4s0-.02-.03-.03c-.08-.04-.36.04-.36.04,0,0-.02,0-.02.02l-2.37,6.41v.02l.6,1.67s.02.02.03.02h0s.02,0,.03-.02l.67-1.09v-.04h.02Z"/>
    <path class="st0" d="M119.07,52.65c.14.05.28.09.32.15l1.48,1.61c-.01.2.02.65.15.74.02,0,.03.02.05.02h.04l.7-.33c1.49-.7,2.54-1.44,3.42-2.41.06-.03.12-.06.2-.09.28-.12.62-.28.53-.72,0-.02-.02-.03-.03-.03h0l-6.87.03s-.02,0-.03.02c-.04.07-.08.13-.12.19-.15.24-.25.41-.25.57,0,.12.2.19.41.26h0Z"/>
    <path class="st0" d="M185.58,96c.08.03.17.04.25.04.43,0,.8-.36,1.01-.6.55-.65,1.18-.58,1.65-.54.27.03.48.05.56-.1l.24-.47c.39.71.85,1,1.57,1h2.63s.03-.03.03-.04c.09-.46.02-.91-.18-1.15-.11-.13-.24-.2-.41-.2-.24,0-.47-.03-.69-.05-.39-.04-.8-.09-1.28,0-.16.03-.51-.26-.64-.43,0,0,0-.01-.02-.01h-.03c-.2.18-.57.51-.85.56l-.12-2.18s0-.02-.02-.03h-.03l-2.08,1.35-1.53.95s-.02.02-.02.03l-.08,1.84s0,.03.02.03h.02Z"/>
    <path class="st0" d="M122.03,58.39v.03s0,.02.02.02l2.67,1.55h.04s.02-.02.02-.03l.03-4.27c0-.35.08-.72.17-1.12.08-.39.17-.79.2-1.22,0,0,0-.03-.02-.03h-.04l-2.86,2.1s-.02.02-.01.04c.16.49.23.9.09,1.27-.08.21-.4.37-.95.48-.01,0-.02,0-.03.02-.09.29.27.44.56.57.17.07.34.15.36.22,0,0,0,.03-.01.06l-.22.31h-.02Z"/>
    <path class="st0" d="M73.77,65.33s-.02-.01-.03,0c-.28.02-.52.04-.73.06-.38.03-.69.06-1.01.05l-6.57-.08h0s-.03.01-.03.02l-.43,1.47v.03s.02.02.03.01c.53-.02,1.04,0,1.53,0,.81.02,1.57.04,2.34-.07.92-.12,1.91-.46,2.71-.74.75-.26,1.39-.48,1.56-.36.03.02.04.05.04.1,0,.33-.31.38-.82.44-.41.06-.93.12-1.5.38-.01,0-.02.01-.02.02v.03c.2.23.42.3.64.3s.44-.07.64-.14c.13-.04.25-.09.36-.1.07.02.15.05.23.08.32.12.76.29,1.04-.1v-1.39s0-.02-.01-.03l.03.02Z"/>
    <path class="st0" d="M94.82,70.68v.03c.17.59.82.72,1.33.74h.07c.44,0,.94-.09.96-.16l.14-.42c.25.3.54.58.83.58h.01c.51,0,.8-.11,1.12-.43l.97-.46s.02-.03.02-.05l-.21-.47s-.05-.06-.09-.06c-.03,0-.05.02-.06.05l-.08.29-.69-.32h-.03s-.02.01-.02.03c-.03.19-.08.26-.09.26s-.05-.06-.05-.29c0,0,0-.02-.01-.02s-.02-.01-.02-.01h-2.28s-.03-.01-.03,0,0,.03.01.04l.38.32s.04.05.09.2l.02.05-2.26.07s-.02,0-.03.01h0Z"/>
    <path class="st0" d="M174.2,52.22l1.88.65c.18.06.37.09.57.09.31,0,.63-.08.94-.24.59-.31,1.06-.9,1.22-1.52v-.03s-.04,0-.07,0c-1.49,0-2.93.32-4.54.99,0,0-.02.02-.02.03s0,.03.02.03h0Z"/>
    <path class="st0" d="M105.79,109.33h-.01l-2.06.34s-.03.02-.03.04l.13,1.15s0,.02.02.03c.07.04.14.05.21.05.2,0,.41-.12.59-.23.14-.08.27-.16.39-.18.1-.02.23-.03.34-.04.31-.02.6-.05.67-.22.09-.2.06-.56-.05-.77-.05-.1-.12-.16-.2-.17h0Z"/>
    <path class="st0" d="M230.74,51.99h-1.74s-.02.02-.02.03v.03l.05.95c0,.21.15.39.38.5.15.07.31.1.47.1.21,0,.41-.06.55-.16.36-.26.37-.73.35-1.41,0-.02,0-.03-.04-.03h0Z"/>
    <path class="st0" d="M202.86,98.08h-.03l-.98.69s-.02.02,0,.04l.38,1.62s0,.02.02.02h.03c.41-.13.66-.25.78-.37.14-.15.14-.74.09-.93l-.25-1.05s0-.02-.02-.02h-.01Z"/>
    <path class="st0" d="M128.16,52.52c.22.08.47.11.72.11.48,0,.95-.13,1.23-.38.12-.1.17-.51.1-.66-.03-.07-.08-.08-.1-.08l-.59.04-1.05.09c-.06,0-.11.04-.16.1-.14.18-.21.55-.18.74,0,0,0,.02.02.03h0Z"/>
    <path class="st0" d="M215.46,53.07h.09c.19-.02.33-.1.42-.24.1-.16.11-.59.08-.81,0-.02-.02-.03-.03-.03h0l-2.31.03s-.03,0-.03.02v.04c.59.61,1.29,1,1.79,1h0Z"/>
    <path class="st0" d="M205.62,85.39s-.02-.01-.03-.01c-.29.02-.78.16-1.3.51,0,0-.02.02-.02.03s0,.02.02.03l.83.25c-.25.18-.46.46-.51.7-.02.12,0,.22.04.29,0,0,0,.01.02.01.09.03.17.05.25.05.24,0,.45-.12.59-.26.2-.2.27-.46.19-.66-.12-.3-.12-.41-.08-.92v-.03h0Z"/>
    <path class="st0" d="M233.14,51.9c-.1-.09-.17-.08-.2-.06l-.59.36-.45.24s-.02.02-.02.03c0,.14.02.59.18.6h0l.72-.25c.16-.06.46-.31.53-.46.06-.12-.07-.37-.19-.47h.01Z"/>
    <path class="st0" d="M179.74,52.47c.23,0,.45-.08.64-.31v-.03s0-.02,0-.02c-.26-.2-.56-.35-.8-.38-.2-.03-.43.29-.54.49v.03s0,.02.02.02c.2.11.45.21.69.21h0Z"/>
    <path class="st0" d="M67,52.32s.07.02.1.02c.09,0,.2-.04.31-.1.19-.12.4-.35.42-.55,0-.02-.01-.03-.03-.04-.47-.07-.8-.09-.94.02-.07.06-.06.21-.05.29.02.15.1.33.19.37h0Z"/>
    <path class="st0" d="M117.21,52.77h.04c.2-.08.32-.2.36-.36.08-.35-.27-.76-.38-.88,0,0-.02,0-.03,0s-.02,0-.03,0c-.24.31-.27.92-.12,1.15.04.06.09.09.15.09h0Z"/>
  </g>
</svg>