<?xml version="1.0" encoding="UTF-8"?>
<svg id="Layer_1" xmlns="http://www.w3.org/2000/svg" version="1.1" viewBox="0 0 288 162">
  <!-- Generator: Adobe Illustrator 30.6.0, SVG Export Plug-In . SVG Version: 2.1.4 Build 109)  -->
  <defs>
    <style>
      .st0 {
        fill: #fff;
      }
    </style>
  </defs>
  <rect width="288" height="162"/>
  <path class="st0" d="M67.66,80.97c0,.21-.02.21-.02.42s.03.21.03.42c0,.11-.08.19-.19.19-.27,0-.27-.03-.55-.03s-.27.03-.55.03-.27.04-.55.04-.27-.03-.55-.03-.27-.01-.55-.01-.27.03-.55.03-.27-.03-.55-.03-.27.03-.55.03-.27.04-.55.04-.27-.06-.55-.06-.27-.03-.55-.03-.27,0-.55,0-.27,0-.55,0-.27,0-.55,0-.27.1-.55.1-.27-.03-.55-.03-.27,0-.55,0-.27,0-.55,0-.27-.08-.55-.08-.27.07-.55.07-.27-.04-.55-.04-.27.03-.55.03-.27-.02-.55-.02c-.11,0-.19-.09-.19-.2,0-.21-.05-.21-.05-.42s.04-.21.04-.42c0-.1.08-.21.18-.22.2-.02.39-.02.56-.04.2-.03.39-.04.56-.07.2-.03.39-.04.56-.08.2-.05.37-.14.53-.19.21-.07.37-.15.51-.22.23-.11.36-.22.45-.31.08-.09.19-.21.28-.42.05-.13.11-.29.15-.49.03-.15.04-.32.07-.51.02-.15.09-.32.1-.5.01-.16,0-.33,0-.51,0-.16,0-.33,0-.51,0-.16,0-.33,0-.51,0-.27.03-.27.03-.54s.02-.27.02-.54-.01-.27-.01-.54,0-.27,0-.54,0-.27,0-.54-.05-.27-.05-.54.05-.27.05-.54.03-.27.03-.54-.01-.27-.01-.54-.07-.27-.07-.54.08-.27.08-.54,0-.27,0-.54.01-.27.01-.54c0-.11.04-.16.15-.16.29,0,.29-.04.58-.04s.29,0,.58,0,.29-.02.58-.02.29.07.58.07.29-.09.58-.09.29.09.58.09.29-.06.58-.06.29.05.58.05c.11,0,.16.04.16.16,0,.27.09.27.09.54s-.05.27-.05.54.05.27.05.54-.04.27-.04.54-.06.27-.06.54,0,.27,0,.54,0,.27,0,.54-.01.27-.01.54.05.27.05.54,0,.27,0,.54.04.27.04.54,0,.27,0,.54.01.27.01.54-.04.27-.04.54c0,.18.03.36.03.53,0,.19.04.36.06.52.02.19.02.36.04.52.03.19,0,.37.04.53.05.19.14.35.21.49.09.18.21.3.32.41.12.11.27.18.46.27.15.07.29.19.49.25.16.05.33.14.52.18.17.04.36.01.55.04.17.03.34.11.53.13.17.02.36.02.55.04.11,0,.17.06.17.17ZM233.09,51.97c-.28,0-.28-.02-.56-.02s-.28.03-.56.03-.28,0-.56,0-.28-.03-.56-.03-.28.03-.56.03-.28.04-.56.04-.28-.03-.56-.03-.28-.01-.56-.01-.28.03-.56.03-.28-.03-.56-.03-.28.03-.56.03-.28.04-.56.04-.28-.06-.56-.06-.28-.03-.56-.03-.28,0-.56,0-.28,0-.56,0c-.11,0-.25.14-.25.25,0,.21.1.21.1.42s-.03.21-.03.42c0,.11.06.18.18.18.17,0,.34,0,.49.02.17.01.33.11.48.13.17.02.35-.01.49.02.18.04.32.13.45.18.17.07.34.12.46.21.14.1.25.24.34.38s.16.29.2.46c.04.15.12.32.12.5,0,.12-.06.27-.08.45-.02.13-.02.28-.06.45-.03.19-.1.38-.15.58-.04.19-.11.37-.16.57-.05.18-.14.36-.21.56-.06.18-.08.39-.16.58-.1.26-.07.26-.17.52s-.09.26-.18.52-.12.25-.21.5-.1.25-.19.51-.07.26-.17.52-.14.24-.23.5-.07.27-.16.52-.08.26-.18.52-.09.26-.18.52-.12.25-.22.5-.11.25-.2.51-.08.26-.18.52-.1.25-.2.51-.09.26-.18.52-.04.28-.14.53-.14.24-.24.5-.12.25-.21.5-.08.26-.18.52-.03.28-.13.54-.17.23-.26.49-.1.25-.2.51-.1.25-.2.51-.09.26-.18.52-.06.27-.15.53-.09.26-.18.52-.07.26-.17.52-.16.23-.26.49-.01.29-.11.54.05.44-.23.45-.1-.2-.2-.45-.05-.27-.15-.52-.1-.25-.19-.5-.18-.22-.27-.47-.05-.27-.15-.52-.15-.23-.25-.48-.06-.27-.16-.52-.04-.27-.14-.53-.1-.25-.2-.5-.1-.25-.2-.5-.09-.26-.18-.51-.15-.23-.24-.49-.09-.25-.19-.51-.13-.24-.23-.49-.09-.25-.19-.51-.11-.25-.21-.5-.06-.27-.16-.52-.12-.24-.22-.5-.12-.24-.22-.49-.08-.26-.18-.51-.04-.28-.13-.53-.12-.24-.22-.49-.12-.24-.22-.49-.12-.24-.21-.5-.04-.27-.14-.53-.06-.27-.15-.52c-.03-.08-.15-.11-.24-.11,0,0,0-.06,0-.06-.08,0-.19.1-.22.17-.1.27-.08.28-.17.54s-.11.26-.21.53-.11.26-.2.53-.07.28-.17.54-.13.26-.23.52-.01.3-.11.57-.14.25-.24.52-.04.29-.14.55-.16.24-.26.51-.1.27-.2.53-.11.26-.21.53-.1.27-.2.53c-.02.05.02.11.04.16.1.26.08.27.18.53s.13.25.23.51.08.27.18.53.13.25.23.51.11.26.2.52.06.27.16.54.05.28.14.54.11.26.21.52.08.27.17.53.17.23.27.5.04.28.14.54.12.25.22.52.13.25.23.51.09.26.19.53.13.25.22.51.01.29.11.55.17.24.26.5.1.26.19.52.03.29.13.55.11.26.21.52.08.27.18.53.19.22.29.48.1.26.2.52.06.28.15.54.13.25.22.51.03.29.13.55.16.24.26.49.08.26.18.52.06.27.16.53.09.26.19.52.15.24.25.5c.03.08.09.13.18.13.35,0,.35,0,.69,0,.08,0,.13-.07.15-.16.09-.26.12-.25.21-.51s.07-.27.16-.53.13-.24.23-.5.05-.27.14-.53.11-.25.2-.51.09-.26.18-.52.09-.26.18-.52.08-.26.17-.52.08-.26.17-.52.15-.24.24-.5.09-.26.18-.52.05-.27.15-.53.13-.25.22-.5.12-.25.21-.51.03-.28.12-.54.07-.27.16-.53.15-.24.24-.5.09-.26.19-.52.04-.28.13-.54.09-.26.18-.52.16-.23.25-.49.05-.27.14-.53.1-.26.19-.51.13-.24.22-.5.1-.26.19-.51.04-.28.13-.54.1-.26.19-.52.11-.25.2-.51.08-.26.17-.52.09-.26.18-.52.11-.25.2-.51.07-.27.16-.53.06-.27.15-.53.08-.26.17-.52.09-.26.18-.52.09-.26.18-.52.17-.23.26-.49.03-.28.12-.54.16-.24.25-.49.02-.28.11-.54.12-.25.22-.51.1-.25.19-.51.08-.26.17-.52.12-.25.21-.51.07-.27.16-.52.07-.27.16-.53.13-.24.22-.5.11-.25.2-.51.09-.26.18-.52.07-.27.16-.53.08-.26.17-.52.11-.25.2-.51c.06-.18.15-.34.22-.5.08-.17.13-.35.23-.5.1-.16.23-.29.34-.43.12-.14.25-.27.39-.39s.3-.21.45-.3c.16-.09.36-.15.58-.22.18-.06.37-.16.59-.21.19-.04.4-.05.62-.08.1-.02.13-.13.13-.22,0-.21.1-.21.1-.42s-.02-.21-.02-.42c0-.11-.13-.23-.23-.23ZM217.28,52.19c0,.21.03.21.03.42s.04.21.04.42c0,.11-.14.22-.25.22-.18,0-.35-.01-.51,0-.18,0-.35-.02-.51-.02-.24.02-.46.07-.64.09-.27.04-.47.12-.62.17-.2.07-.38.15-.51.27-.14.13-.24.3-.3.49-.05.17-.05.36-.05.57,0,.26-.05.48,0,.66.04.12.11.32.21.61.06.17.18.36.27.59.11.28.08.29.18.57.02.05.05.09.04.14-.1.26-.1.26-.19.52s-.15.24-.25.5-.09.26-.19.52-.04.28-.14.54-.08.27-.18.53-.17.24-.26.5-.1.26-.2.52-.02.29-.12.55-.13.25-.23.51-.07.27-.17.53-.11.26-.21.52-.16.24-.26.5c0,.02.02.05,0,.06-.07.19-.06.2-.13.4-.09.26-.15.24-.24.5s-.03.28-.12.54-.07.27-.17.53-.12.25-.21.51-.15.24-.24.5-.1.26-.2.52-.07.27-.16.53-.12.25-.22.51-.03.28-.13.54-.1.26-.2.52-.15.24-.24.5-.05.28-.14.53-.14.24-.24.5-.06.27-.15.53-.05.27-.15.53-.14.24-.24.5-.1.26-.2.52-.09.26-.19.52-.07.27-.16.53-.1.26-.19.52-.07.27-.17.53-.15.24-.24.5-.1.26-.2.52-.08.27-.17.53-.05.28-.15.53-.09.26-.18.52-.1.26-.2.52-.15.24-.25.5-.02.29-.11.55-.09.26-.18.52-.12.25-.22.51-.19.24-.23.51,0,.27,0,.54.07.27.07.54,0,.27.02.54-.02.27,0,.54.02.27.03.54-.02.27-.02.54.03.27.03.54,0,.27,0,.54.04.27.04.54.02.27.03.54.02.27.03.54-.01.27,0,.54c0,.06-.08.08-.12.11-.04.04-.05.09-.11.09-.29,0-.29.02-.58.02s-.29-.05-.58-.05c-.1,0-.22-.02-.24-.12-.03-.18-.03-.35-.07-.52-.04-.18-.04-.36-.08-.52-.05-.17-.15-.33-.2-.49-.05-.17-.1-.34-.16-.5-.06-.17-.14-.33-.21-.48-.08-.17-.15-.32-.24-.46-.1-.16-.22-.28-.32-.41-.12-.14-.19-.32-.32-.41s-.3-.21-.5-.29c-.16-.07-.36-.06-.57-.12-.17-.05-.34-.17-.54-.2-.18-.03-.37-.06-.57-.08-.18-.02-.37-.02-.57-.04-.18-.02-.37-.02-.57-.03-.18-.01-.37-.02-.57-.03-.18,0-.38-.03-.57-.03-.19,0-.38.05-.57.05-.28,0-.28,0-.56,0s-.28.02-.56.02-.28-.05-.56-.05-.28-.03-.56-.03-.28.04-.56.04-.28-.02-.56-.02-.28.05-.56.05-.28-.04-.56-.04-.28.05-.56.05-.28-.08-.56-.08-.28.05-.56.05c-.23,0-.41,0-.56.02-.36.05-.48.13-.52.19-.07.1-.14.28-.17.53-.02.16-.05.35-.05.56,0,.28.04.28.04.55s-.03.28-.03.55.05.28.05.55,0,.28,0,.55-.02.28-.02.55.04.28.04.55-.02.28-.02.55-.04.28-.04.55-.02.28-.02.55-.01.28-.01.55.04.28.04.55.04.28.04.55-.07.28-.07.55.02.28.02.55.02.28.02.55-.05.28-.05.55.05.28.05.55-.19.34,0,.53.26,0,.55,0,.28-.04.57-.04.28.08.57.08.28-.02.57-.02.28.01.57.01.28-.07.57-.07.28.1.57.1.28-.08.57-.08.28.02.57.02.28.03.57.03.28-.03.57-.03.28-.01.57-.01c.18,0,.36.03.53.03.18,0,.36-.02.53-.03.19-.01.36-.05.53-.07.19-.02.36-.05.52-.08.19-.04.35-.09.51-.14.19-.06.36-.09.51-.16.18-.09.32-.2.43-.32.11-.11.24-.24.34-.4.08-.14.1-.32.17-.5.06-.15.17-.29.23-.47.05-.15.07-.33.12-.51.05-.16.1-.32.14-.5.04-.16.07-.33.11-.51.03-.16.08-.33.11-.51.02-.1.11-.15.2-.15.27,0,.27,0,.53,0s.27.02.53.02c.11,0,.23.05.23.17,0,.28-.04.28-.04.55s0,.28,0,.55.03.28.03.55.04.28.04.55-.03.28-.03.55,0,.28,0,.55-.04.28-.04.55,0,.28,0,.55-.02.28-.02.55.03.28.03.55.03.28.03.55-.04.28-.04.55-.03.28-.03.55.03.28.03.55,0,.28,0,.55-.03.28-.03.55,0,.28,0,.55,0,.28,0,.55.06.28.06.55c0,.11-.12.2-.24.2-.27,0-.27,0-.53,0s-.27.05-.53.05c-.1,0-.18-.12-.21-.21-.03-.18-.06-.35-.09-.51-.04-.18-.05-.35-.09-.51-.04-.18-.14-.33-.19-.49-.05-.18-.08-.35-.13-.5-.06-.17-.13-.34-.19-.49-.08-.17-.13-.34-.21-.48-.1-.17-.2-.32-.31-.43-.11-.11-.28-.17-.44-.26-.14-.07-.29-.13-.47-.18-.15-.05-.3-.13-.48-.16-.16-.03-.33-.04-.5-.06-.16-.02-.33-.02-.51-.03-.19-.02-.38-.03-.57-.04-.18,0-.38.02-.58.02-.28,0-.28.01-.55.01s-.28-.09-.55-.09-.28.08-.55.08-.28-.1-.55-.1-.28,0-.55,0-.28.05-.55.05-.28.04-.55.04-.28-.04-.55-.04-.28,0-.55,0-.28,0-.55,0-.28-.04-.55-.04-.28.07-.55.07-.28-.03-.55-.03-.28-.04-.55-.04-.28.08-.55.08-.28,0-.55,0-.28,0-.55,0-.28-.07-.55-.07-.28.06-.55.06-.28-.06-.55-.06-.28.07-.55.07c-.11,0-.2-.13-.2-.24,0-.27-.06-.27-.06-.54s.09-.27.09-.54-.08-.27-.08-.54.05-.27.05-.54-.03-.27-.03-.54-.02-.27-.02-.54,0-.27,0-.54.03-.27.03-.54.03-.27.03-.54,0-.27,0-.54.03-.27.03-.54-.08-.27-.08-.54.03-.27.03-.54,0-.27,0-.54.06-.27.06-.54,0-.27,0-.54-.05-.27-.05-.54.03-.27.03-.54.01-.27.01-.54c0-.18-.05-.36-.05-.52,0-.18.02-.36,0-.53-.02-.18-.1-.35-.12-.51-.03-.19-.02-.36-.07-.52-.05-.19-.14-.33-.21-.48-.08-.18-.13-.35-.24-.46-.1-.1-.21-.21-.37-.3-.05-.02-.13-.06-.18-.09-.09.03-.22.13-.35.16-.18.05-.37.09-.56.13s-.37.11-.56.14-.38.05-.57.08-.38.02-.58.04-.38,0-.58.02-.38.05-.57.05-.38.06-.58.06-.39-.09-.58-.09-.39,0-.58-.02-.39-.04-.58-.06-.39-.03-.58-.06-.39-.01-.58-.04-.38-.09-.57-.13c.04.02.08.06.12.08.17.08.35.12.51.2s.29.22.45.31.31.2.46.29.36.12.51.22.3.2.45.31.25.27.4.38.27.24.41.36.28.23.41.35.31.2.44.33.25.26.37.4.19.31.31.45.26.25.37.4.24.27.35.42.14.34.24.5.24.28.33.44.1.35.19.52.17.32.25.48.21.31.28.47.13.34.19.51.06.36.12.54.11.34.16.52.09.35.13.53.09.35.13.53.14.34.17.52.03.36.06.54.03.36.04.54.09.36.1.54-.06.37-.05.55.04.36.04.54.04.36.04.54-.04.37-.05.56.04.38.03.56-.08.37-.1.55-.04.37-.07.56-.09.36-.12.55-.04.37-.08.56-.11.36-.15.54-.1.36-.15.54-.03.38-.09.56-.17.34-.24.51-.06.38-.13.55-.21.32-.28.49c-.08.17-.1.37-.18.54s-.22.31-.31.48-.19.33-.29.49-.19.33-.3.49-.22.31-.33.46-.21.32-.33.47-.26.28-.39.42-.26.27-.4.41-.29.24-.43.37-.23.31-.37.44-.34.19-.48.31-.28.25-.44.36c-.14.11-.25.27-.39.37s-.29.21-.44.31-.33.14-.48.23-.29.21-.44.3-.31.18-.47.26-.35.11-.51.18-.33.13-.5.19-.31.18-.48.24c-.17.06-.34.11-.52.17s-.35.08-.53.14-.34.14-.52.19-.35.12-.53.16-.35.09-.53.13-.37,0-.55.02-.35.08-.54.11-.36.05-.54.08-.36.02-.55.04-.36.09-.54.11-.36.06-.54.08-.36.02-.55.03-.37-.03-.55-.02-.36.03-.55.04-.36.03-.55.03-.36-.07-.55-.07c-.27,0-.27.04-.54.04s-.27.04-.54.04-.27-.04-.54-.04-.27.06-.54.06-.27-.04-.54-.04-.27-.03-.54-.03-.27.03-.54.03-.27,0-.54,0-.27-.03-.54-.03-.27.03-.54.03-.27-.02-.54-.02-.27.07-.54.07-.27-.03-.54-.03-.27-.02-.54-.02-.27.05-.54.05-.27-.03-.54-.03-.27-.01-.54-.01-.27,0-.54,0-.27-.01-.54-.01-.27-.02-.54-.02-.27.03-.54.03-.27.03-.54.03-.27,0-.54,0-.27-.05-.54-.05-.27,0-.54,0-.27-.04-.54-.04-.27.08-.54.08-.27-.08-.54-.08-.27.07-.54.07-.27-.06-.54-.06-.27.07-.54.07-.27-.09-.54-.09-.27.06-.54.06-.27,0-.54,0-.27-.04-.54-.04-.27.07-.54.07-.27-.03-.54-.03-.27.02-.54.02-.27-.01-.54-.01-.27.01-.54.01-.27,0-.54,0-.27-.05-.54-.05-.27.04-.54.04c-.11,0-.2-.12-.2-.24,0-.21.04-.21.04-.42s-.03-.21-.03-.42c0-.11.06-.21.17-.22.18-.02.35-.03.51-.05.18-.02.35-.05.5-.07.18-.02.35-.04.5-.06.19-.03.35-.09.49-.13.21-.05.39-.02.51-.07.18-.08.33-.24.4-.47.05-.16.07-.37.07-.61,0-.09-.05-.26-.11-.56-.03-.15-.05-.34-.1-.56-.05-.19-.09-.4-.16-.59s-.17-.37-.24-.57-.15-.38-.24-.57c-.11-.26-.14-.25-.25-.52s-.11-.26-.22-.53-.06-.29-.17-.55-.18-.24-.29-.5-.11-.27-.22-.53-.09-.27-.2-.54-.07-.28-.18-.55,0-.35-.25-.51-.27.03-.55.03-.28-.08-.56-.08-.28.06-.56.06-.28-.05-.56-.05-.28-.02-.56-.02-.28.06-.56.06-.28.03-.56.03-.28-.07-.56-.07-.28-.01-.56-.01-.28.05-.56.05-.28,0-.56,0-.28-.02-.56-.02-.28-.02-.56-.02-.28.05-.56.05-.28-.04-.56-.04-.28.02-.56.02-.28,0-.56,0-.28-.02-.56-.02-.28.1-.56.1-.28-.03-.56-.03-.28-.07-.56-.07-.28,0-.56,0-.28.1-.56.1-.28-.08-.56-.08-.28.04-.56.04c-.07,0-.12-.05-.16-.1s-.03-.12-.01-.18c.11-.25.11-.25.22-.51s.14-.24.24-.5.05-.28.15-.53.16-.23.27-.48.07-.27.17-.53.1-.26.21-.51.12-.25.23-.5.09-.26.2-.52.11-.25.22-.51.15-.23.26-.49.02-.29.13-.54.14-.24.24-.5.11-.25.22-.51.11-.25.22-.51.09-.26.2-.51.16-.23.27-.49.05-.28.15-.53.13-.24.24-.5.08-.26.19-.52.17-.23.28-.48.05-.28.16-.53.1-.26.21-.51.17-.23.27-.48.1-.26.21-.51.1-.26.21-.51.09-.26.2-.52.14-.24.25-.49.06-.27.17-.53.11-.25.22-.5.17-.23.27-.48.13-.25.23-.5.03-.29.14-.54.16-.23.27-.48.07-.27.17-.53.1-.26.21-.51.15-.24.26-.49.35-.29.2-.52-.27-.02-.55-.02-.27.07-.54.07-.27-.08-.54-.08-.27.02-.54.02-.27.04-.54.04-.27-.03-.54-.03-.27-.01-.54-.01-.27,0-.54,0-.27.04-.54.04-.27.02-.54.02-.27-.03-.54-.03-.27,0-.54,0-.27.02-.54.02-.27-.09-.54-.09-.27.01-.54.01-.27-.02-.54-.02-.27.09-.54.09-.27-.06-.54-.06-.27-.02-.54-.02-.27.08-.54.08-.27-.02-.54-.02-.27-.07-.54-.07-.27,0-.54,0-.27.01-.54.01-.27.03-.54.03-.27,0-.54,0-.27-.05-.54-.05-.27.05-.54.05-.27,0-.54,0-.27-.05-.54-.05-.27,0-.54,0-.27,0-.54,0-.27.01-.54.01-.27,0-.54,0-.27,0-.54,0-.27.07-.54.07-.27-.06-.54-.06-.27.04-.54.04-.27-.02-.54-.02-.27-.04-.54-.04-.27.04-.54.04-.27,0-.54.03c-.21.05-.39.13-.56.2-.2.09-.39.15-.54.27-.14.11-.22.3-.33.49-.08.16-.23.31-.29.53-.05.18-.1.37-.13.59-.03.18,0,.39,0,.6-.01.19.02.39.02.59q0,.27,0,.54c0,.27-.09.27-.09.54s.03.27.03.54-.02.27-.02.54,0,.27,0,.54.05.27.05.54.01.27.01.54-.04.27-.04.54,0,.27,0,.54.07.27.07.54-.02.27-.02.55,0,.27,0,.54-.04.27-.04.54-.04.27-.04.54.1.27.1.54-.06.27-.06.54.06.27.06.54-.09.27-.09.54.03.27.03.54-.03.27-.03.54.05.27.05.54.02.27.02.54-.06.27-.06.54,0,.27,0,.55.06.27.06.54.02.27.02.55-.08.27-.08.55.07.27.07.55,0,.27,0,.55-.05.27-.05.55,0,.27,0,.55.03.27.03.54-.05.27-.05.55,0,.27,0,.55.08.27.08.55-.05.27-.05.55-.03.27-.03.54.06.27.06.55-.05.27-.05.55.01.27.01.55c0,.2.06.38.09.55.04.21.07.39.15.53.08.13.21.28.42.36.15.05.34.08.55.11.16.02.34-.02.54,0,.16.01.33,0,.53.02.13,0,.31.1.53.11.15,0,.33,0,.53,0,.16,0,.34-.08.53-.08.17,0,.34.02.53.02s.37-.02.55-.02.37,0,.55,0,.37.01.55,0,.37,0,.55-.01.37-.03.55-.04.37.03.55.02.36-.07.54-.09c.19-.01.37-.05.54-.07.19-.02.38.04.55.02.19-.02.36-.14.53-.16.19-.03.38.04.55.01.19-.03.35-.13.52-.17.19-.04.38-.02.55-.07.19-.05.34-.16.51-.22.18-.06.36-.12.51-.19.16-.08.31-.17.45-.28s.31-.18.44-.31c.12-.12.23-.26.35-.41.11-.13.19-.29.3-.45.1-.14.19-.29.29-.45.09-.15.21-.28.3-.44.08-.15.14-.32.23-.49.08-.15.2-.29.28-.46.08-.15.08-.35.16-.52s.22-.28.3-.45.17-.31.25-.48c.09-.18.1-.17.18-.35.03-.07.06-.1.13-.1.27,0,.27-.05.53-.05s.27-.01.53-.01.27.01.53.01.27.05.53.05c.07,0,.11.01.15.07.04.06.12.12.09.19-.09.23-.11.22-.2.45s-.14.21-.23.44-.08.23-.17.46-.12.22-.21.45c-.07.19-.05.41-.11.59s-.2.35-.27.54-.1.39-.16.57-.14.38-.2.56c-.01.04-.03.03-.05.07-.06.19-.15.36-.22.53-.06.19-.13.37-.19.54-.06.19-.15.36-.2.54-.06.19-.09.38-.15.56-.06.19-.11.38-.16.55-.06.2-.07.39-.13.56-.07.2-.14.38-.19.54-.02.08-.14.12-.23.12-.28,0-.28.03-.55.03s-.28-.04-.55-.04-.28.05-.55.05-.28,0-.55,0-.28.01-.55.01-.28-.02-.55-.02-.28-.05-.55-.05-.28.04-.55.04-.28.03-.55.03-.28-.03-.55-.03-.28-.02-.55-.02-.28,0-.55,0-.28,0-.55,0-.28-.02-.55-.02-.28-.03-.55-.03-.28.02-.55.02-.28.04-.55.04-.28,0-.55,0-.28.04-.55.04-.28-.08-.55-.08-.28.09-.55.09-.28-.04-.55-.04-.28-.02-.55-.02-.28.06-.55.06-.28-.07-.55-.07-.28.08-.55.08-.28-.06-.55-.06-.28.04-.55.04-.28-.04-.55-.04-.28-.04-.55-.04-.28.06-.55.06-.28.03-.55.03-.28-.02-.55-.02-.28-.05-.55-.05-.28-.02-.55-.02-.28.06-.55.06-.28-.04-.55-.04-.28.04-.55.04-.28-.07-.55-.07-.28.03-.55.03-.28-.03-.55-.03-.28.06-.55.06-.28.01-.55.01-.28.03-.55.03c-.11,0-.21-.14-.21-.25,0-.21.02-.21.02-.42s-.05-.21-.05-.42c0-.11.1-.23.21-.24.19-.02.37-.03.54-.05.19-.03.37-.02.55-.05.19-.03.37-.09.53-.12.19-.04.37-.08.53-.13.19-.06.35-.16.5-.22.2-.09.38-.12.5-.22.1-.08.22-.22.32-.43.06-.13.07-.31.12-.52.04-.15.11-.32.14-.51.02-.16.01-.34.03-.53.01-.16.02-.34.03-.53,0-.17,0-.34,0-.53,0-.27,0-.27,0-.55s.04-.27.04-.55-.03-.27-.03-.55.01-.27.01-.55.01-.27.01-.55-.05-.27-.05-.55.05-.27.05-.55.03-.27.03-.55-.03-.27-.03-.55-.06-.27-.06-.55.06-.27.06-.55-.02-.27-.02-.55.03-.27.03-.55-.07-.27-.07-.55.03-.27.03-.55.06-.27.06-.55-.09-.27-.09-.55.03-.27.03-.55-.01-.27-.01-.55.03-.27.03-.55-.02-.27-.02-.55.04-.27.04-.55.03-.27.03-.55-.02-.27-.02-.55,0-.27,0-.55-.06-.27-.06-.55.02-.27.02-.55.04-.27.04-.55,0-.27,0-.55-.07-.27-.07-.55.04-.27.04-.55.03-.27.03-.55.04-.27.04-.55-.03-.27-.03-.55-.07-.27-.07-.55.04-.27.04-.55.04-.27.04-.55c0-.18,0-.36,0-.53,0-.18-.07-.35-.08-.52-.02-.18-.04-.36-.07-.52-.03-.19-.04-.36-.08-.52-.05-.19-.15-.33-.22-.47-.08-.18-.14-.34-.25-.45-.11-.12-.26-.21-.45-.3-.15-.07-.3-.19-.49-.25-.16-.05-.34-.08-.54-.12-.17-.04-.36-.02-.55-.05-.17-.03-.35-.1-.54-.12-.17-.02-.36-.05-.55-.06-.11,0-.22-.06-.22-.17,0-.21.01-.21.01-.42s-.02-.21-.02-.42c0-.11.13-.19.25-.19.26,0,.26.03.52.03s.26-.05.52-.05.26-.02.52-.02.26-.03.52-.03.26.08.52.08.26,0,.52,0,.26.01.52.01.26-.03.52-.03.26,0,.52-.02c.16-.04.31-.04.41-.08.18-.08.31-.26.38-.48.05-.16.02-.37.02-.61,0-.09,0-.26-.07-.56-.03-.15,0-.35-.07-.57-.05-.19-.12-.38-.19-.59-.06-.18-.13-.38-.2-.58-.07-.18-.15-.37-.24-.57-.11-.27-.18-.24-.29-.5s-.08-.28-.19-.54-.08-.28-.19-.54-.14-.25-.25-.52-.1-.27-.22-.53-.15-.25-.26-.51-.02-.3-.13-.57-.04-.34-.28-.5-.27-.02-.55-.02-.28,0-.56,0-.28-.03-.56-.03-.28,0-.56,0-.28-.01-.56-.01-.28.06-.56.06-.28-.03-.56-.03-.28,0-.56,0-.28.06-.56.06-.28-.03-.56-.03-.28-.02-.56-.02-.28,0-.56,0-.28-.01-.56-.01-.28.02-.56.02-.28-.05-.56-.05-.28.06-.56.06-.28-.03-.56-.03-.28.03-.56.03-.28-.01-.56-.01-.28,0-.56,0-.29-.09-.56,0c-.07.18-.14.36-.21.54-.07.18-.15.35-.22.53-.07.18-.14.36-.2.53-.07.18-.16.35-.23.52-.07.18-.14.36-.21.53-.07.19-.07.39-.14.56-.07.19-.14.36-.2.53-.07.19-.14.37-.2.53-.08.2-.16.37-.22.52-.08.23-.13.41-.17.54-.06.17-.11.33-.16.48-.05.18-.17.32-.2.48-.04.19-.01.37-.01.51,0,.21-.03.41.02.58.06.19.22.32.35.46s.26.23.45.32c.1.05.21.14.38.18.16,0,.32.05.48.06s.33-.06.48-.05c.18.02.35.11.53.13s.36.04.54.06.36.04.54.07.35.07.53.11.36.03.54.07.35.08.53.12.37.04.54.09.35.1.52.16.35.11.51.18.33.17.49.24.31.2.47.27.32.17.48.25c.16.09.34.12.49.21s.28.21.42.32.29.2.42.32.22.28.34.41.26.24.37.38.19.3.28.45.18.3.26.46.11.34.17.5.16.31.22.48.04.35.08.52.14.33.17.5,0,.35.02.53.04.35.05.53.03.35.03.53-.02.35-.03.52-.01.35-.03.52-.04.35-.07.52-.09.34-.14.51-.1.34-.17.5-.11.34-.19.49-.2.29-.29.44-.15.32-.26.46-.27.23-.39.36-.24.25-.37.37-.23.27-.37.38c-.15.11-.36.14-.52.25-.16.1-.28.27-.45.36-.16.08-.34.15-.53.23-.17.07-.38.07-.56.14-.17.06-.35.14-.53.2-.18.06-.36.14-.55.19.17.05.34.13.51.18s.32.14.49.2.33.11.49.18.35.08.51.15.31.17.46.25.31.16.47.24.33.14.48.23.3.18.45.28.26.24.4.34.26.24.4.35c.14.11.33.16.46.28s.18.31.3.44.31.2.41.34.17.31.26.46.15.32.23.47.12.33.18.49.18.31.23.48.08.34.11.52.06.34.09.52-.03.35-.01.53.07.34.07.52-.05.36-.06.54-.02.36-.04.53.04.37.02.54-.14.34-.18.51-.04.36-.09.53-.14.33-.2.5-.11.34-.19.5-.15.33-.24.48-.17.32-.27.46-.21.29-.32.43-.26.25-.38.38-.2.3-.34.42-.3.2-.44.31-.29.21-.44.31-.27.23-.43.33-.31.18-.47.27-.32.16-.48.24-.32.17-.48.24c-.17.07-.35.11-.52.17s-.35.09-.53.14-.35.11-.53.15-.36.06-.54.1-.35.07-.54.1-.35.09-.53.12-.36.04-.54.06-.36.04-.54.06-.36,0-.55,0-.36.04-.55.04-.36.1-.55.11-.36-.03-.55-.03c-.27,0-.27.03-.55.03s-.27-.08-.55-.08-.27-.01-.55-.01-.27,0-.55,0-.27.06-.55.06-.27-.05-.55-.05-.27.07-.55.07-.27-.07-.55-.07-.27,0-.55,0-.27.09-.55.09-.27,0-.55,0-.27-.03-.55-.03-.27.03-.55.03-.27-.08-.55-.08-.27-.03-.55-.03-.27.05-.55.05-.27.02-.55.02-.27.03-.55.03-.27-.05-.55-.05-.27.03-.55.03-.27-.08-.55-.08-.27.05-.55.05-.27-.02-.55-.02-.27.06-.55.06-.27-.04-.55-.04-.27-.01-.55-.01-.27-.03-.55-.03-.27.03-.55.03-.27,0-.55,0-.27.01-.55.01c-.11,0-.16-.11-.16-.22,0-.21,0-.21,0-.42s0-.21,0-.42c0-.11.03-.2.14-.2.21-.01.4-.05.59-.07.21-.02.41-.01.59-.04.21-.03.41-.01.59-.04.21-.04.4-.11.57-.16.21-.06.4-.12.56-.19.21-.09.39-.18.52-.29.12-.11.19-.27.28-.46.07-.14.16-.3.21-.49.04-.16.05-.34.08-.53.03-.17.11-.34.13-.53.02-.17-.05-.35-.05-.54,0-.17.07-.35.07-.54,0-.27-.05-.27-.05-.54s.03-.27.03-.54-.01-.27-.01-.54.04-.27.04-.54.02-.27.02-.54,0-.27,0-.54-.05-.27-.05-.54-.03-.27-.03-.54-.01-.27-.01-.54.03-.27.03-.54.06-.27.06-.54-.07-.27-.07-.54-.01-.27-.01-.54-.02-.27-.02-.54.07-.27.07-.54c0-.11.07-.21.18-.21.29,0,.29,0,.58,0s.29-.03.58-.03.29.03.58.03.29.04.58.04.29-.02.58-.02.29-.06.58-.06.29.04.58.04.29-.05.58-.05c.11,0,.24.13.24.24,0,.28-.03.28-.03.56s-.03.28-.03.56-.02.28-.02.56.04.28.04.56.03.28.03.56.01.28.01.56,0,.28,0,.56-.07.28-.07.56-.02.28-.02.56.04.28.04.56-.04.28-.04.56.08.28.08.56-.02.28-.02.56,0,.28,0,.56.03.28.03.56-.02.28-.02.56-.07.28-.07.56c0,.19.05.36.08.51.03.19.05.37.13.5.09.16.26.23.41.3.08.04.27.11.55.15.17.02.36.08.57.1.18.02.38-.04.58-.02.18.01.38.07.58.08.19,0,.38-.03.58-.02s.38.06.58.06.39-.02.58-.02.39,0,.58,0,.36.03.54.02.36-.06.54-.07.36-.04.54-.05.36-.03.54-.06.37,0,.54-.03.36-.07.53-.11.34-.13.51-.18.37-.04.54-.1.34-.14.5-.21.3-.21.46-.29.36-.1.51-.19c.15-.09.3-.19.44-.3s.26-.24.38-.36.23-.26.34-.4.18-.3.27-.45.14-.31.21-.48.13-.31.19-.48.13-.32.17-.49c.04-.17.1-.33.13-.51.03-.17.07-.34.08-.52s-.05-.35-.04-.53.08-.34.08-.52-.05-.37-.06-.54c-.01-.19-.03-.37-.05-.54s.01-.38-.02-.55-.1-.36-.15-.53-.18-.32-.25-.49-.09-.36-.18-.52-.16-.34-.26-.48-.26-.26-.39-.39-.23-.28-.37-.4-.3-.2-.46-.3-.3-.19-.47-.27c-.15-.08-.3-.2-.48-.27-.16-.06-.36-.04-.54-.1-.17-.05-.32-.19-.5-.24-.17-.05-.35-.08-.53-.12s-.35-.07-.53-.11-.36-.05-.54-.08-.36-.04-.54-.07-.36-.05-.54-.07-.35-.11-.53-.13-.36-.05-.54-.07-.36-.03-.54-.04-.37.05-.55.04-.36-.03-.54-.04-.36-.03-.54-.04-.37-.01-.54-.01-.37-.02-.54-.02c-.33,0-.33-.01-.66-.01s-.33.04-.66.04c-.11,0-.25-.02-.43-.02-.13,0-.27-.05-.43-.06-.29,0-.29.05-.57.05s-.29,0-.57,0-.29-.04-.57-.04-.29,0-.57,0-.29-.02-.57-.02-.29.03-.57.03-.29.05-.57.05-.29-.04-.57-.04c-.11,0-.24-.09-.24-.2,0-.27.06-.27.06-.54s0-.27,0-.54-.05-.27-.05-.54.07-.27.07-.54-.05-.27-.05-.54.02-.27.02-.54-.03-.27-.03-.54.02-.27.02-.54-.03-.27-.03-.54.02-.27.02-.54.05-.27.05-.54-.03-.27-.03-.54.02-.27.02-.54.02-.27.02-.54-.08-.27-.08-.54,0-.27,0-.54-.02-.27-.02-.54.04-.27.04-.54-.03-.27-.03-.54c0-.19,0-.36,0-.54,0-.19.04-.37.03-.54-.02-.19-.09-.36-.12-.53-.03-.19-.08-.36-.13-.52-.05-.19-.05-.38-.13-.53-.09-.18-.24-.3-.36-.4-.14-.13-.31-.27-.55-.36-.18-.07-.4-.09-.64-.14-.27-.02-.27-.05-.54-.05s-.27-.04-.54-.03-.27.04-.54.05-.27.02-.54.02-.27-.02-.54-.02-.27.04-.54.04-.27-.08-.54-.08-.27.07-.54.07-.27-.07-.54-.07-.27.05-.54.05c-.11,0-.2-.09-.2-.2,0-.21.05-.21.05-.42s-.1-.21-.1-.42c0-.11.14-.16.24-.17.2-.02.39-.03.56-.06.2-.02.38-.09.55-.12.2-.03.39-.07.55-.1.21-.05.37-.15.53-.2.21-.07.4-.07.55-.14.23-.11.38-.21.47-.31.08-.09.12-.26.2-.47.05-.13.18-.27.22-.47.03-.15,0-.33.02-.52.02-.15.1-.32.12-.5.01-.16,0-.33,0-.52,0-.16-.02-.33-.01-.51,0-.16,0-.33,0-.51,0-.27.03-.27.03-.54s.04-.27.04-.54.03-.27.03-.54-.06-.27-.06-.54.04-.27.04-.54,0-.27,0-.54-.04-.27-.04-.54,0-.27,0-.54.03-.27.03-.54-.05-.27-.05-.54.04-.27.04-.54.01-.27.01-.54-.05-.27-.05-.54.05-.27.05-.54-.05-.27-.05-.54.23-.37.04-.56-.3.02-.57.02-.28,0-.55,0-.28-.02-.55-.02-.28.03-.55.03-.28-.02-.55-.02-.28.03-.55.03-.28-.03-.55-.03-.27,0-.55,0-.27.02-.55.02-.27.04-.55.04-.28-.06-.55-.06-.27.04-.55.04-.27,0-.55,0-.28,0-.55,0-.27,0-.55,0-.28.02-.55.02-.28-.07-.55-.07-.28.08-.55.08-.28-.03-.55-.03-.28.02-.55.02-.28-.08-.55-.08-.28.07-.55.07-.28-.06-.55-.06-.28.08-.55.08-.28-.02-.55-.02-.28-.02-.55-.02-.28,0-.55,0-.28-.02-.55-.02-.28.01-.55.01-.28,0-.55,0-.28.05-.55.05-.28-.08-.55-.08-.28-.02-.55-.02-.28.03-.55.03-.28.03-.55.03-.28.03-.55.03c-.11,0-.18-.13-.18-.25,0-.27-.06-.27-.06-.54s.04-.27.04-.54.02-.27.02-.54,0-.27,0-.54.02-.27.02-.54-.07-.27-.07-.54-.01-.27-.01-.54.03-.27.03-.54.01-.27.01-.54-.05-.27-.05-.54,0-.27,0-.54.09-.27.09-.54-.01-.27-.01-.54.02-.27.02-.54-.07-.27-.07-.54.04-.27.04-.54-.03-.27-.03-.54,0-.27,0-.54-.02-.27-.02-.54.03-.27.03-.54c0-.19-.02-.36-.03-.53,0-.19.05-.37.04-.53-.02-.19-.1-.36-.12-.52-.03-.19-.09-.36-.13-.51-.05-.2-.1-.36-.16-.49-.09-.2-.19-.33-.28-.42-.12-.11-.24-.23-.43-.32-.15-.07-.32-.11-.52-.17-.16-.05-.32-.17-.51-.21-.17-.04-.35-.05-.55-.08-.17-.03-.36,0-.55-.03-.17-.02-.36-.01-.55-.03-.11,0-.18-.15-.18-.26,0-.21.02-.21.02-.42s-.05-.21-.05-.42c0-.11.11-.24.23-.24.27,0,.27-.01.55-.01s.27,0,.55,0,.27.01.55.01.27,0,.55,0,.27,0,.55,0,.27.04.55.04.27-.04.55-.04.27.02.55.02.27,0,.55,0,.27.01.55.01.27.03.55.03.27-.05.55-.05.27,0,.55,0,.27-.01.55-.01.27.05.55.05.27.02.55.02.27-.08.55-.08.27.09.55.09.27-.08.55-.08.27.01.55.01.27.01.55.01.27.02.55.02.27.04.55.04c.11,0,.25.05.25.16,0,.21-.1.21-.1.42s.07.21.07.42c0,.11-.1.2-.2.2-.19.01-.38-.02-.55,0-.19.02-.37.06-.54.08-.19.03-.37.06-.54.1-.19.04-.35.17-.51.22-.19.06-.37.09-.52.16-.19.09-.37.15-.49.26-.11.11-.2.28-.28.46-.07.14-.06.33-.11.52-.04.16-.12.32-.15.5-.03.16-.03.34-.04.53-.01.17-.09.34-.1.52,0,.17.04.35.04.53,0,.27.03.27.03.54s-.06.27-.06.54,0,.27,0,.54.01.27.01.54-.03.27-.03.54.01.27.01.54.06.27.06.54,0,.27,0,.54,0,.27,0,.54-.04.27-.04.54.03.27.03.54-.01.27-.01.54.04.27.04.54-.04.27-.04.54,0,.27,0,.54-.18.33.01.52.26.07.54.07.28-.07.56-.07.28,0,.56,0,.28.02.56.02.28,0,.56,0,.28.03.56.03.28-.06.56-.06.28.06.56.06.28-.01.56-.01.28.02.56.02.28-.02.56-.02.28-.04.56-.04.28.06.56.06.28,0,.56,0,.28,0,.56,0,.28-.02.56-.02.28,0,.56,0,.28-.05.56-.05.28.02.56.02.28-.04.56-.04.28.02.56.02.28.03.56.03.28,0,.56,0,.28.03.56.03.28-.03.56-.03.28.03.56.03.34.13.54-.06-.03-.25-.03-.52.05-.27.05-.54.03-.27.03-.54-.04-.27-.04-.54.02-.27.02-.54-.06-.27-.06-.54.1-.27.1-.54-.08-.27-.08-.54.08-.27.08-.54-.1-.27-.1-.54.07-.27.07-.54-.03-.27-.03-.54.01-.27.01-.54-.05-.27-.05-.54.09-.27.09-.54-.02-.27-.02-.54c0-.19-.09-.36-.09-.52,0-.19-.02-.36-.04-.52-.02-.19-.01-.36-.04-.52-.03-.19,0-.38-.05-.53-.05-.2-.12-.36-.18-.5-.09-.2-.23-.31-.33-.41-.11-.11-.26-.21-.44-.31-.15-.07-.32-.11-.52-.17-.16-.05-.33-.1-.53-.14-.17-.04-.34-.11-.53-.14-.17-.03-.35-.07-.54-.09-.17-.02-.36-.02-.55-.04-.11,0-.23-.09-.23-.19,0-.21.06-.21.06-.42s.01-.21.01-.42c0-.11.06-.16.17-.16.27,0,.27-.08.55-.08s.27.07.55.07.27-.07.55-.07.27.04.55.04.27.04.55.04.27-.02.55-.02.27-.01.55-.01.27-.02.55-.02.27,0,.55,0,.27.04.55.04.27.02.55.02.27,0,.55,0,.27-.05.55-.05.27,0,.55,0,.27-.02.55-.02.27.01.55.01.27-.04.55-.04.27.08.55.08.27-.01.55-.01.27-.07.55-.07.27.02.55.02.27,0,.55,0,.27.03.55.03c.11,0,.25.09.25.2,0,.21-.08.21-.08.42s.02.21.02.42c0,.11-.06.2-.17.2-.19.01-.37.05-.54.07-.19.02-.37.06-.54.09-.19.03-.38,0-.55.03-.19.04-.38.08-.54.13-.19.06-.38.11-.52.19-.19.09-.29.26-.41.37-.11.11-.25.22-.33.4-.07.14-.05.33-.1.52-.04.16-.17.31-.19.5-.03.16.03.35.01.53-.01.17-.04.34-.05.52,0,.17-.07.34-.07.53,0,.27.09.27.09.55s0,.27,0,.55,0,.27,0,.55,0,.27,0,.55-.09.27-.09.55.06.27.06.55.01.27.01.55-.05.27-.05.55.05.27.05.54-.03.27-.03.54.03.27.03.55.02.27.02.55-.09.27-.09.54.09.27.09.55-.09.27-.09.55.02.27.02.54.02.27.02.55.04.27.04.55.01.27.01.55-.05.27-.05.55-.01.27-.01.55.06.27.06.55-.07.27-.07.55.03.27.03.55-.02.27-.02.55,0,.27,0,.55-.03.27-.03.55,0,.27,0,.55.06.27.06.55-.02.27-.02.55-.02.27-.02.55-.05.27-.05.55.05.27.05.55-.02.27-.02.55.02.27.02.55-.05.27-.05.55.06.27.06.55c0,.17.01.35.02.52s.03.35.04.52.01.35.04.52c.03.18.09.33.14.49.05.17.04.36.12.51s.24.26.36.38.25.21.41.3c.14.08.29.16.47.22.15.05.32.13.5.15.18.02.36-.03.54-.03s.36,0,.54-.01.36.03.54.02c.18-.01.33-.08.48-.13.16-.05.35-.04.49-.12s.24-.23.37-.35c.12-.11.22-.23.33-.37.09-.12.19-.28.31-.47.09-.14.26-.26.36-.45.08-.15.12-.35.22-.53.08-.16.22-.3.31-.48.08-.16.12-.35.2-.53.08-.16.12-.35.21-.53.08-.16.17-.33.25-.51.08-.17.15-.34.22-.52.07-.17.16-.33.24-.51.07-.17.19-.32.27-.5s.16-.34.23-.51.11-.36.19-.54c.1-.24.11-.24.21-.48s.11-.24.21-.48.1-.24.21-.48.07-.25.17-.49.08-.25.18-.49.17-.21.27-.45.07-.26.17-.5c.03-.07.11-.14.19-.14.28,0,.28,0,.55,0s.28-.02.55-.02.28,0,.55,0,.28,0,.55,0,.28-.01.55-.01.28.04.55.04.28-.05.55-.05.28.02.55.02.28.06.55.06.28,0,.55,0,.28.02.55.02.28-.01.55-.01.28-.03.55-.03.28.01.55.01.28,0,.55,0,.28-.08.55-.08.28.04.55.04.28,0,.55,0,.28,0,.55,0,.28,0,.55,0,.28.05.55.05.43.2.59-.03-.18-.26-.29-.52-.11-.25-.22-.51-.08-.27-.18-.52-.11-.25-.22-.51-.08-.27-.19-.52-.11-.25-.22-.51-.08-.26-.19-.52-.15-.24-.25-.49-.05-.28-.16-.53-.14-.24-.25-.5-.12-.25-.23-.51-.04-.28-.15-.54-.16-.23-.27-.49-.12-.25-.22-.51-.07-.27-.18-.52-.1-.26-.21-.51-.1-.26-.2-.51-.1-.26-.2-.51-.11-.25-.22-.51-.09-.26-.2-.52-.15-.24-.26-.49-.08-.27-.19-.52.04-.48-.23-.48-.09.24-.2.5-.13.24-.24.5-.11.25-.21.51-.09.26-.2.52-.14.24-.25.5-.08.26-.19.52-.09.26-.2.52-.09.26-.19.52-.14.24-.25.5-.06.28-.17.53-.15.24-.26.49-.06.27-.17.53-.11.25-.22.51-.1.26-.21.51-.15.24-.26.49-.16.23-.26.49-.05.28-.15.54-.09.26-.19.52-.16.23-.27.49-.13.25-.24.5c-.03.07-.06.18-.14.18-.25,0-.25-.04-.51-.04s-.26.03-.51.03-.26.02-.51.02-.26-.06-.51-.06c-.07,0-.16,0-.2-.06s-.04-.16-.01-.22c.11-.25.09-.26.19-.51s.1-.25.21-.5.13-.24.24-.49.1-.25.21-.5.14-.23.25-.49.09-.26.2-.51.1-.25.21-.5.1-.25.21-.5.07-.27.18-.52.14-.24.25-.49.07-.27.18-.52.13-.24.24-.49.16-.23.27-.48.11-.25.22-.5.11-.25.22-.5.08-.26.19-.51.07-.27.18-.52.16-.23.27-.48.09-.26.2-.51.09-.26.19-.51.11-.25.21-.5.06-.27.17-.52.13-.24.24-.49.08-.26.18-.52.14-.24.25-.49.15-.23.25-.48.11-.25.22-.5.02-.29.12-.54.17-.23.27-.48.05-.27.16-.52.12-.24.23-.49.16-.23.27-.48.08-.26.18-.52.13-.24.23-.49c.03-.07.08-.09.16-.09.23,0,.23-.05.45-.05s.23,0,.45,0c.08,0,.14.06.18.14.11.25.09.26.2.51s.12.25.23.5.17.23.28.48.1.26.21.51.1.26.21.51.14.24.25.49.05.28.16.53.11.25.22.5.12.25.23.5.09.26.2.51.14.24.25.49.16.23.27.48.12.25.23.5.07.27.18.52.09.26.2.51.08.26.19.52.2.21.31.47.05.28.16.53.17.23.28.48.03.29.14.54.2.21.31.47.08.27.19.52.12.25.23.5.1.25.21.51.13.25.24.5.05.28.16.53.1.26.21.51.11.25.22.51.19.22.3.47.09.26.2.51.07.27.18.52.14.24.26.49.09.26.2.52.16.23.27.48.12.25.23.5.04.28.15.54.14.24.25.49.09.26.2.51.14.24.25.49.14.24.25.49.09.26.2.51.15.24.26.49.04.28.15.53.17.23.28.48.08.27.19.52.09.26.2.52.14.24.25.49.09.26.2.51.15.24.26.49.13.24.24.5.12.25.23.5c.07.16.08.36.16.53s.13.34.21.51.23.3.31.46.16.33.26.48.17.33.28.47.23.28.36.41.26.26.4.37.31.18.48.26.32.16.5.2c.17.04.35.03.54.03.17,0,.34.07.5.05s.33-.05.5-.08.33-.06.49-.11.29-.17.45-.23c.19-.07.39-.09.53-.2.15-.12.22-.31.32-.46s.23-.29.29-.47.12-.35.15-.54,0-.37,0-.56,0-.37,0-.56.05-.38.05-.56c0,0,.03-.19.03-.55,0-.15-.04-.34-.04-.55,0-.17,0-.35,0-.55,0-.17.04-.35.04-.54,0-.17.03-.36.03-.55s0-.36,0-.55-.07-.36-.07-.55.08-.36.08-.55c0-.18,0-.36,0-.55s-.1-.36-.1-.55.03-.36.03-.55.07-.36.07-.55-.01-.36-.01-.55c0-.18-.06-.36-.06-.55s.08-.36.08-.55-.05-.36-.05-.55c0-.18-.04-.36-.04-.55,0-.18.01-.36.01-.55s.05-.36.05-.55c0-.18-.07-.36-.07-.55,0-.18.09-.36.09-.55,0-.18-.07-.36-.07-.55,0-.18-.01-.36-.01-.55,0-.18.05-.37.05-.55,0-.18-.03-.37-.03-.55,0-.18.04-.37.04-.55,0-.18-.07-.37-.07-.55s.07-.37.07-.55.01-.37.01-.55c0-.19-.02-.37-.02-.55,0-.19.02-.37.02-.55s0-.37,0-.55c0-.19-.04-.37-.04-.55,0-.19.02-.37.02-.55,0-.2-.03-.38-.03-.55,0-.21.02-.39.02-.54,0-.35,0-.27,0-.54,0-.18-.04-.36-.05-.52,0-.18-.02-.36-.04-.52-.02-.18-.06-.35-.08-.52-.03-.19.03-.38-.01-.53-.05-.19-.12-.36-.18-.5-.08-.18-.25-.27-.36-.39-.11-.12-.23-.24-.42-.34-.15-.07-.31-.16-.5-.22-.16-.05-.34-.09-.53-.14-.17-.04-.34-.12-.53-.14-.17-.03-.37.05-.56.03-.17-.02-.35-.11-.54-.12-.11,0-.19-.07-.19-.18,0-.21,0-.21,0-.42s.05-.21.05-.42c0-.11.04-.26.15-.26.28,0,.28.03.56.03s.28.07.56.07.28-.03.56-.03.28.02.56.02.28-.03.56-.03.28-.05.56-.05.28-.02.56-.02.28.07.56.07.28.03.56.03.28-.02.56-.02.28,0,.56,0,.28-.02.56-.02.28.03.56.03.28-.04.56-.04.28.03.56.03.28,0,.56,0,.28.03.56.03.28-.05.56-.05.28,0,.56,0,.28-.02.56-.02.28.07.56.07.28-.06.56-.06.28-.03.56-.03c.11,0,.25.13.25.25,0,.21-.07.21-.07.42s0,.21,0,.42c0,.11-.05.21-.16.22-.19.01-.39-.04-.57-.03-.2.02-.38.08-.55.11-.2.03-.37.1-.55.13-.2.04-.38.05-.55.1-.2.06-.37.13-.52.2-.19.08-.36.16-.49.26-.14.11-.24.28-.35.47-.08.16-.16.34-.22.55-.05.18-.11.36-.14.58-.03.18-.04.38-.05.59-.01.19-.02.39-.02.59,0,.27.05.27.05.54s-.09.27-.09.54.08.27.08.54-.02.27-.02.54-.02.27-.02.54-.05.27-.05.54.09.27.09.54-.02.27-.02.54-.06.27-.06.54,0,.27,0,.54.08.27.08.54-.01.27-.01.54-.08.27-.08.54.05.27.05.54,0,.27,0,.54.02.27.02.54-.05.27-.05.54.05.27.05.54.02.27.02.54-.05.27-.05.54-.04.27-.04.54.08.27.08.54-.08.27-.08.54.07.27.07.54,0,.27,0,.54.02.27.02.54-.03.27-.03.54,0,.27,0,.54.02.27.02.54.03.27.03.54-.05.27-.05.55.07.27.07.54-.08.27-.08.54.02.27.02.54,0,.27,0,.54.04.27.04.55-.05.27-.05.54.06.27.06.55.01.27.01.55-.02.27-.02.55c0,.21.03.38.06.55.04.21.05.39.13.53.08.13.24.22.45.3.15.06.32.11.53.14.18.02.36.01.53.03.18.01.35.11.53.12.13,0,.31-.06.53-.06.15,0,.33.05.53.06.16,0,.34,0,.53,0,.17,0,.34,0,.53,0s.37-.06.55-.06.37.08.55.07.37-.04.55-.05.37.03.55.02.36-.1.54-.11.37.04.55.03.37-.04.55-.05c.19-.01.37-.04.54-.06.19-.02.37.02.55,0,.19-.02.36-.14.53-.17.19-.03.37-.02.54-.05.19-.03.38,0,.55-.04.19-.04.36-.11.53-.16.19-.05.37-.1.53-.15.19-.06.35-.14.51-.21.16-.07.31-.18.47-.28.15-.09.32-.16.47-.28.14-.11.27-.24.41-.37.13-.12.18-.32.31-.46.12-.13.29-.22.41-.36.11-.14.23-.27.34-.42.1-.14.16-.32.27-.48s.23-.28.33-.44.14-.34.23-.5.21-.29.3-.46.15-.33.23-.49.2-.3.28-.47c.03-.07.07-.13.16-.13.29,0,.29-.02.58-.02s.29.05.58.05c.07,0,.1.03.14.08s.07.09.05.16c-.07.26-.09.25-.17.51s-.07.26-.14.52-.07.26-.14.52-.08.26-.15.51,0,.28-.08.54-.14.24-.21.5,0,.28-.07.54-.15.24-.23.49-.02.27-.09.53-.07.26-.14.52-.1.25-.17.51-.05.26-.13.52-.21.25-.19.51c.2-.02.41-.04.59-.07.2-.03.38-.11.56-.15.2-.04.4-.04.57-.09.2-.06.38-.13.54-.2.21-.09.35-.21.47-.31.1-.08.2-.2.3-.42.06-.13.16-.28.21-.49.04-.15.09-.32.12-.52.02-.16.05-.33.06-.53.01-.16.02-.34.03-.53,0-.17,0-.34,0-.53,0-.27-.05-.27-.05-.55s.07-.27.07-.55,0-.27,0-.55-.08-.27-.08-.55,0-.27,0-.55,0-.27,0-.55.04-.27.04-.55.03-.27.03-.55-.07-.27-.07-.54.05-.27.05-.54-.05-.27-.05-.55.05-.27.05-.55.02-.27.02-.54-.09-.27-.09-.55.05-.27.05-.55-.04-.27-.04-.54.02-.27.02-.55-.02-.27-.02-.55,0-.27,0-.55.06-.27.06-.55,0-.27,0-.55-.04-.27-.04-.55.04-.27.04-.55,0-.27,0-.55-.06-.27-.06-.55-.02-.27-.02-.55,0-.27,0-.55.06-.27.06-.55-.02-.27-.02-.55,0-.27,0-.55.03-.27.03-.55-.03-.27-.03-.55.03-.27.03-.55-.06-.27-.06-.55,0-.27,0-.55-.02-.27-.02-.55.04-.27.04-.55c0-.18-.03-.36-.04-.52,0-.18-.02-.36-.03-.52-.02-.18-.01-.36-.04-.52-.03-.19-.09-.35-.13-.51-.05-.19-.04-.38-.11-.52-.08-.18-.24-.28-.35-.39-.11-.12-.21-.29-.4-.38-.15-.07-.34-.1-.53-.16-.16-.05-.34-.07-.54-.12-.17-.04-.34-.11-.53-.13-.17-.03-.36,0-.55-.02-.17-.02-.35-.09-.54-.1-.11,0-.21-.08-.21-.19,0-.21-.02-.21-.02-.42s.02-.21.02-.42c0-.11.11-.24.22-.24.28,0,.28.03.56.03s.28-.02.56-.02.28.05.56.05.28-.01.56-.01.28.02.56.02.28,0,.56,0,.28-.04.56-.04.28-.03.56-.03.28.05.56.05.28.03.56.03.28-.08.56-.08.28,0,.56,0,.28.08.56.08.28-.09.56-.09.28.07.56.07.28-.03.56-.03.28-.01.56-.01.28-.02.56-.02.28.03.56.03.28,0,.56,0,.28,0,.56,0,.28-.03.56-.03.28.04.56.04c.11,0,.22.07.22.19,0,.21-.03.21-.03.42s-.03.21-.03.42c0,.11-.03.16-.15.17-.19.01-.38.04-.56.05-.2.02-.38.05-.56.07-.2.03-.39.03-.56.06-.2.04-.38.07-.55.12-.2.06-.35.18-.51.25-.19.08-.34.18-.47.29-.14.11-.27.25-.37.44-.08.16-.2.33-.26.54-.05.18-.02.38-.05.6-.03.18-.04.38-.06.59-.01.19,0,.38,0,.59,0,.27,0,.27,0,.54s-.09.27-.09.54,0,.27,0,.54,0,.27,0,.54.02.27.02.54-.02.27-.02.54.05.27.05.54-.02.27-.02.54-.02.27-.02.54.04.27.04.54-.02.27-.02.54-.04.27-.04.54.06.27.06.54,0,.27,0,.54-.03.27-.03.54,0,.27,0,.54.01.27.01.54.04.27.04.54-.07.27-.07.54.06.27.06.54.01.27.01.54-.03.27-.03.54,0,.27,0,.54.05.27.05.54-.08.27-.08.54-.01.27-.01.54.04.27.04.54,0,.27,0,.54,0,.27,0,.54,0,.27,0,.54-.04.27-.04.55.09.27.09.54-.02.27-.02.54-.02.27-.02.54.01.27.01.54-.06.27-.06.55,0,.27,0,.54.05.27.05.55.02.27.02.55-.07.27-.07.55c0,.21.11.38.14.55.04.21.07.38.15.52.08.13.2.28.41.36.15.06.34.05.55.07.18.02.35.1.52.11.18.01.36,0,.53.01.13,0,.31.03.53.03.15,0,.33-.01.53-.01.16,0,.34-.02.53-.01.16,0,.34-.01.53-.01s.37-.02.55-.02.37.06.55.05.37-.1.55-.1.37.03.55.03.37.04.55.03.37-.06.54-.07.37-.04.55-.05c.19-.01.37-.02.55-.04.19-.02.37-.05.54-.07.19-.02.37-.06.54-.08.19-.03.37-.06.54-.09.19-.03.37-.04.54-.08.19-.04.36-.11.52-.15.19-.05.36-.11.52-.16.19-.06.35-.13.5-.2.16-.08.32-.17.48-.27.15-.1.29-.21.44-.33.14-.11.29-.22.43-.35.13-.13.26-.25.39-.39.12-.13.29-.24.4-.39.11-.14.2-.31.31-.46.11-.15.21-.3.31-.46s.21-.3.31-.46.14-.35.23-.51.24-.3.33-.47c-.08-.16-.16-.33-.23-.49s-.17-.31-.23-.48-.17-.31-.24-.48-.06-.36-.11-.53-.14-.33-.19-.5-.1-.34-.14-.51-.12-.34-.16-.51-.06-.35-.1-.52-.07-.35-.1-.52-.01-.36-.04-.53-.09-.35-.11-.52-.03-.35-.04-.53-.02-.35-.03-.53.01-.35,0-.53-.03-.35-.03-.53.02-.36.02-.54-.03-.37-.02-.55.1-.36.11-.54-.05-.37-.03-.55.1-.35.12-.53.04-.36.07-.54.09-.35.13-.53,0-.37.03-.55.16-.34.2-.51.04-.37.09-.54.12-.35.17-.52.15-.33.21-.5.07-.36.14-.53.23-.3.3-.46.07-.37.15-.53.22-.29.31-.45.14-.34.23-.49.21-.3.31-.45.23-.28.34-.43.16-.33.27-.48.28-.24.4-.38.2-.31.32-.44.27-.24.39-.38.25-.27.38-.39c.13-.13.24-.27.38-.4s.31-.2.45-.32.24-.29.38-.4.33-.17.48-.27.27-.25.42-.35.31-.2.47-.29.36-.11.52-.2.3-.21.46-.29.32-.17.49-.25.33-.15.5-.22.36-.08.53-.14.34-.12.52-.18.33-.17.5-.22.36-.06.54-.1.35-.09.53-.13.35-.1.53-.13.36-.03.55-.06.36-.07.54-.09.37.04.55.03.36-.07.54-.07.36.03.55.03.37,0,.55,0,.37.01.55.02.37,0,.55.01.36.09.54.11.36.05.54.08.37.03.55.07.36.06.54.1.34.13.52.18.35.1.52.16.36.08.53.15.35.12.51.19.34.15.5.22.34.14.5.22.33.15.49.24.31.19.47.29.32.18.47.28.28.23.43.34.33.17.47.29.27.25.41.37.29.22.43.35.26.26.39.39c.13.13.28.24.4.37s.19.32.31.45.25.26.36.4.22.29.33.43.23.28.33.43.24.27.34.42.17.32.26.48.2.3.29.46.18.31.26.47.19.31.27.47.14.33.21.5.13.34.19.51.14.34.19.51.05.36.11.54.13.34.18.51.09.35.13.53.05.36.08.54.04.36.07.54.14.34.16.52,0,.36.02.54,0,.36,0,.54.03.36.04.54.05.36.05.54-.02.36-.02.54,0,.37,0,.55-.04.37-.05.55-.02.37-.04.55.04.37.02.55-.11.36-.13.54.02.37-.01.55-.05.37-.08.54-.07.36-.11.54-.09.36-.14.53-.17.33-.23.51-.11.35-.17.52-.12.35-.19.52-.08.36-.16.53-.13.34-.21.51-.18.32-.26.48-.2.31-.29.47-.16.33-.26.48-.15.34-.26.49-.21.3-.32.45-.24.28-.36.42-.23.28-.35.42-.27.25-.4.38-.22.3-.35.43-.28.23-.42.36c-.13.12-.24.26-.37.37s-.29.19-.43.3-.24.26-.37.37-.31.16-.45.26-.27.19-.41.29c.26.06.26.05.53.05s.27-.07.54-.07.27.06.54.06.27-.01.54-.01.27-.02.54-.02.27.03.54.03.27.02.54.02.27-.06.54-.06.27,0,.54,0,.27,0,.54,0,.27,0,.54,0,.27,0,.54,0,.27.06.54.06.27-.03.54-.03.27,0,.54,0,.27,0,.54,0,.27-.01.54-.01.27,0,.54,0,.27.03.54.03.27-.05.54-.05.27-.02.54-.02.27.02.54.02.27-.03.54-.03.27.08.54.08.27.02.54.02.27-.05.54-.05.27-.02.54-.02.43.28.59.05-.09-.31-.19-.57-.13-.25-.22-.51-.1-.26-.19-.52-.13-.25-.23-.51-.08-.26-.18-.52-.11-.25-.21-.51-.07-.27-.17-.53-.11-.26-.2-.52-.08-.27-.17-.53-.1-.26-.19-.52-.04-.28-.14-.54-.07-.27-.16-.53-.12-.25-.21-.51-.09-.26-.18-.52-.16-.24-.26-.5-.04-.28-.13-.54-.14-.24-.23-.5-.08-.26-.18-.52-.08-.27-.17-.53-.09-.26-.19-.52-.1-.26-.19-.52-.06-.27-.16-.53-.14-.24-.23-.5-.04-.28-.13-.54-.12-.25-.22-.51-.07-.27-.16-.53-.15-.24-.25-.5-.03-.28-.13-.54-.16-.24-.25-.5-.06-.27-.15-.53-.11-.26-.2-.52-.08-.27-.17-.53-.11-.26-.2-.52-.04-.28-.14-.54c-.06-.17-.14-.34-.2-.5s-.12-.35-.18-.51-.17-.33-.23-.49-.13-.34-.19-.51-.1-.35-.16-.52-.1-.35-.16-.52-.2-.32-.26-.48c-.07-.17-.08-.36-.15-.52-.07-.17-.18-.32-.24-.49-.07-.17-.07-.37-.13-.53-.07-.17-.22-.31-.29-.47-.07-.17-.09-.36-.16-.52-.08-.18-.18-.33-.25-.48-.08-.18-.11-.36-.18-.51-.08-.18-.2-.32-.28-.47-.1-.19-.15-.36-.23-.49-.1-.16-.23-.29-.35-.42s-.26-.25-.4-.36-.3-.19-.47-.27-.31-.18-.49-.24c-.17-.05-.34-.15-.52-.19-.17-.03-.37.03-.56.02-.11,0-.21-.13-.21-.24,0-.21.04-.21.04-.42s0-.21,0-.42c0-.11.08-.18.19-.18.28,0,.28.03.56.03s.28-.02.56-.02.28-.04.56-.04.28,0,.56,0,.28,0,.56,0,.28-.03.56-.03.28.09.56.09.28-.04.56-.04.28-.04.56-.04.28.09.56.09.28-.06.56-.06.28-.04.56-.04.28,0,.56,0,.28.04.56.04.28.03.56.03.28-.06.56-.06.28.02.56.02.28.06.56.06.28-.06.56-.06.28-.01.56-.01c.11,0,.18.11.18.22,0,.21.02.21.02.42s.02.21.02.42c0,.11-.11.17-.22.17-.23,0-.43.04-.63.05-.23.02-.44.05-.62.08-.25.04-.46.05-.62.11-.19.07-.36.14-.49.23-.15.12-.21.3-.28.46-.06.15-.15.32-.15.52,0,.28.06.55.15.81.05.16.1.34.17.54.05.16.16.32.23.52.1.26.04.28.14.54s.13.25.23.51.14.24.24.5.03.29.13.54.18.23.28.49.05.28.15.54.11.25.21.51.07.27.17.53.14.24.24.5.09.26.18.52.13.25.23.5.05.28.15.54.16.24.26.49.08.27.18.52.08.27.18.53.06.27.16.53.13.25.23.51.13.25.23.51.1.26.2.52.1.26.2.52.11.25.21.51.08.27.17.53.15.24.25.5.1.26.2.52.05.28.14.54.06.27.16.53.18.23.28.49.02.29.12.55.19.22.29.48.06.27.16.53.08.27.18.52-.07.49.21.5.08-.25.17-.5.14-.24.23-.49.08-.26.18-.51.09-.25.19-.51.11-.25.2-.5.07-.26.16-.52.08-.26.18-.51.16-.23.25-.48.06-.27.16-.52.12-.24.22-.5.1-.25.2-.5.07-.26.16-.52.13-.24.22-.49.04-.27.14-.53.1-.25.19-.5.11-.25.2-.5.05-.27.14-.52.09-.26.18-.51.11-.25.2-.5.13-.24.23-.49.13-.24.22-.49.02-.28.11-.54.19-.22.29-.47.19-.25.19-.52-.17-.24-.27-.49-.07-.26-.17-.51-.1-.25-.19-.5-.1-.25-.19-.5-.06-.26-.16-.51-.14-.23-.24-.48-.04-.27-.13-.52-.11-.24-.2-.49-.1-.25-.2-.5-.12-.24-.22-.49-.06-.26-.15-.51c-.07-.17-.19-.3-.27-.45-.08-.16-.13-.34-.22-.47-.1-.15-.2-.3-.32-.42s-.29-.2-.43-.3-.3-.17-.46-.24c-.14-.06-.3-.15-.49-.19-.16-.04-.34,0-.53-.03-.16-.02-.33-.12-.52-.13-.17,0-.35.07-.53.07-.11,0-.24-.13-.24-.25,0-.21,0-.21,0-.42s.09-.21.09-.42c0-.11.04-.25.16-.25.28,0,.28.07.55.07s.28-.06.55-.06.28.07.55.07.28-.02.55-.02.28-.03.55-.03.28-.03.55-.03.28.1.55.1.28-.1.55-.1.28,0,.55,0,.28.06.55.06.28-.04.55-.04.28.03.55.03.28-.02.55-.02.28.02.55.02.28.04.55.04.28-.04.55-.04.28-.02.55-.02.28.02.55.02.28.06.55.06.28-.06.55-.06.28-.04.55-.04.28.01.55.01c.11,0,.17.13.17.24ZM89.13,82.56c-.21,0-.39,0-.55.02-.23.01-.4.04-.55.06-.35.05-.49.1-.53.13-.05.04-.14.18-.19.57-.02.16-.06.35-.06.61,0,.28-.03.28-.03.56s.01.28.01.56.07.28.07.56-.07.28-.07.56-.02.28-.02.56.07.28.07.56-.05.28-.05.56.03.28.03.56.05.28.05.56-.02.28-.02.56-.06.28-.06.56.04.28.04.56,0,.28,0,.56-.03.28-.03.56,0,.28,0,.56.02.28.02.56.04.28.04.56-.26.38-.06.57.3.03.59.02.29-.1.57-.1.29.02.57.01.29,0,.57,0,.29,0,.57,0,.29.03.58.03.29-.02.57-.03.29-.06.57-.06.29.05.58.04.29.02.58.02c.18,0,.36-.09.54-.1s.37.01.54,0,.36-.04.54-.07.36-.07.53-.1.36-.07.53-.12c.18-.05.34-.13.51-.19.17-.06.37-.05.53-.13.18-.08.35-.17.51-.27.17-.1.32-.22.46-.33s.33-.21.46-.34.25-.29.36-.44.21-.32.31-.48.13-.35.2-.53.19-.33.25-.51.11-.36.14-.55.02-.38.03-.57c.01-.18.06-.37.06-.57s-.06-.37-.07-.55c-.01-.19.04-.38.02-.56-.02-.19-.05-.37-.09-.55s-.15-.35-.2-.52-.11-.35-.18-.52-.12-.35-.21-.51-.19-.32-.3-.47-.26-.26-.39-.39-.28-.24-.42-.35-.26-.25-.42-.36-.3-.2-.47-.29-.31-.19-.49-.27c-.14-.06-.33-.1-.54-.16-.16-.04-.36-.02-.55-.06-.17-.03-.34-.12-.54-.15-.18-.03-.36-.02-.55-.05-.18-.02-.36-.01-.55-.03s-.36-.03-.55-.05-.36-.04-.55-.05-.36-.08-.55-.09-.37-.03-.55-.04-.37.05-.56.05-.37-.05-.55-.05-.37-.04-.55-.05-.37,0-.55,0ZM166.71,80.49c.18,0,.41-.04.59-.03s.35.08.53.09.36-.03.53-.02.35.07.53.08.35.06.53.08.36-.05.54-.03.34.13.52.15.36-.01.53.02.35.06.52.09.35.07.52.1.36.03.53.07.3.12.47.16c-.16-.08-.28-.14-.44-.23s-.28-.22-.43-.31-.32-.15-.47-.25-.32-.15-.47-.26-.24-.27-.38-.38-.29-.2-.43-.31-.25-.25-.38-.36-.29-.2-.42-.32-.27-.23-.39-.36c-.13-.14-.25-.29-.38-.43s-.19-.34-.31-.48-.32-.23-.43-.38-.15-.31-.25-.46c-.16.23-.07.26-.14.53s-.16.25-.24.52-.03.28-.11.55-.11.26-.19.53-.07.27-.15.54,0,.3-.12.55c-.12.27-.23.26-.22.54ZM142.58,98.83c.15-.23-.07-.26-.18-.51s-.15-.24-.26-.49-.09-.26-.2-.52-.1-.26-.21-.51-.15-.24-.26-.49-.1-.26-.2-.52-.06-.27-.17-.53-.13-.25-.24-.5-.09-.26-.19-.52-.1-.26-.21-.51-.14-.24-.25-.5-.09-.26-.2-.52-.14-.24-.24-.5-.02-.29-.12-.55-.1-.26-.21-.51-.11-.25-.22-.51-.13-.25-.23-.5-.07-.27-.18-.52-.17-.23-.28-.48-.04-.28-.15-.54-.17-.23-.27-.49-.06-.28-.16-.53.03-.5-.25-.5-.12.25-.23.51-.12.25-.22.51-.08.27-.18.52-.15.24-.26.49-.11.25-.22.51-.1.26-.21.51-.1.26-.2.52-.05.28-.16.53-.12.25-.23.5-.07.27-.18.52-.18.23-.28.48-.07.27-.18.53-.11.25-.22.51-.1.26-.21.51-.08.27-.18.52-.12.25-.23.5-.14.24-.25.5-.06.27-.17.53-.11.25-.22.51-.15.24-.26.49-.13.25-.23.5-.02.29-.13.55-.38.24-.23.48.25.01.52.01.27.02.54.02.27-.04.54-.04.27-.02.54-.02.27.07.54.07.27-.02.54-.02.27-.04.54-.04.27,0,.54,0,.27.06.54.06.27-.03.54-.03.27-.02.54-.02.27.06.54.06.27-.08.54-.08.27.06.54.06.27-.04.54-.04.27.06.55.06.27-.07.54,0c.29.07.39.19.54-.04ZM174.83,85.5c-.14-.12-.28-.24-.43-.35s-.29-.23-.44-.33-.33-.18-.48-.28-.3-.22-.45-.32-.33-.17-.49-.26-.3-.22-.47-.3-.35-.13-.52-.21-.33-.17-.5-.24-.34-.14-.52-.2-.35-.13-.52-.18-.36-.1-.53-.15-.36-.09-.54-.14-.34-.15-.52-.19-.36-.08-.54-.11-.37-.02-.55-.05-.36-.09-.55-.11-.37-.07-.55-.08-.37.05-.56.04-.37.02-.55.02c-.27,0-.27-.07-.55-.07s-.27,0-.55,0-.27.05-.55.05-.27,0-.55,0-.27-.07-.55-.07-.27.05-.55.05-.27,0-.55,0-.27-.04-.55-.04-.27,0-.55,0-.27.06-.55.06-.27,0-.55,0-.27-.02-.55-.02-.27,0-.55,0-.27,0-.55,0-.27-.02-.55-.02-.27.03-.55.03-.27.04-.55.04-.27.01-.55.01-.27,0-.55,0-.27,0-.55,0-.27-.08-.55-.08-.27.07-.55.07-.27-.07-.55-.07-.27.08-.55.08-.27-.04-.55-.04-.27-.01-.55-.01-.27.01-.55.01-.27-.03-.55-.03-.28.02-.55.02-.27.02-.55.02-.28-.04-.55-.04-.28-.02-.55-.02-.28,0-.55,0-.28.03-.55.03-.28.02-.55.02-.28-.02-.55-.02-.27-.01-.55-.01-.28.04-.55.04-.28-.02-.55-.02-.28,0-.55,0-.28,0-.55,0-.27-.03-.55-.03-.28.05-.55.05-.28-.03-.55-.03-.36-.18-.51.05.03.25.14.5.13.24.24.5.15.24.26.49.08.27.19.52.13.25.24.5.14.24.25.49.13.25.24.5.08.27.19.52.06.28.17.53.15.24.26.49.1.26.21.51.09.26.2.52.15.24.26.49.1.26.22.51.13.25.24.5.11.25.23.5.05.28.16.53.12.25.23.5.13.25.24.5.17.23.28.48.06.27.17.53.15.24.26.49.1.26.22.51.09.26.21.51.16.23.27.49.05.28.16.53.11.25.22.51.15.24.26.49.08.27.19.52.11.25.22.5.17.23.29.48.05.28.16.53.14.24.26.49.06.28.17.53.13.24.25.5.12.25.23.5.14.24.25.5.08.27.19.52.14.24.25.49.07.27.18.53.11.25.22.51.14.24.26.49.11.25.22.51.15.23.26.49.07.27.18.53.12.25.23.5.07.27.18.53c.07.16.2.29.27.44.07.16.14.32.21.46.08.16.15.31.23.46.08.16.12.34.19.48.09.16.23.28.31.41.1.16.2.29.29.41.12.17.16.36.26.45.13.11.32.15.47.24s.3.17.47.23.34.04.52.07.34.12.51.13.35-.08.52-.09.35.01.52-.02.33-.13.49-.19.37-.03.52-.11c.16-.08.28-.22.41-.33.14-.12.25-.26.34-.42s.17-.32.22-.5.07-.35.09-.53.04-.36.05-.54-.03-.37-.03-.54c0-.19.08-.37.08-.54,0,0-.09-.2-.09-.55,0-.16.03-.34.03-.55s.06-.35.06-.55-.05-.36-.05-.55.05-.36.05-.55c0-.18-.02-.36-.02-.55,0-.18,0-.36,0-.55s0-.36,0-.55-.07-.37-.07-.55.03-.37.03-.55.04-.37.04-.55-.05-.37-.05-.55.03-.37.03-.55-.01-.37-.01-.55c0-.18-.01-.37-.01-.55s.06-.37.06-.55-.07-.37-.07-.55c0-.18.07-.37.07-.55s-.05-.37-.05-.55c0-.18-.03-.37-.03-.55s.03-.37.03-.55.06-.37.06-.55c0-.19,0-.37,0-.55s-.02-.37-.02-.55-.02-.37-.02-.55c0-.19.02-.37.02-.55s-.04-.37-.04-.55.04-.37.04-.55c0-.19-.03-.37-.03-.55s.03-.37.03-.55.01-.37.01-.55-.09-.37-.09-.55.02-.37.02-.55c0-.19.03-.37.03-.55,0-.19-.06-.38-.06-.55,0-.19.09-.38.09-.55,0-.2,0-.38,0-.55,0-.2-.07-.39-.07-.55,0-.21-.03-.4-.03-.55,0-.36.1-.28.1-.55,0-.11.05-.25.16-.25.29,0,.29.08.58.08s.29-.05.58-.05.29-.02.58-.02.29.02.58.02.29,0,.58,0,.29.06.58.06.29-.06.58-.06.29.01.58.01c.11,0,.23.09.23.21,0,.27-.07.27-.07.55s.04.27.04.55.03.27.03.55.01.27.01.55-.04.27-.04.55.06.27.06.55-.06.27-.06.55.06.27.06.55-.01.27-.01.55-.06.27-.06.55.02.27.02.55.05.27.05.55,0,.27,0,.55-.04.27-.04.55,0,.27,0,.55.04.27.04.55-.07.27-.07.55,0,.27,0,.55-.04.27-.04.55.03.27.03.55.04.27.04.55.02.27.02.55-.04.27-.04.55,0,.27,0,.55.05.27.05.55-.05.27-.05.55.05.27.05.55.01.27.01.55-.08.27-.08.55.04.27.04.55-.02.27-.02.55.02.27.02.55,0,.27,0,.55.03.27.03.55-.02.27-.02.55-.04.27-.04.55-.02.27-.02.55.04.27.04.55.04.27.04.55,0,.27,0,.55-.06.27-.06.55,0,.27,0,.55.07.27.07.55c0,.17.02.32.04.47.03.18.02.33.08.46.07.16.17.27.3.35.09.06.25.11.51.17.14.03.31.1.53.12.16.02.34.07.54.08.17,0,.35,0,.55,0s.38-.03.56-.03.38,0,.56,0,.38,0,.56,0,.37-.07.56-.09.38-.03.56-.05.37-.06.56-.09.38-.03.56-.07.36-.13.54-.17.37-.08.55-.13.39-.02.56-.07.34-.18.51-.24.36-.12.53-.18.36-.12.53-.2.33-.18.5-.26.37-.11.53-.2.3-.23.46-.33c.16-.1.34-.15.49-.26s.31-.2.46-.31.28-.25.41-.36.26-.26.39-.39.28-.24.41-.37.19-.32.31-.46.23-.28.34-.43.21-.3.31-.45.23-.29.32-.45.15-.34.23-.5.16-.33.23-.49.2-.31.27-.48.18-.32.24-.5.07-.36.12-.54.14-.34.19-.52.06-.36.1-.54.1-.35.13-.53.04-.36.06-.55,0-.37.02-.55.06-.36.08-.54-.01-.37,0-.55.01-.36.02-.55.06-.36.06-.55-.04-.37-.05-.56-.03-.37-.04-.56-.03-.37-.04-.56.04-.38.01-.56-.04-.37-.07-.56-.05-.37-.08-.55-.1-.36-.14-.54-.09-.36-.14-.54-.11-.36-.17-.53-.13-.35-.19-.53-.16-.34-.23-.51c-.07-.17-.13-.34-.21-.5s-.12-.35-.2-.51-.15-.33-.24-.49-.25-.27-.35-.42-.21-.3-.31-.44-.21-.29-.32-.43-.22-.29-.34-.42-.24-.27-.37-.4-.26-.25-.4-.37-.27-.23-.42-.35ZM186.75,77.54c.12-.14.25-.27.37-.42s.19-.32.29-.48.2-.31.29-.47.2-.31.29-.48.13-.35.2-.52.1-.36.17-.53.16-.33.21-.51.13-.35.18-.53.07-.36.12-.55.11-.35.15-.54.05-.37.09-.55.03-.37.06-.55.12-.35.14-.54.08-.36.1-.55.03-.37.05-.56.04-.37.05-.55.02-.37.03-.56-.09-.37-.08-.56.04-.37.05-.55,0-.37,0-.56,0-.37-.01-.56.07-.38.07-.56-.08-.37-.09-.56.02-.38,0-.56-.06-.37-.08-.55-.01-.38-.03-.56-.04-.37-.06-.56-.11-.36-.14-.54-.02-.38-.05-.56-.09-.36-.13-.54-.06-.37-.1-.55-.08-.37-.14-.54-.08-.37-.14-.54-.17-.34-.23-.51-.16-.34-.23-.51-.16-.34-.24-.5-.15-.35-.24-.51-.19-.33-.29-.48-.23-.3-.34-.44-.2-.32-.32-.46c-.12-.14-.27-.25-.39-.39s-.27-.25-.4-.37-.27-.24-.41-.36-.26-.26-.41-.36-.29-.23-.44-.33-.31-.19-.47-.28-.31-.19-.48-.27-.33-.15-.5-.22-.36-.09-.53-.14-.33-.16-.51-.21-.35-.11-.53-.15-.36-.05-.54-.08-.37.03-.55.01-.36-.09-.54-.09-.38,0-.56,0-.38.02-.56.04-.37.06-.55.09-.36.12-.54.16-.36.11-.53.17-.34.15-.51.22-.37.08-.54.17-.29.25-.45.35-.36.12-.52.23-.27.26-.42.38-.32.19-.46.32-.28.25-.41.38-.2.32-.32.46-.28.25-.4.39c-.12.14-.18.32-.29.47s-.24.28-.34.43-.24.28-.33.45-.17.33-.25.49-.15.33-.23.51-.15.33-.22.51-.08.36-.14.54-.12.35-.17.52-.06.36-.11.54-.09.35-.13.53-.06.36-.1.54-.11.35-.14.54-.03.36-.06.55-.02.36-.04.55-.06.36-.08.55-.1.36-.11.54,0,.37,0,.55.01.37,0,.55.01.37,0,.55-.06.37-.06.55-.04.37-.04.55.06.37.07.55-.04.37-.03.55.03.37.05.55.05.37.07.55.02.37.04.55.04.37.06.55.08.36.11.54.03.37.06.55.16.34.2.52.04.37.08.55.15.34.2.52.04.37.1.55.11.35.18.52.12.35.2.52.15.34.23.5.21.31.29.47.17.33.26.49.23.29.34.44.21.31.32.45c.12.15.27.26.39.4s.26.27.39.4.24.29.38.41.25.29.39.4.31.22.46.32.3.23.46.32.36.12.53.2.31.22.48.29.35.12.53.18.36.08.54.13.36.1.54.13.37.04.55.06.36.13.55.14.37-.06.56-.06c.18,0,.35,0,.53-.02s.36.04.54.02c.2-.02.42-.08.65-.12.18-.03.36-.06.53-.1.17-.05.32-.2.49-.26s.33-.13.5-.2.35-.1.51-.19.3-.19.46-.29.35-.12.5-.23.26-.26.4-.37.29-.21.43-.33.3-.21.43-.34.26-.25.39-.38.23-.28.35-.42ZM184.23,64.97c-.03-.07-.12-.16-.2-.16-.03,0-.24.02-.55-.05-.16-.03-.33-.09-.53-.16-.16-.06-.32-.15-.49-.24-.16-.08-.33-.14-.49-.25-.15-.1-.32-.18-.46-.31-.13-.12-.24-.28-.35-.43-.11-.14-.2-.3-.3-.46-.09-.15-.2-.3-.27-.48-.07-.16-.1-.35-.15-.53-.05-.17-.11-.35-.14-.54-.03-.17-.09-.36-.1-.55-.01-.18.04-.37.04-.56,0-.11-.1-.25-.22-.25s-.24.14-.24.25c0,.19-.02.37-.03.55-.01.19-.04.37-.06.55-.03.19.03.39-.02.56-.05.19-.15.35-.21.52-.07.18-.15.35-.24.5-.1.17-.2.33-.31.47-.12.15-.3.23-.43.35-.14.13-.24.3-.39.4-.16.11-.34.17-.5.25-.18.09-.33.19-.5.25-.2.07-.38.1-.54.13-.3.07-.51.07-.55.07-.07,0-.11.08-.14.15-.03.07-.06.13,0,.19,0,0,.15.15.35.43.09.13.18.29.3.46.1.14.19.3.3.46.1.14.17.31.27.48.09.15.23.28.33.44.09.15.2.3.3.46s.18.31.27.48.15.33.23.5.16.33.24.5.18.32.25.49.1.35.17.52.16.33.22.5.14.34.19.52.12.35.17.53.07.36.11.54.06.36.1.54.07.36.09.54.03.37.04.55.02.37.02.55c0,.11.1.16.21.16s.21-.05.21-.16c0-.18.03-.36.05-.55s.02-.36.04-.55-.01-.37.02-.55.14-.34.19-.52.09-.35.14-.53.11-.35.17-.52.11-.35.17-.52.09-.36.16-.53.13-.34.21-.51.13-.35.21-.51.23-.3.31-.46.09-.37.18-.53.26-.28.34-.44c.09-.16.14-.35.23-.5.1-.16.24-.29.33-.44.1-.16.2-.32.3-.46.11-.17.14-.37.24-.5.12-.17.26-.3.35-.42.2-.28.28-.46.29-.47.05-.07.12-.13.09-.19ZM208.37,102.81c-.32,0-.32-.02-.63-.02s-.32.03-.63.03c-.08,0-.17.05-.2.12-.08.18-.19.33-.27.5s-.14.36-.22.52-.14.36-.23.52-.22.32-.32.47c-.1.17-.22.32-.32.47-.11.16-.2.33-.31.48-.12.15-.26.28-.38.42-.13.15-.24.3-.37.43-.14.14-.26.29-.4.41-.15.12-.34.18-.5.28-.16.1-.34.16-.51.24-.17.08-.34.15-.52.22-.17.06-.35.11-.54.16-.18.05-.36.1-.55.14-.18.04-.34.18-.54.21-.18.03-.38.03-.57.06-.18.03-.37.06-.56.08s-.37.05-.57.07-.38-.05-.57-.03-.37.09-.56.1-.38-.02-.57-.02-.38.04-.57.05-.38-.02-.57-.02-.38,0-.56,0c-.2,0-.38.05-.56.05-.2,0-.38-.05-.56-.05-.2,0-.39.01-.56,0-.2,0-.39-.04-.56-.04-.2,0-.39-.03-.56-.03-.21,0-.39-.05-.56-.06-.22-.01-.41.02-.56,0-.27-.03-.45-.04-.56-.07-.19-.05-.36-.17-.47-.32-.1-.14-.14-.33-.18-.54-.03-.16-.04-.35-.04-.56,0-.28-.02-.28-.02-.55s.04-.28.04-.55-.03-.28-.03-.55-.01-.28-.01-.55,0-.28,0-.55.03-.28.03-.55.02-.28.02-.55-.01-.28-.01-.55,0-.28,0-.55,0-.28,0-.55-.05-.28-.05-.55.05-.28.05-.55.03-.28.03-.55-.01-.28-.01-.55-.07-.28-.07-.55.08-.28.08-.55,0-.28,0-.55c0-.11-.13-.26-.24-.26-.29,0-.29,0-.58,0s-.29.04-.58.04-.29,0-.58,0-.29.02-.58.02-.29-.07-.58-.07-.29.09-.58.09-.29-.09-.58-.09-.29.06-.58.06c-.11,0-.25.09-.25.2,0,.27,0,.27,0,.54s.09.27.09.54-.05.27-.05.54.05.27.05.54-.04.27-.04.54-.06.27-.06.54,0,.27,0,.54,0,.27,0,.54-.01.27-.01.54.05.27.05.54,0,.27,0,.54.04.27.04.54,0,.27,0,.54.01.27.01.54-.04.27-.04.54c0,.22.02.44,0,.64-.01.22,0,.44-.02.65-.02.22-.07.42-.11.61-.05.23-.16.4-.23.57-.09.23-.17.41-.29.53,0,0,0,.04,0,.04,0,0,0,.02,0,.03-.1.09-.29.13-.51.23-.14.06-.32.08-.53.14-.16.05-.32.15-.51.19-.16.04-.35.02-.55.05-.17.03-.34.07-.54.09-.17.02-.35.07-.54.08-.1.01-.21.11-.21.22,0,.21,0,.21,0,.42s.03.21.03.42c0,.11.1.25.22.25.27,0,.27-.09.54-.09s.27.05.54.05.27-.06.54-.06.27.07.54.07.27,0,.54,0,.27.01.54.01.27,0,.54,0,.27-.04.54-.04.27.02.54.02.27-.04.54-.04.27.02.54.02.27-.04.54-.04.27,0,.54,0,.27.04.54.04.27.06.54.06.27-.02.54-.02.27.02.54.02.27-.08.54-.08.27.06.54.06.27-.02.54-.02.27-.04.54-.04.27.01.54.01.27-.03.54-.03.27.09.54.09.27-.07.54-.07.27,0,.54,0,.27.07.54.07.27-.02.54-.02.27.02.54.02.27-.1.54-.1.27,0,.54,0,.27.05.55.05.27-.03.54-.03.27.08.54.08.27-.07.55-.07.27.02.55.02.27.04.54.04.27,0,.55,0,.27-.05.55-.05.27,0,.55,0,.27,0,.55,0,.27-.04.54-.04.27.03.55.03.27-.02.55-.02.27.05.55.05c.09,0,.14-.08.17-.17.07-.27.09-.27.17-.54s.07-.28.14-.55.07-.27.14-.55.06-.28.13-.55.06-.28.14-.55.13-.26.21-.53.08-.27.15-.55.04-.28.11-.56.11-.26.19-.54.1-.27.18-.54,0-.29.08-.56.05-.28.12-.55.14-.26.21-.53.08-.27.15-.55c.02-.06-.04-.11-.08-.16-.04-.05-.07-.12-.14-.12Z"/>
</svg>