<?xml version="1.0" encoding="UTF-8"?>
<svg id="Layer_1" xmlns="http://www.w3.org/2000/svg" version="1.1" viewBox="0 0 288 162">
  <!-- Generator: Adobe Illustrator 30.6.0, SVG Export Plug-In . SVG Version: 2.1.4 Build 109)  -->
  <defs>
    <style>
      .st0 {
        fill: #fff;
        stroke: #000;
        stroke-linejoin: round;
      }

      .st1 {
        fill: #f7fbea;
      }
    </style>
  </defs>
  <rect class="st1" width="288" height="162"/>
  <g>
    <g>
      <g id="_x36_4f3wQ">
        <g>
          <path d="M77.59,52.9v.94c-.05-.14-.08-.31-.07-.45,0,0,.07-.49.07-.49Z"/>
          <path d="M94.13,61.15l1.26-.17c-.07.99-.2,1.95-.59,2.88-.66,1.57-2.23,2.37-3.91,1.92-2.5-.68-3.92-3.79-4.16-6.3.03-.04.19-.17.19-.17,0,0-.11-.07-.27-.18-.04-.88.01-1.81.15-2.69l.35-.11s-.16-.23-.17-.28c.15-.72.71-1.8,1.34-2.38,1.36-1.26,3.35-1.2,4.59.19,1.14,1.27,1.81,2.88,1.95,4.7l-5.4.99c.31,1.81.88,5.1,2.27,5.37.55.11,1.16-.09,1.53-.54.34-.42.48-.95.64-1.48l.22-.7-.02-1.03.03-.02ZM92.38,57.93c-.63-.45-.27-.93-.39-1.26l-.53-1.41c-.22-.58-.46-1.38-1.14-1.58-1.13-.33-1.34,3.04-.95,4.82l3-.58h0Z"/>
        </g>
      </g>
      <path d="M113.43,104.79l.3-1.49.52-.26-.42-.09c-.1-.02-.09-.16-.12-.32l-.1-.94.04-3.15-.02-1.89.07-2.23-.07-.89.06-2.79-.06-1.78.16-.76.86-.46-.55-.08c-.08-.01-.13.18-.29.34-.06,0-.16-.47-.08-.57s.32-.16.54-.24c0-.07-.06-.22-.12-.18l-.43.33c-.14-.67-.1-1.43-.07-2.21l.06-1.33-.12-2.62c0-.06.03-.28.07-.28h.24c.07,0,.05.1.04.29l.34-.2c.09-.05-.07-.38-.17-.37l-.49.04v-1.83c.01-.21.07-.54.11-.73-.08-.64-.09-1.38,0-2.01-.05-.16-.16-.53-.15-.7l.13-2.07-.13-.85c-.07-.47-.16-.96-.46-1.21-.54-.44-1.46-.56-2.15-.44l.1,4.29-.02,3.02-1,.03.1-.39c.02-.08-.07-.13-.25-.27l-.21-1.24-.37-1.66c-1.14-2.38-2.58-3.93-5.5-3.5-.36.05-.37.73-.37,1.01v6.27s-.01,2.64-.01,2.64l.02,2.01v4.53l-.02,3.02.02,2.39v7.29l.14,3.96c.04,1.24,1.52,1.71,2.96,1.46l.11,1.14h-2.35l-3.54-.03-3.26.03-2.18-.02.06-1.08c.64,0,1.32.03,1.92-.14.69-.2.74-1.31,1.15-1.74-.11.11-.41-.89-.1-1.9-.1-.74-.09-1.53.06-2.35-.07-.27-.22-.76-.2-1.07l.14-3.5v-1.4c0-.48-.08-.92-.07-1.41l.04-2.4.05-3.39c.07-.06.29-.23.23-.26l-.35-.21.03-6.06c.06-.34.07-.65.06-.99l-.03-1c-.06-1.86-.05-3.72.03-5.61l.05-1.14c-2.73-.51-4.63.55-5.77,3.1-.57,1.27-.7,2.63-.92,3.95l-1.05-.07.06-1.1.25-.14s-.16-.11-.3-.17l.1-3.92c.01-.42-.17-1.04.1-1.48l-.16-.57c-.03-.12-.43,0-.56,0-2.53.06-2.33,3.24-2.35,5.48l-.02,2.02v5.53l.02,3.65v5.91l-.02,3.52v7.67s.05,2.25.05,2.25h-1.64l-1.09-2.14-1.69-3.39-1.63-3.16-.55-1.21c-.11-.25-.19-.51-.18-.73l-.35-.18c-.09-.05-.06-.38-.12-.48l-.91-1.64-.55-1.18c-.2-.43-.45-.9-.5-1.29-.19-.13-.4-.35-.49-.55l-.52-1.19-.47-.96-1.25-2.4-.62-1.13-2.57-5.23-.61-.99c-.17.78-.07,1.29-.08,1.98l-.02,2.38.03,5.28.02,2.02-.02,6.41.02,6.12c0,.63.17,1.47.58,1.9.62.67,1.49.68,2.38.72v1.06h-15.83l-3.41.05c.24-.45.23-.61.02-1.08.66.02,1.43.07,1.99-.31.5-.35.71-.98.78-1.51l.12-.85.47.38-.16-.31c-.04-.07.06-.13.21-.34l-.49.13-.11-.84.72-.5-.68-.12c-.13-.53,0-.93.67-1.26l-.66-.35-.04-1.15h.55l-.17-.35c-.04-.07.17-.2.19-.2-.38-.13-.49-.35-.5-.67l-.03-.97.43.29-.49-.61.02-2.09.67.18-.52-.41c-.1-.08-.12-.47-.09-.47l.28.22s.11.06.16.08.09-.23.04-.24c-.14-.01-.57-.09-.53-.22l.16-.52-.13-.67.39.2c.08.04.29-.08.24-.16l-.23-.36c-.04-.07-.19.08-.38.2v-3.27s.3-.64.3-.64l-.3.29c-.2-.38-.08-.96.23-1.36-.11-.14-.34-.45-.3-.58.04-.15.17-.36.26-.49-.08-.12-.22-.49-.21-.68l.04-1.22c.08.03.33.12.37.05.05-.09.11-.33.1-.43,0-.11-.27-.23-.43-.05.02.09-.05-.2-.08-.29s.27-.19.39-.22l-.2-.31c-.06-.09.12-.25.21-.36l-.41.09-.02-3.02c0-.07-.03-.3.03-.31l.43-.13-.49-.27.09-1.98.03-1.9c0-.29.03-.53.1-.74-.3-.34-.14-.75.02-1.04-.19-.79-.32-2.1.2-2.47-.16-.08-.4-.37-.4-.52l.05-1.42c0-.3.07-.47.25-.81.02,0-.32.04-.28-.04l.2-.44c-.12-.25-.22-.63-.22-.96v-2.17l.06-1.7c0-.06.06-.23.08-.28s.17-.08.2-.04l.19.33.1-.36c.03-.12-.72-.06-.62-.26l.18-.37c.33-.66-.23-.84-.11-1.04l.19-.31c-.07-.04-.32-.23-.27-.29l.25-.37c-.23-.12-.24-.2,0-.2l.33-.03c.09,0,0-.37-.11-.42-.3-.17-.77-.18-1.12-.06-4.4,1.54-8.25,4.03-8.69,8.95-.16,1.87.31,3.59,1.43,5.07.62.81,1.25,1.44,2.17,1.9.97.49,1.94.81,3.13.9-.75.88-1.81.93-2.85.96-2.24.07-4.42-.72-5.86-2.46l-.58-.7c-.52-.64-1.14-2.23-.95-2.23h.26c-.12-.22-.27-.46-.2-.56l.17-.25c.04-.06,0-.14-.08-.32-.17,0-.14,0,.02,0,.09-.08.2-.18.18-.23l-.15-.29c-.04-.08-.17.15-.24.27-.11-.03-.3-.1-.29-.18.02-.1.06-.35.05-.3.24.28.31.35.26.3l.25-.54c.05-.11-.25-.37-.28-.29v.42s-.17-.05-.32-.09c-.05-.54.06-1.4.22-2.02.1,0,.38.11.42.03l.16-.38-.31.1c-.07.02-.15-.02-.32-.14l.76-.58-.34-.36c-.07-.07.12-.33.16-.45.34-1.03,1.02-1.94,1.77-2.74,1.05-1.13,2.23-1.89,3.59-2.59,1.01-.52,1.98-.99,3.08-1.34l3.62-1.15,3.51-1,4.16-1.37.37,1.01-1.93.97c-.41.21-.44.88-.44,1.31l-.02,3.16v17.72l.02,3.78v3.52l-.02,2.14v10.56c.02,2.11-.35,6.08,1.17,6.28,1.2.15,2.38.11,3.54-.07.8-.12,1.51-.75,1.55-1.53.02-.28.08-.56.17-.75l-.13-.82.7.39c-.09-.22-.26-.34-.62-.47l-.04-.74.5.06c-.45-.22-.54-.57-.49-1.09l.09-1.04-.13-.29c-.03-.07.11-.21.18-.19l.42.1-.66-.81.22-.28c.04-.05-.08-.17-.16-.26l.06-3.36c0-.23.01-.37,0-.61l-.13-2.84c0-.21.13-.55.24-.72-.37-.09-.33-.78.05-.93-.07-.06-.23-.18-.23-.27v-1.13c0-.16.29-.25.53-.37l-.38-.08c-.11-.02-.06-.32-.06-.43l-.07-2.92c-.01-.4.1-.73.38-1.05-.13-.06-.43-.38-.41-.55s.24-.36.4-.5l-.24.08c-.05.02-.18-.04-.16-.09l.19-.38c.27-.17.2-.13-.13.07l-.06-.98c0-.08.04-.37.07-.44.04-.1.22-.03.44.02,0-.05.02-.26.02-.23l-.41.06c-.07,0-.07-.21-.07-.3l.09-1.64-.22-1.66c-.02-.19.18-.58.28-.7-.05-.1-.24-.54-.16-.66l.39-.57-.32.11-.4-2.15c-.04-.2.29-.18.12-.24-.68-.24-.37-1.85-2.82-1.61v-1.08l6.71.11,2.43,5.09,1.56,3.21,2.33,4.81,1.41,2.87.84,1.69,1.33,2.83,2.11,4.27.13-1.13c.32-.17.5-.28.55-.36-.62-.19-.52-.64-.56-1.18,0-.28.29-.31.31.09.03.14.31-.02.17-.13l.12-.66s-.21,0-.22.06l-.04.29c-.11-.02-.36-.05-.35-.16l.02-.5-.07-1.28s.23-.24.26-.23c.05.03-.08-.04-.27-.15l.6-.11-.47-.35c-.11-.09-.12-.58-.02-.53l.3.17s.09-.17.05-.19l-.33-.18c.12.07-.23-1.01-.17-1.57.01-.1.37-.21.51-.26l-.53-.11.16-.58c-.12-.03-.16-.42-.12-.56l.29.27c.06.05.25-.25.17-.28l-.43-.17c-.09-.03-.01-.41.02-.4l.27.26c.06.05.25-.04.25-.12,0-.11,0-.45,0-.41l-.19.27s-.1-.08-.13-.11.01-.11.08-.25l-.26-.06c-.08-.02-.11-.36-.09-.44l.11-.59.23.27s.22.07.2.02c-.19-.43-.6-.44-.5-.63l.31-.62c-.02-.18-.07-.22-.2.1-.03.03-.18-.36-.11-.46l.21-.29c-.17-.17-.24-.49-.24-.8v-3.18c0-.07-.02-.21.02-.21l.3.02-.32-.38v-3.3c-.08-.87-.34-1.8-1.08-2.38-.63-.5-2.06-.22-1.96-.44l.15-.34-.11-.58,4.34.03,2.62.02,6.79-.03h6.84s4.49.01,4.49.01l3.39-.02h2.77l5.11.03,5.58-.05,3.8.03v1.52l.03,2.46v4.45l-1.09-.04-.13-.71c-.03-.19.18-.49.33-.62.03-.03.08-.22.05-.19l-.26.25s-.26-.28-.29-.41.06-.38.14-.55l-.24-.21c-.07-.06.06-.22.1-.34.04-.15-.28-.41-.4-.54-1.12-2.63-2.53-3.87-5.42-3.76l-2.62.1v6.82l.02,3.04-.02,5.94,1.63-.03c.7-.01,1.48-.13,2.07-.6.65-.51,1.46-1.49,1.45-2.33v-1.7l1.14-.02v7.54l.02,3.99-1.16.02c.01-.25.03-.71.03-.7.24.04.4.07.37.02-.24-.4-.51-.38-.49-.51l.08-.5-.16-1.42c-.5-1.05-1.43-2.08-2.62-2.29l-2.29-.14-.08,3.52.03,2.02v7.14l.05,3.43c0,.43.38.95.82.98,1.64.11,3.19.08,4.83-.13,1.06-.62,1.89-1.5,2.49-2.56l.7-2.32.15-.73c.16-.79.29-1.45.3-2.29h1.15l-.04,1.25v2.65l-.03,4.53c.6-.02,1.17-.11,1.71-.24l.7-1.02c.08-.34.2-.55.4-.76-.06-.06-.32-.33-.26-.45l.25-.53c-.24-.67-.3-1.43,0-1.82-.13.14-.29-.11-.23-.31.04-.12.05-.17.39-.11.04.11-.04-.13-.06-.17-.17-.1-.35-.22-.39-.33-.05-.13.12-.41.31-.59-.51-.64-.19-1.48-.21-2.22l-.07-2.37-.02-1.92c0-.52.06-.94.52-1.12-.41-.3-.56-.75-.53-1.27l.11-1.66-.11-1.62.05-2v-3.42l.25-.22c.05-.05-.19-.2-.27-.27l.08-4.12c0-.58-.42-1.32.16-1.85-.11-.15-.2-.28-.25-.41s.18-.51.3-.63c.21-.25.11-.36-.13-.05.08.12-.18-.12-.14-.16l.23-.27c-.36-.18-.34-.9-.06-1.16.07,0,.33.13.34.06l.12-.49c-.13-.05-.2-.07-.17-.06l-.23.25c-.25.27-.4-1.51-1.6-1.66l-1.26-.16.09-.94,7.86.02c1.86,0,3.64-.08,5.45.28,2.82.56,4.91,2.42,6.01,5.08,1.73,4.2.06,9.55-3.74,12.29l.96,3.15.61,2.02.56,1.83.86,2.9,1.31,4.47.68,2.11c.38,1.18,1.46,1.82,2.71,1.86l-.02,1.12-2.94-.06c-2.2-.04-4.07.49-4.66-1.3l-.28-.86c-.21-.52-.35-1.05-.34-1.59l-.23-.25c-.11-.11.22-.16.07-.51l-.37-.86-1.06-3.98-.43-1.76c.26-.12.31-.24-.07-.15l-.46-1.5-.26-1.14-.54-2.09c-.19-.73-.69-1.58-1.43-1.62l-2.54-.13v11.71l-.03,2.27c0,.86.13,1.78.88,2.34.47.35,1.17.36,1.8.35l.12,1.09h-2.36l-2.01-.02h-3.51l-3.15.02-2.1.02-10.36-.03h-3.14l-2.14.03c.05-.4.05-.71-.06-1.06.67.12,1.59-.13,2.11-.52l.34-.16c.07-.03.04-.17.06-.34h-.02ZM144.08,78.48c-.09-.29,0-.52.25-.75-.42-.26-.34-.63-.43-1.1l-.25-1.28c-.23-.53-.4-.98-.49-1.51l.69.17-.37-.46c-.44.02-.65-.2-.89-.51-1.52-1.97-3.23-2.23-5.61-1.88v12.52l.04,3.89c.89.03,1.88.16,2.74-.03,2.9-.64,3.89-3.77,4.18-6.64.02-.18.21-.42.34-.49l-.31-.32c-.08-.08.22-.34.26-.36-.35-.3.09-.48-.15-1.27v.02Z"/>
      <path d="M202.63,93.75c-.14-.15-.25-.46-.25-.73v-1.79l.45-.19v-.15l-.46.16.04-1.19.4.4c0-.16-.02-.26,0-.32l.12-.32-.53.14-.06-.96h-7.86v14.99c0,.63.26,1.37.73,1.69s1.04.29,1.62.3v1.06h-9.82v-1.06c.41-.01,1.03-.02,1.46-.17,1.3-.44.91-2.14,1.22-2.26l.27-.1s0-.16-.05-.15l-.34.11v-5.06c.11-.1.24-.19.2-.26s-.22-.31-.22-.4l.03-2.42c.18.06.43.18.4.13l-.1-.23c-.03-.07.15-.2-.17-.04.02.07-.22-.16-.18-.22l.22-.36-.21-.43.04-7.9v-5.03l.56-.05-.49-.21c-.13-.06-.12-.53-.04-.65l.17-.23s-.08-.11-.17-.18l-.06-1.88c0-.42.12-.91.25-1.28l-.22-.41c-.06-.1.18-.33.23-.39-.07-.1-.23-.4-.23-.55v-2.51c-.02-.43-.22-1.05-.52-1.3-.57-.48-1.21-.51-1.94-.49v-1.04h9.64v1.02c-.54-.03-1.18.05-1.58.36-.33.26-.67.91-.67,1.48v14.59l8.22-.02c-.21-.29-.4-.54-.37-.7s.33-.32.48-.39c-.13-.03-.47-.13-.43-.22l.19-.41s-.23-.42-.23-.57l.02-3.07c0-.12.43-.39.49-.42l-.42-.24c-.12-.07-.02-.41-.02-.55v-1.3c0-.08.16-.03.36.02-.49-.25-.54-.86-.3-1.31l.27.17c.05.03.16-.12.17-.15-.13-.02-.56-.19-.56-.34l.02-2.08.02-2.29v-.65c-.02-.15.33-.24.45-.28l-.53-.06c-.2-1.27-1.14-1.59-2.45-1.58l-.02-.99h9.68l-.06,1.02c-.61-.02-1.16.01-1.61.39-.32.27-.64.92-.64,1.51v30.77c0,.7.19,1.48.65,1.9s1.08.37,1.73.35v1.08l-9.82.03v-1.08c.72.04,1.36,0,1.92-.43.38-.3.63-.93.64-1.42l.05-2.66.06-1.74c.35-.11.19-.17-.06-.16l-.03-3.78.68.31-.56-.51c-.12-.11-.05-.52-.07-.69-.04-.39,0-.72.21-.92v-.06Z"/>
      <path d="M225.24,96.54c.08-1.24-.17-2.65.18-3.78-.13-.41-.21-.99-.18-1.49l.57-.15c-.22-.06-.58-.15-.57-.3s.16-.42.24-.52c-.07-.09-.24-.47-.24-.66l.04-1.42-.04-4.59.68.15c-.34-.24-.58-.34-.67-.5-.11-.21.1-.7.26-.77l-.19-.16s.12-.16.19-.21c0,.01-.26-.26-.26-.35v-1.6l.14-1.91c.06-.73-.28-1.67-.03-2.6.1-.36-.28-1.2-.02-1.23l.3-.04-.36-.24c-.21-.14.26-.3.35-.95.02-.15-.17-.28-.41-.39,0-.83-.32-1.81-1.21-1.89l-1.44-.13.03-1h11.38c1.43.01,2.82.45,4.05,1.05,3.02,1.46,4.5,4.43,4.58,7.69.09,3.68-1.46,7.03-4.58,9.08-2.22,1.47-4.87,2.02-7.6,1.64v14.16c0,.65.2,1.42.58,1.83.56.59,1.31.55,2.11.49v1.09h-10.5l.02-1.06c.68.05,1.66,0,2.1-.62.21-.3.41-.55.63-.65l-.18-.25c-.06-.08.08-.26.12-.34-.09-.69-.05-1.33.02-2.06.04-.38-.35-.98.19-1.28-.23-.21-.27-.46-.24-.78v-.61c.27.03.47.07.49-.04.03-.17.08-.49.08-.49l-.29.26s-.3-.21-.3-.27v-1.66s.22-.25.25-.23c.04.03-.05-.03-.27-.19v-.03ZM237.54,80.62l-.18-.37s.12-.07.17-.07l.28.05c-.84-.54-.15-1.74-.46-3.26l-.39-1.91.48.28c-.05-.21-.26-.34-.54-.33-.47-2.21-2.22-3.93-4.52-3.91l-1.94.02v16.7l1.31.06c1.44.07,2.87-.54,3.77-1.66.51-.64.84-1.36,1.2-2.09.07-.08.23-.18.22-.26l-.03-.42.25-1.22c.03-.14.3-.37.36-.39-.1-.14-.32-.51-.25-.66l.28-.56h0Z"/>
      <path d="M174.29,70.86c-1.25-.3-2.18.18-2.59,1.26s-.42,2.03-.42,3.18v31.49h-1.62l-1.71-3.36-2.07-4.21-.21-.42-2.81-5.59-.25-.5-.83-1.62-3.35-6.69-.2-.42-2.7-5.24-.05,8.01-1.04-2.02-.43-.84c-.16-.31-.4-.85-.41-1.17l-.04-3.32c0-.14.14-.47.2-.54l-.21-.39c-.06-.11.15-.42.23-.4.32.15.43.01.29-.16l-.4.07c-.07.01-.08-.26,0-.26l.35.02-.45-.32v-2.87c0-.13.22-.43.23-.41-.43-.38-.46-1.09-.44-1.58l-.35-.59c-.54-.91-1.34-1.35-2.51-1.15l.03-1.05h6.69l12.05,24.77.11-.44c.03-.11.21-.15.34-.19l-.28-.22c-.08-.06-.05-.26-.06-.41l-.06-1.29.34-.2-.25-.5c-.04-.07-.08-.31-.02-.37l.38-.33-.31-.03s-.2-1.81-.03-2.99l-.05-1.05v-1.96c0-.19.37-.43.53-.45-.06-.07-.19-.19-.23-.16l-.29.2.04-1.83c0-.38-.3-.95.22-1.31-.16-.08-.31-.45-.24-.62l.43-.98-.5.46.11-1.59c0-.05-.03-.25.02-.26l.33-.06-.34-.26c-.07-.05-.03-.27-.03-.41l.02-1.52v-1.34c-.02-.93-.19-1.93-.66-2.74s-1.41-.99-2.41-.87l-.04-1.05h8.01l-.04,1.09h-.01Z"/>
      <path d="M172.8,103.74v-1.91l.02-2.15v-2.3l1.07.03c.29,3.01,1.52,6.44,4.16,8.02,1.14.68,2.45.8,3.8.33,2.47-.87,3.16-3.99,2.64-6.62l.45-.3v-.15l-.44.21-.77-2.28c-.84-1.81-2.09-3.38-3.46-4.87l-4.34-4.72c-1.72-1.87-3-4.11-3.43-6.62l-.11-.66c-.41-2.4.21-4.88,1.59-6.87,2.33-3.36,6.58-4.54,10.33-3.04.74.3,1.56.06,1.82-.69h1l-.02,8.3h-1.11c-.26-1.91-.83-4.14-2.06-5.43-1.79-1.88-4.76-1.86-6.4.13-1.12,1.35-1.45,3.14-1.18,4.85.54,3.48,3.07,5.9,5.36,8.37l2.79,3c.91.98,1.62,2.05,2.32,3.21,2.52,4.21,2.16,9.59-1.05,13.31-1.06,1.23-2.46,2.03-3.98,2.35-1.26.26-2.41.17-3.65-.19l-2.52-.74c-.75-.22-1.5.1-1.9.72l-.89.02-.06-3.07.34-.11s-.02-.15-.06-.15h-.26v.02Z"/>
      <path d="M213.66,88.08l.08-1c-.08-.54-.07-1.06,0-1.6l-.09-1.08c.39-.09.4-.1.31-.08l-.25-.33c-.04-.06,0-.21.03-.29-.1-.31-.05-.6.02-.92l-.05-.98-.05-1.88c0-.47.04-.78.44-1.14l-.32-.35s-.15-.77.16-1.04c-.02,0-.27-.35-.27-.5v-1.74l.42-.13-.29-.13c-.05-.02-.12-.22-.06-.21l.34.05c.09.01.21-.26.19-.29l-.46.09c-.12.02-.4-1.14.18-1.54l-.31-.2c-.06-.04.09-.21.12-.26l-.42-.8c-.44-.85-1.42-.96-2.33-.89v-1.04h10.18v1.02c-.62-.03-1.25.03-1.66.35-.33.26-.72.89-.72,1.5v26.61l.06,4.9c0,.92.75,1.55,1.63,1.58l.83.03-.06,1.06h-10.43v-1.05l1.23-.09c.98-.07,1.49-.95,1.51-1.88l.06-2.88v-.45c0-.12.22-.22.38-.3l-.42-.32.04-2.34.03-.92.41-.61s-.09-.18-.14-.15l-.31.21.02-5.95-.02-2.02v-.02Z"/>
      <path d="M86.77,64.94v.91h-4.59l.02-.88.92-.07v-1.24l.41-.14c-.12-.13-.26-.29-.33-.42v-.16l-.05-.99-.03-.55c-.01-.21.14-.63.23-.79-.33-.43-.27-.99.12-1.38-.1-.09-.24-.2-.22-.24l.12-.21c-.21-.26-.27-.71-.19-1.05.11-.02.24-.02.25-.07l.09-.29.05-.16s-.03-.16-.05-.14l-.33.25-.05-1.71-.03-.87-.58-.46c-.41-.33-1.01-.36-1.5-.13-.46.21-.77.76-.77,1.37v8.8c0,.15.04.55.18.57l.67.11-.02.83h-4.45l.05-.87.7-.08c.15-.01.18-.43.18-.59l.04-1.64-.02-3.63.11-.7c-.05-.48-.43-1.27.26-1.49-.4-.02-.43-.44-.43-.81s.12-.71.35-.89l-.33-.32c-.1-.11.11-.48.26-.6-.09-.08-.18-.21-.23-.36v-5.38l-.05-.45c-.01-.12-.35-.19-.48-.21l-.34-.03c-.09,0-.19.21-.19.3l.07,3.48h-.8l-.25-1.6c-.04-.07-.2-.22-.16-.3l.19-.52-.42.05c-.43-.91-1.36-1.44-2.38-1.21v16.05c.01.25.21.82.43.85l1.14.11v.87l-5.93-.04.04-.85.91-.05c.23-.01.45-.45.52-.78l.56.27-.49-.4c-.1-.08-.09-.41-.09-.57v-5.64s.54-.04.54-.04l-.44-.1c-.08,0-.16-.21-.12-.29l.14-.29c-.23-.61-.12-1.36-.11-2.04v-6.02c-.04-.08-.07-.24-.02-.27.07-.04.21-.12.3-.14l.27-.08s-.07-.22-.11-.2l-.34.21s-.07-.32-.11-.53c-.92-.26-1.98.24-2.39,1.2-.33.75-.46,1.49-.58,2.33h-.76l-.04-.81v-2.97c.01-.1.23-.3.2-.37l-.21-.41h14.19v4.39l-.05,2.09c.83-.55,1.67-.75,2.61-.69,1.75.11,3.01,1.36,3.02,3.14l.02,8.77c0,.27.63.38.92.26h-.02Z"/>
    </g>
    <path class="st0" d="M153.62,86.5s-.05.03-.05.06v23.53s.02.05.04.06c.03,0,.06,0,.07-.02l3.61-5.35,2.77,10.2s.03.05.06.05h.02l1.63-.44s.03-.01.04-.03c0-.01,0-.03,0-.05l-2.78-10.22,4.32,1.69s.05,0,.07-.01c.02-.02.02-.05,0-.07l-9.76-19.35s-.04-.04-.07-.03l.02-.02Z"/>
  </g>
</svg>