<?xml version="1.0" encoding="utf-8"?>
<!-- Generator: Adobe Illustrator 28.0.0, SVG Export Plug-In . SVG Version: 6.00 Build 0)  -->
<svg version="1.1" id="Layer_1" xmlns="http://www.w3.org/2000/svg" xmlns:xlink="http://www.w3.org/1999/xlink" x="0px" y="0px"
	 width="50px" height="50px" viewBox="0 0 50 50" style="enable-background:new 0 0 50 50;" xml:space="preserve">
<style type="text/css">
	.st0{fill:#2E2C70;}
</style>
<g>
	<polygon class="st0" points="27.3,18.2 27.3,29.9 28.7,31.4 29.7,30.3 29.7,18.6 28.3,17.2 	"/>
	<path class="st0" d="M25,0C11.2,0,0,11.2,0,25s11.2,25,25,25s25-11.2,25-25S38.8,0,25,0z M32.9,33.5l-2.8-2.8L26,35l-2.8-2.7
		l-4.2,4.2l-3.2-3.2V21.5l-1.9-1.9l3.2-3.2l2.8,2.8l4.2-4.2l2.8,2.8l4.2-4.2l3.2,3.2v11.7l1.9,1.9L32.9,33.5z"/>
	<polygon class="st0" points="20.3,19.7 20.3,31.4 21.7,32.8 22.7,31.8 22.7,20.1 21.3,18.6 	"/>
</g>
</svg>
