<?xml version="1.0" encoding="iso-8859-1"?>
<!-- Generator: Adobe Illustrator 26.0.3, SVG Export Plug-In . SVG Version: 6.00 Build 0)  -->
<svg version="1.1" id="Layer_1" xmlns="http://www.w3.org/2000/svg" xmlns:xlink="http://www.w3.org/1999/xlink" x="0px" y="0px"
	 width="50px" height="50px" viewBox="0 0 50 50" enable-background="new 0 0 50 50" xml:space="preserve">
<g>
	<polygon points="27.27,18.195 27.27,29.93 28.705,31.365 29.738,30.331 29.738,18.595 28.304,17.161 	"/>
	<path d="M25,0C11.193,0,0,11.193,0,25s11.193,25,25,25s25-11.193,25-25S38.807,0,25,0z M32.949,33.546l-2.767-2.767l-4.222,4.222
		l-2.787-2.747l-4.242,4.241l-3.21-3.21v-11.74l-1.881-1.881l3.21-3.21l2.767,2.767l4.241-4.242l2.767,2.767l4.242-4.242l3.21,3.21
		v11.74l1.881,1.881L32.949,33.546z"/>
	<polygon points="20.262,19.669 20.262,31.404 21.696,32.839 22.73,31.806 22.73,20.07 21.295,18.636 	"/>
</g>
<g>
</g>
<g>
</g>
<g>
</g>
<g>
</g>
<g>
</g>
<g>
</g>
</svg>
