<?xml version="1.0" encoding="utf-8"?>
<!-- Generator: Adobe Illustrator 23.0.2, SVG Export Plug-In . SVG Version: 6.00 Build 0)  -->
<svg version="1.1" id="Layer_1" xmlns="http://www.w3.org/2000/svg" xmlns:xlink="http://www.w3.org/1999/xlink" x="0px" y="0px"
	 width="87.4px" height="90px" viewBox="0 0 87.4 90" style="enable-background:new 0 0 87.4 90;" xml:space="preserve">
<style type="text/css">
	.st0{fill:#FFFFFF;}
</style>
<path class="st0" d="M7.4,77.4L19.9,90l0.1-0.1l0,0l16.5-16.5l10.8,10.8l0.1-0.1l0,0L64,67.6l10.8,10.8l12.6-12.6L80,58.5v-46
	L67.4,0L50.8,16.6L40,5.8l0,0L27.4,18.3l0,0l-4,4L12.6,11.5L0,24.1l7.4,7.4L7.4,77.4C7.4,77.4,7.4,77.4,7.4,77.4z M62.2,65.9l-4,4
	l-5.6-5.6V18.4l4-4l5.6,5.6L62.2,65.9L62.2,65.9z M34.8,71.6l-4,4l-5.6-5.6V24.1l4-4l5.6,5.6L34.8,71.6L34.8,71.6L34.8,71.6z"/>
</svg>
