<?xml version="1.0" encoding="iso-8859-1"?>
<!-- Generator: Adobe Illustrator 23.0.2, SVG Export Plug-In . SVG Version: 6.00 Build 0)  -->
<svg version="1.1" id="Layer_1" xmlns="http://www.w3.org/2000/svg" xmlns:xlink="http://www.w3.org/1999/xlink" x="0px" y="0px"
	 width="87.375px" height="90px" viewBox="0 0 87.375 90" enable-background="new 0 0 87.375 90" xml:space="preserve">
<path fill="#010101" d="M7.367,77.434l12.567,12.567l0.075-0.075l0,0l16.527-16.527l10.83,10.83l0.077-0.077l0,0l16.527-16.527
	l10.83,10.83L87.37,65.888l-7.362-7.362V12.567L67.44,0L50.834,16.606l-10.83-10.83l0,0L27.436,18.343l0,0L23.4,22.38l-10.832-10.83
	L0,24.117l7.362,7.362v45.955H7.367z M62.238,65.868l-4.048,4.048L52.573,64.3V18.359l4.048-4.048l5.616,5.616v45.941H62.238z
	 M34.802,71.644l-4.044,4.044l-5.616-5.616V24.131l4.046-4.046l5.616,5.616v45.942H34.802z"/>
</svg>