<?xml version="1.0" encoding="UTF-8"?>
<svg id="Layer_1" xmlns="http://www.w3.org/2000/svg" version="1.1" viewBox="0 0 288 162">
  <!-- Generator: Adobe Illustrator 30.6.0, SVG Export Plug-In . SVG Version: 2.1.4 Build 109)  -->
  <defs>
    <style>
      .st0 {
        fill: #c8c8c8;
      }
    </style>
  </defs>
  <rect class="st0" width="288" height="162"/>
  <path d="M126.8,90.92v13.26h2.6v-13.26h-2.6ZM130.7,90.92v13.26h1.29v-13.26h-1.29ZM134.59,90.92v13.26h1.3v-13.26h-1.3ZM141.08,90.92v13.26h1.29v-13.26h-1.29ZM151.46,90.92v13.26h1.29v-13.26h-1.29ZM155.35,90.92v13.26h1.3v-13.26h-1.3ZM163.13,90.92v13.26h1.3v-13.26h-1.3ZM176.11,90.92v13.26h1.3v-13.26h-1.3ZM180,90.92v13.26h1.3v-13.26h-1.3ZM183.89,90.92v13.26h1.3v-13.26h-1.3ZM191.68,90.92v13.26h1.3v-13.26h-1.3ZM198.17,90.92v13.26h1.29v-13.26h-1.29ZM202.06,90.92v13.26h1.3v-13.26h-1.3ZM212.44,90.92v13.26h1.3v-13.26h-1.3ZM215.03,90.92v13.26h1.3v-13.26h-1.3ZM238.39,90.92v13.26h1.3v-13.26h-1.3ZM240.98,90.92v13.26h2.6v-13.26h-2.6ZM220.22,90.92v13.26h2.6v-13.26h-2.6ZM226.71,90.92v13.26h2.6v-13.26h-2.6ZM233.2,90.92v13.26h3.89v-13.26h-3.89ZM186.49,90.92v13.26h2.59v-13.26h-2.59ZM205.95,90.92v13.26h5.19v-13.26h-5.19ZM157.94,90.92v13.26h2.6v-13.26h-2.6ZM169.62,90.92v13.26h5.19v-13.26h-5.19ZM143.67,90.92v13.26h5.19v-13.26h-5.19ZM44.42,90.91v13.27h77.19v-13.27H44.42ZM64.38,101.53h-14.65v-7.96h2.65v5.3h12v2.66ZM81.69,98.87v2.66h-14.65v-2.66h6v-2.65h-6v-2.65h14.65v2.65h-6v2.65h6ZM99,101.53h-2.66v-5.31h-9.34v5.31h-2.65v-7.96h14.65v7.96ZM116.31,101.53h-2.69v-2.66h-9.27v2.66h-2.69v-7.96h2.69v2.65h6.58v-2.65h2.69v2.65h2.69v5.31Z"/>
  <g>
    <polygon points="52.14 67.08 52.14 68.63 81.47 68.63 81.47 77.89 76.84 82.52 44.42 82.52 44.42 76.35 73.76 76.35 73.76 74.8 44.42 74.8 44.42 60.91 81.47 60.91 81.47 67.08 52.14 67.08"/>
    <polygon points="92.28 67.08 92.28 68.63 121.61 68.63 121.61 74.8 92.28 74.8 92.28 76.35 121.61 76.35 121.61 82.52 84.56 82.52 84.56 60.91 118.53 60.91 121.61 63.99 121.61 67.08 92.28 67.08"/>
    <polygon points="174.1 67.08 174.1 68.63 203.44 68.63 203.44 74.8 174.1 74.8 174.1 76.35 203.44 76.35 203.44 82.52 166.39 82.52 166.39 63.99 169.47 60.91 203.44 60.91 203.44 67.08 174.1 67.08"/>
    <polygon points="243.58 60.91 243.58 70.17 240.49 73.26 243.58 76.35 243.58 82.52 235.86 82.52 235.86 79.43 231.23 74.8 214.24 74.8 214.24 82.52 206.53 82.52 206.53 68.63 235.86 68.63 235.86 67.08 206.53 67.08 206.53 60.91 243.58 60.91"/>
    <polygon points="167.16 57.82 144 85.61 120.84 57.82 167.16 57.82"/>
  </g>
</svg>