<?xml version="1.0" encoding="UTF-8"?>
<svg id="Layer_1" xmlns="http://www.w3.org/2000/svg" version="1.1" viewBox="0 0 288 162">
  <!-- Generator: Adobe Illustrator 30.6.0, SVG Export Plug-In . SVG Version: 2.1.4 Build 109)  -->
  <defs>
    <style>
      .st0 {
        fill: #c8c8c8;
      }
    </style>
  </defs>
  <rect class="st0" width="288" height="162"/>
  <g>
    <g>
      <polygon points="52.14 67.08 52.14 68.63 81.47 68.63 81.47 77.89 76.84 82.52 44.42 82.52 44.42 76.35 73.75 76.35 73.75 74.8 44.42 74.8 44.42 65.54 49.05 60.91 81.47 60.91 81.47 67.08 52.14 67.08"/>
      <polygon points="92.28 67.08 92.28 68.63 121.61 68.63 121.61 74.8 92.28 74.8 92.28 76.35 121.61 76.35 121.61 82.52 84.56 82.52 84.56 60.91 118.53 60.91 121.61 63.99 121.61 67.08 92.28 67.08"/>
      <polygon points="174.11 67.08 174.11 68.63 203.44 68.63 203.44 74.8 174.11 74.8 174.11 76.35 203.44 76.35 203.44 82.52 166.39 82.52 166.39 63.99 169.47 60.91 203.44 60.91 203.44 67.08 174.11 67.08"/>
      <polygon points="243.58 60.91 243.58 70.17 240.49 73.26 243.58 76.35 243.58 82.52 235.86 82.52 235.86 79.43 231.23 74.8 214.25 74.8 214.25 82.52 206.53 82.52 206.53 68.63 235.86 68.63 235.86 67.08 206.53 67.08 206.53 60.91 243.58 60.91"/>
      <polygon points="167.16 57.82 144 85.61 120.84 57.82 167.16 57.82"/>
    </g>
    <g>
      <g>
        <rect x="126.8" y="90.92" width="2.6" height="13.27"/>
        <rect x="130.7" y="90.92" width="1.3" height="13.27"/>
        <rect x="134.59" y="90.92" width="1.3" height="13.27"/>
        <rect x="141.08" y="90.92" width="1.3" height="13.27"/>
        <rect x="151.46" y="90.92" width="1.3" height="13.27"/>
        <rect x="155.35" y="90.92" width="1.3" height="13.27"/>
        <rect x="163.13" y="90.92" width="1.3" height="13.27"/>
        <rect x="176.11" y="90.92" width="1.3" height="13.27"/>
        <rect x="180" y="90.92" width="1.3" height="13.27"/>
        <rect x="183.89" y="90.92" width="1.3" height="13.27"/>
        <rect x="191.68" y="90.92" width="1.3" height="13.27"/>
        <rect x="198.17" y="90.92" width="1.3" height="13.27"/>
        <rect x="202.06" y="90.92" width="1.3" height="13.27"/>
        <rect x="212.44" y="90.92" width="1.3" height="13.27"/>
        <rect x="215.03" y="90.92" width="1.3" height="13.27"/>
        <rect x="238.39" y="90.92" width="1.3" height="13.27"/>
        <rect x="240.98" y="90.92" width="2.6" height="13.27"/>
        <rect x="220.22" y="90.92" width="2.6" height="13.27"/>
        <rect x="226.71" y="90.92" width="2.6" height="13.27"/>
        <rect x="233.2" y="90.92" width="3.89" height="13.27"/>
        <rect x="186.49" y="90.92" width="2.6" height="13.27"/>
        <rect x="205.95" y="90.92" width="5.19" height="13.27"/>
        <rect x="157.94" y="90.92" width="2.6" height="13.27"/>
        <rect x="169.62" y="90.92" width="5.19" height="13.27"/>
        <rect x="143.67" y="90.92" width="5.19" height="13.27"/>
      </g>
      <path d="M44.42,90.91v13.27h77.19v-13.27H44.42ZM64.37,101.53h-14.65v-7.96h2.65v5.31h11.99v2.65ZM81.69,96.22h-6v2.65h6v2.65h-14.65v-2.65h6v-2.65h-6v-2.65h14.65v2.65ZM99,101.53h-2.65v-5.31h-9.34v5.31h-2.65v-7.96h14.65v7.96ZM116.31,101.53h-2.69v-2.65h-9.27v2.65h-2.69v-7.96h2.69v2.65h6.58v-2.65h2.69v2.65h2.69v5.31Z"/>
    </g>
  </g>
</svg>