<?xml version="1.0" encoding="UTF-8"?>
<svg id="Layer_1" xmlns="http://www.w3.org/2000/svg" version="1.1" viewBox="0 0 288 162">
  <!-- Generator: Adobe Illustrator 30.6.0, SVG Export Plug-In . SVG Version: 2.1.4 Build 109)  -->
  <defs>
    <style>
      .st0 {
        fill: #fff;
      }

      .st1 {
        fill: #ff0;
      }

      .st2 {
        fill: #c8c8c8;
      }
    </style>
  </defs>
  <rect width="288" height="162"/>
  <path class="st0" d="M126.8,90.92v13.26h2.6v-13.26h-2.6ZM130.7,90.92v13.26h1.29v-13.26h-1.29ZM134.59,90.92v13.26h1.3v-13.26h-1.3ZM141.08,90.92v13.26h1.29v-13.26h-1.29ZM151.46,90.92v13.26h1.29v-13.26h-1.29ZM155.35,90.92v13.26h1.3v-13.26h-1.3ZM163.13,90.92v13.26h1.3v-13.26h-1.3ZM176.11,90.92v13.26h1.3v-13.26h-1.3ZM180,90.92v13.26h1.3v-13.26h-1.3ZM183.89,90.92v13.26h1.3v-13.26h-1.3ZM191.68,90.92v13.26h1.3v-13.26h-1.3ZM198.17,90.92v13.26h1.29v-13.26h-1.29ZM202.06,90.92v13.26h1.3v-13.26h-1.3ZM212.44,90.92v13.26h1.3v-13.26h-1.3ZM215.03,90.92v13.26h1.3v-13.26h-1.3ZM238.39,90.92v13.26h1.3v-13.26h-1.3ZM240.98,90.92v13.26h2.6v-13.26h-2.6ZM220.22,90.92v13.26h2.6v-13.26h-2.6ZM226.71,90.92v13.26h2.6v-13.26h-2.6ZM233.2,90.92v13.26h3.89v-13.26h-3.89ZM186.49,90.92v13.26h2.59v-13.26h-2.59ZM205.95,90.92v13.26h5.19v-13.26h-5.19ZM157.94,90.92v13.26h2.6v-13.26h-2.6ZM169.62,90.92v13.26h5.19v-13.26h-5.19ZM143.67,90.92v13.26h5.19v-13.26h-5.19ZM44.42,90.91v13.27h77.19v-13.27H44.42ZM64.38,101.53h-14.65v-7.96h2.65v5.3h12v2.66ZM81.69,98.87v2.66h-14.65v-2.66h6v-2.65h-6v-2.65h14.65v2.65h-6v2.65h6ZM99,101.53h-2.66v-5.31h-9.34v5.31h-2.65v-7.96h14.65v7.96ZM116.31,101.53h-2.69v-2.66h-9.27v2.66h-2.69v-7.96h2.69v2.65h6.58v-2.65h2.69v2.65h2.69v5.31Z"/>
  <g>
    <polygon class="st0" points="52.14 67.08 52.14 68.63 81.47 68.63 81.47 77.89 76.84 82.52 44.42 82.52 44.42 76.35 73.76 76.35 73.76 74.8 44.42 74.8 44.42 60.91 81.47 60.91 81.47 67.08 52.14 67.08"/>
    <polygon class="st0" points="92.28 67.08 92.28 68.63 121.61 68.63 121.61 74.8 92.28 74.8 92.28 76.35 121.61 76.35 121.61 82.52 84.56 82.52 84.56 60.91 118.53 60.91 121.61 63.99 121.61 67.08 92.28 67.08"/>
    <polygon class="st0" points="174.1 67.08 174.1 68.63 203.44 68.63 203.44 74.8 174.1 74.8 174.1 76.35 203.44 76.35 203.44 82.52 166.39 82.52 166.39 63.99 169.47 60.91 203.44 60.91 203.44 67.08 174.1 67.08"/>
    <polygon class="st0" points="243.58 60.91 243.58 70.17 240.49 73.26 243.58 76.35 243.58 82.52 235.86 82.52 235.86 79.43 231.23 74.8 214.24 74.8 214.24 82.52 206.53 82.52 206.53 68.63 235.86 68.63 235.86 67.08 206.53 67.08 206.53 60.91 243.58 60.91"/>
    <polygon class="st1" points="167.16 57.82 144 85.61 120.84 57.82 167.16 57.82"/>
  </g>
  <g>
    <polygon class="st2" points="116.31 96.22 121.61 96.22 121.61 104.18 44.42 104.18 44.42 96.22 49.73 96.22 49.73 101.53 64.38 101.53 64.38 98.87 52.38 98.87 52.38 96.22 73.04 96.22 73.04 98.87 67.04 98.87 67.04 101.53 81.69 101.53 81.69 98.87 75.69 98.87 75.69 96.22 84.35 96.22 84.35 101.53 87 101.53 87 96.22 96.34 96.22 96.34 101.53 99 101.53 99 96.22 101.66 96.22 101.66 101.53 104.35 101.53 104.35 98.87 113.62 98.87 113.62 101.53 116.31 101.53 116.31 96.22"/>
    <rect class="st2" x="126.8" y="96.22" width="2.6" height="7.96"/>
    <rect class="st2" x="130.7" y="96.22" width="1.29" height="7.96"/>
    <rect class="st2" x="134.59" y="96.22" width="1.3" height="7.96"/>
    <rect class="st2" x="141.08" y="96.22" width="1.29" height="7.96"/>
    <rect class="st2" x="143.67" y="96.22" width="5.19" height="7.96"/>
    <rect class="st2" x="151.46" y="96.22" width="1.29" height="7.96"/>
    <rect class="st2" x="155.35" y="96.22" width="1.3" height="7.96"/>
    <rect class="st2" x="157.94" y="96.22" width="2.6" height="7.96"/>
    <rect class="st2" x="163.13" y="96.22" width="1.3" height="7.96"/>
    <rect class="st2" x="169.62" y="96.22" width="5.19" height="7.96"/>
    <rect class="st2" x="176.11" y="96.22" width="1.3" height="7.96"/>
    <rect class="st2" x="180" y="96.22" width="1.3" height="7.96"/>
    <rect class="st2" x="183.89" y="96.22" width="1.3" height="7.96"/>
    <rect class="st2" x="186.49" y="96.22" width="2.59" height="7.96"/>
    <rect class="st2" x="191.68" y="96.22" width="1.3" height="7.96"/>
    <rect class="st2" x="198.17" y="96.22" width="1.29" height="7.96"/>
    <rect class="st2" x="202.06" y="96.22" width="1.3" height="7.96"/>
    <rect class="st2" x="205.95" y="96.22" width="5.19" height="7.96"/>
    <rect class="st2" x="212.44" y="96.22" width="1.3" height="7.96"/>
    <rect class="st2" x="215.03" y="96.22" width="1.3" height="7.96"/>
    <rect class="st2" x="220.22" y="96.22" width="2.6" height="7.96"/>
    <rect class="st2" x="226.71" y="96.22" width="2.6" height="7.96"/>
    <rect class="st2" x="233.2" y="96.22" width="3.89" height="7.96"/>
    <rect class="st2" x="238.39" y="96.22" width="1.3" height="7.96"/>
    <rect class="st2" x="240.98" y="96.22" width="2.6" height="7.96"/>
  </g>
</svg>