<?xml version="1.0" encoding="UTF-8"?>
<svg id="Layer_1" xmlns="http://www.w3.org/2000/svg" version="1.1" viewBox="0 0 288 162">
  <!-- Generator: Adobe Illustrator 30.5.1, SVG Export Plug-In . SVG Version: 2.1.4 Build 3)  -->
  <defs>
    <style>
      .st0 {
        fill: #cad6b7;
      }
    </style>
  </defs>
  <rect width="288" height="162"/>
  <g>
    <path class="st0" d="M58.39,39.3v4.17h1.75l-3.4,72.64h4.61l1.07-30.72h4.23l1.07,30.72h4.61l-3.63-76.81h-10.32.02ZM62.56,81.33l1.31-37.86h1.31l1.31,37.86h-3.95.02Z"/>
    <polygon class="st0" points="79.7 51.81 80.58 51.81 89.09 108.44 96.64 108.44 96.64 104.04 96.64 103.61 96.64 46.98 91.99 46.98 93.38 103.61 92.35 103.61 83.83 46.98 76.18 46.98 76.18 51.46 76.18 51.81 76.18 108.44 81.02 108.44 79.7 51.81"/>
    <polygon class="st0" points="112.01 108.44 112.01 51.37 119.12 51.37 119.12 46.98 100.24 46.98 100.24 51.37 107.27 51.37 107.27 108.44 112.01 108.44"/>
    <rect class="st0" x="122.62" y="46.98" width="4.83" height="61.45"/>
    <rect class="st0" x="159.51" y="46.73" width="4.83" height="61.45"/>
    <path class="st0" d="M187.57,78.1c.79-1.26,1.18-2.76,1.18-4.52v-17.64c0-2.93-.72-5.19-2.15-6.81s-3.76-2.41-6.98-2.41h-9.22v61.45h4.83v-26.07h4.65c1.58,0,2.67.35,3.25,1.06.58.71.88,1.73.88,3.07v21.95h4.74v-21.68c0-1.7-.36-3.12-1.11-4.26s-2-1.79-3.82-1.98c1.7-.17,2.95-.89,3.73-2.15h0ZM183.91,74.11c0,1.46-.31,2.53-.92,3.21-.62.67-1.69,1.02-3.21,1.02h-4.57v-27.21h4.39c1.58,0,2.69.42,3.34,1.22.64.82.97,2.13.97,3.95v17.82h0Z"/>
    <path class="st0" d="M206.97,99.13c0,1.81-.31,3.15-.92,3.99-.62.84-1.77,1.27-3.46,1.27s-2.86-.43-3.46-1.27c-.62-.84-.92-2.18-.92-3.99v-52.4h-4.83v52.23c0,3.1.72,5.5,2.15,7.2s3.79,2.55,7.07,2.55,5.61-.84,7.03-2.55c1.41-1.7,2.1-4.1,2.1-7.2v-52.23h-4.74v52.4h-.02Z"/>
    <path class="st0" d="M231.25,69.59v-21.62c0-3.22-.56-5.56-1.7-7.03s-3.09-2.19-5.87-2.19-4.74.73-5.87,2.19c-1.13,1.46-1.7,3.81-1.7,7.03v24.68c0,2.19.41,3.86,1.21,4.99s2.12,2.03,3.95,2.69l1.75.66c1.46.59,2.45,1.19,2.96,1.8.51.63.77,1.63.77,3.02v22.06c0,1.75-.22,2.96-.66,3.63s-1.24.99-2.41.99c-1.11,0-1.87-.33-2.31-.99s-.66-1.87-.66-3.63v-19.43h-4.61v18.98c0,3.3.56,5.65,1.7,7.08s3.09,2.14,5.87,2.14,4.83-.72,5.92-2.14c1.11-1.43,1.65-3.78,1.65-7.08v-22.06c0-2.19-.41-3.86-1.21-4.99s-2.08-2.06-3.84-2.8l-1.87-.66c-1.4-.58-2.35-1.19-2.86-1.8-.51-.62-.77-1.59-.77-2.91v-24.68c0-1.75.22-2.96.66-3.63s1.21-.99,2.31-.99c1.17,0,1.98.33,2.41.99s.66,1.87.66,3.63v22.06h4.51v.02Z"/>
    <rect class="st0" x="76.18" y="39.3" width="51.27" height="2.64"/>
    <rect class="st0" x="159.51" y="39.3" width="52.19" height="2.64"/>
    <rect class="st0" x="76.18" y="113.48" width="58.94" height="2.64"/>
    <rect class="st0" x="151.83" y="113.48" width="59.87" height="2.64"/>
    <polygon class="st0" points="149.38 27 143.85 92.02 142.39 92.02 136.85 27 131.1 27 140.78 113.03 142.98 135 143.24 135 145.44 112.97 155.12 27 149.38 27"/>
  </g>
</svg>