<?xml version="1.0" encoding="UTF-8"?>
<svg id="Layer_1" xmlns="http://www.w3.org/2000/svg" version="1.1" viewBox="0 0 288 162">
  <!-- Generator: Adobe Illustrator 30.5.1, SVG Export Plug-In . SVG Version: 2.1.4 Build 3)  -->
  <defs>
    <style>
      .st0 {
        fill: #fff;
      }
    </style>
  </defs>
  <rect width="288" height="162"/>
  <g id="oKMrWY">
    <g>
      <path class="st0" d="M151.53,85.12l-.66-.18-.71-.2h-.26l-.99.14-.79.41-.17.3-.15-.62-.7.75.07.69-.32.38-.81.37.2.52c-.17,0-.05,0,.27.02,0,0-.04.2-.06.42.02.04.07.11.05.16l-.12.37-.59.22.53.36-.12.21c-.04.06.06.27.05.2.16-.04.44-.04.43.05l-.05.46c0,.12-.13.45-.25.48l-.43.1c-.08.02.17.24.18.22.35-.35.49.12.27.31l.58.54-.55.33c-.1.06-.15.45-.12.57l.18.72.18.55-.54.07.51.59v.59l-.5.66-.19.32c-.17.28.85.22.81.33l-.16.37-.36.75-.05.55.49.39c0,.19,0,.5,0,.37l-.71.55.6.49c.09.08.15.27.26.56-.16.16-.32.33-.23.24l-.62.34.38.53.48.66-.83.38c-.05-.1.13.26.16.32l.74.8-.25.39-.49.62c-.05.06,0,.4.09.38l.35-.08c.14-.04.34-.08.23-.05l-.74,1.2c-.1.16.14.63.17.73l.03.57-.47.55-.47-.45-.5.27.22.67-.48-.37-.54.38c-.24-.33-.32-.45-.28-.39l-.6.09-1-.22c.08-.09-.03.04-.29.33l-.06-.3-.46-.58-.43.35-.54-.53.45-.36-.23-.47.14-.75c-.25.13-.41.23-.45.16l-.22-.35v-.52l1.07-.38-.59-.28c-.2.32-.16.05-.1-.09.39-.05.32-.47-.04-.5l.38-.64-.65.13.52-.63c-.21-.39-.31-.78-.31-1.07q.43-.15.25-.09l.11-.37c.03-.1-.1-.35-.15-.44l-.2-.33c-.04-.06.05-.2.15-.35l-.13-.15.41-.41c.05-.32.11-.42.03-.47l-.44-.27s.19-.15.16-.21l-.15-.38.39-.2c.07-.04.21-.28.14-.32l-.31-.17-.55-.48.54-.5c.06-.05.3-.18.26-.16-.17-.23-.33-.42-.34-.56s.11-.49.18-.64l.2-.36c-.16-.06-.32-.12-.28-.1l.04-.52-.34-.52.35-.6.39-.67-.81-.76.11-.25.21-.54.55.38-.29-.52-.41-.74c-.05-.08-.15-.29-.08-.34l.29-.19.44-.35-.46-.43-.42-.32.5-.51-.07-.69-.5-.4c-.06-.05-.15-.25-.18-.32s.28-.17.31-.1l.15.42.28-.38.12-.7-.15-.56-.54-.33.61-.61c.42.04.5.05-.15,0l.03-.52-.08-.39c-.02-.11.09-.29.19-.49l-.2-.25.35-.37-.52-.65-.43-.09c-.08-.02.08-.33.16-.35l.54-.18c.06-.02.33-.19.29-.25l-.28-.39c-.15-.2-.31-.38-.33-.53s.11-.5.19-.64l.19-.33c.15-.26-.34-.35-.68-.67.32-.26.51-.55.55-.81l.08-.6c-.09-.06-.38-.27-.19-.14l.11-1,.36-.14c.37-.14-.81-.35-.77-.56l.1-.57c-.03-.12-.06-.25,0-.28l.44-.24c.26-.04.32-.05-.03,0l-.42-.4-.11-.48.61-.74c.06-.08.15-.4.11-.51l-.15-.43-.16-.45c-.04-.1.15-.4.18-.5l-.36-.5c-.1-.14.16-.51.34-.69l-.27-.37.06-.5-.37-.61.62-.5c.09-.07.29-.41.2-.46l-.56-.32-.36-.2.37-.4.21-.53c.07-.18.16-.58,0-.69l-.45-.31c-.08-.05.18-.35.27-.4l.36-.19c.07-.04.23-.31.15-.34l-.37-.15.15-.25c.04-.06-.05-.24-.09-.34l-.24-.64.35-.14c.07-.03-.1-.25-.15-.32l-.23-.35-.26-.4c.18-.17.43-.35.42-.48l-.05-.91-.22-.39c-.03.07.05-.15.1-.24l.09-.4c.02-.08.25.07.41.18.03.03.14-.44.02-.47l-.52-.15c-.15-.05-.22-.5-.2-.66l.58-.75c.05-.07.17-.37.19-.46.03-.12-.44-.28-.34-.17-.05.56-.16.4-.23.14l-.27-.76.82-.07v-.62c-.02-.07-.15-.05-.45,0,.07.11-.05-.08-.21-.31-.1-.21-.09-.44.14-.16l.18.08.4-.56c.21-.05.33-.09.39-.06s.21.09.19.08l.51-.44.47.47.35-.33.36.25h.97l.35-.37.83.15c.06,0,.31.12.31.13.05-.12.52-.46.55-.36l.14.4,1.02-.07.62-.12.7-.13.15.31c.04.07.29-.05.35-.06h1.26l.26.02c.23.03.59-.28,1.5-.07l.97.22.49-.05,1.18-.04.4.29.5-.02.83.15-.18.49c.07.29.65.64,1.03.65l.49.47c.28-.19.21-.14-.05.03l.17.39s-.03.06-.11.26l.56.64.28.63-.41.86.43-.15.13.53c.03.11.27.19.46.26l-.41.5c.05.05.25.23.23.29l-.18.47c-.15.38.22.26.52.58l-.53.58c.32.17.11.06-.13-.06-.03.05-.08.37.02.4l.57.18.1.46c-.24.17-.41.29-.37.27l.15.51-.63-.05c0-.05-.15.16-.08.2l.31.15.52.25-.41.34-.02.5.52-.4c.03.11,0,.45-.13.55l-.59.45.27.39.35.4.32.37-.57.25-.55.24c.22.17.42.31.47.4l.28.45c.25-.08.23-.07-.08.03-.08.07-.4.39-.33.51l.34.55.13.44c.05.06.22.3.15.33l-.35.13-.11.66-.05.32.45.81-.41.19-.31.14c-.07.04.14.25.16.33l.28.63.26.35-.53.4c-.12.09.16.49.27.63.19.24.02.84-.16,1.06-.04.08-.15.36-.11.26l-.7.13.45.58c.56-.08.46-.07.14-.02-.13.29-.21.49-.3.55l-.31.18c-.06.04.05.21.15.35l-.36.39.39.38-.5.37-.42.27-.44.16-.1.48.06.46-.15.53-.87.05-.22.45.44.4.45-.04-.51,1.09.37.24c.13.08.24.48.24.52l1.09.49-.46.25c-.41,0-.41.26,0,.29l.34.29.39.45.41.06s-.03.08-.08.24l.13.23c.05.09-.06.23-.25.55-.2-.02,0,0,.35.04l.29.25c-.12.38-.19.62-.12.4l.29.45-.43.45.65.72c0,.1-.06.54-.05.48l-.44.41c-.05.06-.16.32-.09.35l.3.15.38.19.33.25-.37.34-.31.49-.03.39-.05.43.28.57-.41.46.68.75-.34.65c-.11.21-.09.75-.06.97.04.07.22.44.15.48l-.75.58.35.38.13.32c.03.07.23-.08.36-.2l.5.49-.59.16c-.15.05-.2.44-.21.61l-.55.13.47.25.3.15c.07.04-.07.25-.16.36l.17.22c.05.05-.17.2-.26.26-.16.1-.06.53.05.73l.41.68-.41.18c-.07.04.05.22.18.45l-.68-.09v.2l1.05.63c.15.1.17.16.03.2l-.35.16c-.31-.24-.52-.1-.25.29.03-.02-.15.09-.33.19l.38.52.51.49s-.22.16-.33.24l-.37.27.56.86c-.05.1-.22.47-.21.45.16.25.19.28.15.22l-.25.33-.23.37.05.22.38.07.05.4-.38.45c-.05.06-.23.16-.35.25l-.35.05-.55.1c.2.42.13.26.02.05-.24.06-.47.14-.58.14h-.51l-.44-.02h-1.16c.06.17,0,.03-.16-.44l-.48.11c.12.45.04.15-.05-.18l-.7-.14-.55-.05c0,.06.03-.29.03-.36.14-.12.28-.27.28-.25s-.18-.25-.22-.29l.42-.46-.62-.65.45-.52-.02-.76-.68-.14.05-.36.39.28c.05.05.22-.12.24-.19l.16-.7.16-.19-.85-.32.03-.38.49-.42-.09-.89v-2.09l.05-.78s.27-.05.46-.1l-.62-.69.24-.58-.2-.33.21-.5c.1-.23-.61-.66-.4-.75l.39-.15-.21-.25c-.05-.05.09-.16.32-.32.05.13-.07-.18-.08-.19-.02.03-.15-.14-.28-.31l-.62-.67.98-.14c0,.11,0-.05,0-.21l-.48-1.12s.33-.34.45-.41l.29-.18c.06-.05-.09-.2-.16-.25l-.52-.35.09-.31-.14-.2c-.04-.05.06-.29.13-.32l.37-.19c.05-.03.22-.16.2-.22l-.12-.48s-.06-.03-.58-.25c-.02.05.14-.39.23-.65l.05-.46c-.31.06-.26-.04-.09-.16l-.65-.68-.38.19c-.07.04-.17-.25-.1-.3l.3-.15.29-.23-.78-.65-.54-.27c.27-.05.05,0-.12.03v.02ZM150.62,78.14l-.32-.53.86-.03.36-.23c.17.03.58.11.33.06l.72-.72c.12-.12.36-.44.45-.58l.44-.81-.23-.15.14-.96.4-.6.51-.08-.41-.34-.77-.64.83-.35-.21-.61-.36-.38.25-.55c.09-.2.44-.75.27-.89l-.45-.41.35-.95.12-.37c.03-.08-.28-.06-.38-.05-.21-.11-.4-.2-.33-.16.16-.43.27-.72.44-.8l.56-.26c.05.08-.07-.12-.14-.23-.05-.07-.2.03-.41.12-.11-.03-.42-.35-.36-.49l.25-.67c.08-.24.15-.71.13-.88-.46.3-.35-.14-.22-.27-.45-.65.7-.87.14-1.42l-.4-.4c-.16-.2.15-.48.36-.24l.35-.25c-.55-.08-.45-.43-.04-.49l-.37-.62-.9-.11.03-.5c.09,0,.59-.21.49-.31l-.43-.4-.31-.35c-.07-.09-.34-.09-.52-.12l-.41-.05c-.08,0,.09-.25.21-.4l-.52-.45-.6-.2s-.16.18-.28.32l-.38-.11-.36.14-.08-.39-.28-.05-.31.77-.47.14-.34-.03c-.2-.02-.26.52-.56.65l-.38.08.04.68s-.26.35-.36.44l-.64.61.43,1.03c-.12.09.17-.14.17-.14,0,0,.08.11.3.4.06,0-.13.02-.3.05l-.45.59.71.75-.25.37-.4.4c-.04.06-.12.29-.08.35l.18.27.3.45-.58.59c-.05.06-.15.32-.08.36l.29.2.49.36-.33.22-.27.18c-.06.05.06.25.13.34l-.14.38c-.03.06.18.16.27.21l.39.38c.05.07.16.32.09.35l-.3.15-.37.19c-.05.03-.25.21-.26.21,0,0,.15.23.18.29l.33.46-.13.47-.13.46.17.49c.05.14.14.35.13.45l-.06.51c.08-.06-.07.05-.28.22l.38.41c-.24.15-.38.23-.33.2l.73.57-.6.92.45.36.28.19c.06.05-.08.24-.11.31l-.24.52-.25.54c.11-.05.32-.13.32-.13,0,0,.24.12.3.13l.73.15.83.17,1.16.15.77.37h-.04Z"/>
      <path class="st0" d="M123.31,86.46l.51-.57-.93-.49-.42-.4-1.16.07-.59-.16c.05-.05-.12.08-.28.19-.03-.03-.51-.11-.65-.07l-.59.16-.69.55-.43.11c-.08.02.09.12.31.21l.08.25-.66.64-.45.29-.4.25.55.56-.2.5c-.05.15-.15.35-.13.45l.11.46.14,1.06.45.91c.06.13-.13.36-.28.49-.25-.3-.16-.05-.14.05l.02.33c-.29,0-.52,0-.49.08l.16.45.57-.1-.13.42.35.42c-.25.03-.51.04-.57.13l-.32.42v.5l.65.16-.23.63-.15.4c-.17.09-.39.21-.27.15l.21.46c.04.07.26-.07.4-.15.17-.05.41.7.21.81l-.39.21-.31.16c-.07.04.09.25.15.32l.06.68.61.06-.37.61-.17.28c-.05.07-.22-.05-.36-.16,0-.03-.17.22-.1.25l.35.16c.2.09.53.6.38.76l-.35.41c-.09.11.09.46.19.65l-.35.44.21.51c.1.25.1.82,0,1.06l-.19.51.15.47.23.67c.05.15.1.6.08.6-.21-.12-.42-.24-.45-.16l-.17.49.46.37-.15.65c-.03.14-.3.47-.35.49-.17-.1-.25-.05-.27.39l-.78-.07-.76-.07-.45.52-.31-.53-.45.19-.75.31c.02.28-.44.26-.43.02l.2-.45-.42-.19-1.04-.11c-.21-.02-.58-.45-.62-.66l.54.32.63-.65c-.31-.65-.66-.62-.92-.91l.41-.54c.15-.2.4-.78.28-.84-.29-.07-.57-.15-.58-.22-.03-.22-.09-.75-.08-.73.5-.05.48-.13.38-.3l.51-.19-.75-.82c-.05-.05.15-.52.12-.37.34-.16.5-.25.47-.24l.13-.59-.44.17-.38-.81.14-.44.51-.05-.22-.55c-.03-.06-.14-.21-.12-.28l.13-.45-.2-.77-.19-.5c-.03-.07-.22-.32-.14-.35l.39-.14-.25-.33.71-.79-.6-.19c-.05-.09-.19-.41-.18-.4.18-.13.55-.41.58-.59l.12-.67-.51.39c0,.05,0-.23-.02-.29l.11-.37-.54.08.53-.68c.05-.05.26-.2.44-.33l-.74-.55.52-.85c.1-.16.18-.72.15-.75-.33.1-.55.21-.56.11l-.07-.53-.02-.23.45-.38v-.87l-.2-.48c-.05-.06-.18-.26-.11-.31l.27-.18.32-.21c.05-.04-.22-.24-.27-.29-.13-.14-.1-.52-.05-.65l-.02-.41.05-.5-.46-.81.49-.52-.08-.28c.05-.25.07-.39.06-.34-.23.07-.3.11-.33.05-.05-.09-.17-.35-.11-.22l.53-.36c-.29-.12-.41-.16-.36-.15l.34-.6c.19-.35-.63-.9-.6-.95l.25-.45s.24.19.24.18.16-.15.28-.26l-.4-.42.42-.15c.08-.03-.1-.3-.16-.35l-.57-.37.49-.46-.08-.54-.4-.36.21-.48.4-.85c.05-.09.14-.29.09-.35l-.24-.28-.55.37.39-.66v-.78c0-.08-.25-.33-.16-.35l.36-.14c.08-.03-.13-.35-.11-.25-.25.23-.53-.05-.37-.3l.47-.08c-.04.15.02-.1.07-.35s-.27-.63-.63-.83l.36-.42c.18,0,.46.02.43-.05l-.14-.35-.11-.41-.43-.37c-.04-.06-.15-.43-.1-.49l.55-.64-.48-.55.1-.62.4-.36-.05-.75c0-.08-.14-.33-.15-.37-.09-.17-.15-.29-.1-.19.35-.1.53-.15.52-.15,0,0-.14-.24-.18-.32l-.17-.28c.06-.08.25-.34.16-.35l-.43-.08-.35-.29.35-.22c-.28-.38-.06-.56.27-.28l.33-.23-.52-.68c-.06-.04-.45,0-.43-.08s.11-.27.1-.26c.14.09.34.24.37.18l.18-.27-.03-.96-.09-.73c-.41-.02-.45-.03.07,0,.07-.16.15-.35.1-.42l-.35-.38.65-.16-.85-.38.53-.35-.06-.28.05-1.05-.06-.4c.55-1.42-.96-.95-.19-2.01l.35-.48-.34-.45.15-1.2.5.07-.18-.43c-.02-.11.17-.53.34-.63l.58-.35.51-.17s.16.13.17.14c0,0,.22-.16.2-.15.11.09.34.25.36.17l.14-.41.71.25.45.15c.1.04.38-.18.49-.18l1.05.04.64.14.29-.18.37.13c.14-.12.45-.36.57-.29l.71.46.59-.33c.19-.11.61.23.83.43l.45-.35c.25.13.43.22.54.21l1.37-.15.5-.02.94.2,1.57.11.37.36.11-.38.41.45.31.3.49-.29-.14.38.87.83.6.07.2.14-.56,1.03.52.41.77.25-.25.46-.48.3.51.65c.21.13.46.29.43.26l-.48,1.46.44.45-.43.4.2.71.14.82.14.39-.57.08.38.55.19.26c.05.05-.16.27-.16.35l.04.82v.53l.35.46-.29.46-.43.41c0,.1-.03.25.04.27l.46.24-.06.6c-.16.26-.26.55-.25.74l.08.9c0,.05.03.21.03.22s-.19.19-.23.24c-.06.07-.15.43-.05.44l.43.07.36.62-.6.32c-.08-.07.02.45.16.58l.5.46c.13.18-.18.47-.32.25-.35-.23-.77.4-.77.41l.14.52.28.38.47.19c-.38.17-.88.75-.85,1.13l.03.41.71.3-.39.27-.31-.1-.62.63c.09.16.18.35.13.41l-.32.35c.09.12.26.35.18.38l-.33.12-.46.16-.37.28c.14.28.24.43.21.54l-.13.56-.35.31c-.31,0-.55.04-.57.15l-.15.77.43.06-.16.71.55.69.32.4.65-.21-.42.53.65.1-.33.23-.31.19c-.07.05.11.22.19.24l.57.1c.12.02.24.35.25.48l.07.83c-.53-.05-.16.15-.07.16l.4.49c.02.24.05.42.02.52l-.09.43.59-.32c-.11.25-.29.43-.68.67-.14-.25.04.06.08.15.05.07.21-.05.29-.1l.18.49.43.41c.08-.05-.07.04-.15.07l-.76.37c.48.23.66.37.87.76l-.03.54c.57.1.65.12.12.02l-.29.64c.13-.02-.32.05-.62.1-.03-.07.07.18.11.27.04.07.26-.07.32-.11l.23.44c-.09.29-.17.53-.14.41l.31.24-.64.4,1.06,1.06-.69.27c-.35-.07-.3.36.03.39l-.09.25c-.04.1.11.32.17.45l-.38.58-.21.31c-.04.05.09.11.27.15-.1-.13.07.09.15.21l.48.51-.21.64-.4-.15c-.14-.05-.41.45-.32.56l.57.66-.5.53.34.49.23.34c-.13.22-.26.39-.23.49l.15.41-.32.35.35.42.15.53-.32.41c.28.3.21.47-.19.26-.12.03-.13.05-.03.08l.29,1.01.21-.18c.05-.05.25.13.28.16l-.73.3s-.03.14-.07.36l.33.22-.1.15.05.38v1.18l-.67.16.77.36v.4c-.19.05-.6.17-.73.25l-.66.45-.38.36-.85.15.28-.49-.25-.03-.44.46-.17-.28-.27-.27-.15.4c-.03.08-.27-.09-.35-.12l-.5-.22-.55-.24-.72-.31.05-.52-.25-.55c.03-.15,0-.22-.18-.41l.33-.39-.65-.19.68-.83c-.21-.2-.55-.66-.39-.83l.53-.55-.33-.36c.07-.25.13-.44.12-.38l-.39-.09.42-.29c.07-.05-.11-.28-.15-.36-.07-.17.11-.52.31-.77l-.58-.62.24-.41.37-.49-.37-.25-.35-.24.42-.42.59-.74c-.09-.16-.48-.53-.67-.61l-.35-.16c-.07-.04.1-.25.13-.33l.17-.39.16-.59-.06-1.04c.34,0,.58,0,.55-.08s-.12-.27-.17-.34l-.67-.71.45-.37.63-.52-.55.07-.23-.2.17-.4c.04-.07-.22-.07-.5-.08l.08-.43.97-.98-.28-.29-.35.38-.39-.49c-.41.05-.36.05-.02,0l.15-.42.45-.05-.14-.94-.35-.5.2-.5c.04-.1-.18-.33-.23-.43l-.23-.53-.71-.29.05.19ZM120.78,77.77l1.38-.15.45-.1c.11-.03.43-.15.47-.25l.16-.34c.04-.07.25.09.38.18.15.11.48-.32.47-.49l-.54.12.12-.63.26-.37.51.22c.14-.22.26-.4.19-.43l-.39-.15.21-.28-.22-.51c-.05-.1.13-.26.33-.45l-.05-.43-.11-.69-.49-.05.21-.69.39.15c.09.04.25-.24.28-.29l-.29-.18.28-.77-.55-.38c.22-.33.46-.85.41-1.1l-.09-.46c-.02-.08-.25.08-.45.21l-.04-.44c0-.11.21-.25.27-.29.13.1.36.27.38.19l.09-.4c.02-.08-.09-.36-.15-.42l-.48-.5.42-.49-.09-.17c.42-.22.45-.24.45-.23l-.45-.94s.24-.31.31-.41l-.05-.71c-.19-.05-.61-.41-.56-.6.19-.82.54-1.01.44-1.06l-.33-.15c-.09-.05-.35-.35-.27-.42l.29-.2.29-.19c.07-.05-.06-.21-.17-.35l.36-.4-.27-.26-.3.21-.35-.3c.12-.15.26-.35.18-.38l-.42-.18.42-.15-.3-.4-.56-.58-.65-.24c-.08-.03-.29-.19-.35-.25l-.73-.72c-.05-.05-.37-.09-.57-.15l.11.47c.08,0-.26.07-.35.06l-1.03-.07.08.36s-.25.2-.33.26l-.46.16c-.06.02-.15-.08-.4-.28.02-.16,0,0-.04.39l-.31.35-.68.39.08.49c.49-.04.27.38.02.36l-.15.07c.21.26.29.36.13.15-.22.26-.29.34-.25.4l.16.26c-.19.21-.21.49.14.25l.23.68-.4.18-.31.15c-.07.04.05.28.09.37l.35.92c.04.09.13.35.05.32l-.39-.15c-.14-.05-.28.34-.33.46l-.12.33c-.02.05.17.19.23.21l.6.23c.11.05.14.47.03.53l-.39.19-.31.15c-.07.04.05.29.09.36l.44.4.04.65-.4-.21-.2.76c-.02.07.25.24.31.19l.29-.24-.05,1.11-.18.43c-.04.08-.13.3-.13.29,0,0,.12.23.15.28l.35.46-.25.57-.2-.12s-.32.15-.26.25l.17.33.62.74-.31.51c-.15.03-.6.41-.44.52l.66.46c.25-.26.22.05.14.18l-.27.31c-.05.05.11.27.14.35l.09,1,.22.38c.05.07.2.31.12.35l-.42.16.43.3.55.39c.14-.08.37-.24.47-.21l.41.14c.06-.05.32-.23.35-.15l.14.38.77-.09v-.04Z"/>
      <path class="st0" d="M193.63,108.57c-.18.25-.27.42-.34.39l-.46-.16-.3.17-.47-.18c-.11-.05-.2-.43-.21-.51l-.88.41.16-.45-.51-.04-.13-.36c-.03-.08-.24.08-.38.21-.25.09-.36.2.18.22l-.06.49-.76.02.19-.43c.03-.06-.2-.23-.26-.25l-.75-.19-.43-.36c.08-.05-.17.12-.25.17l-.54-.39-.62-.25.46-.55-.45-.35-.75-.59-.4.25.22-.74c.03-.25.25-.28.52.1l-.06-.75-.34-.39-.37-.29c.18-.23.38-.47.36-.45l-.36-.9c-.05-.11-.12-.35-.13-.45s.11-.32.17-.45l.21-.39v-1.82l-.55-.52.38-.65.07-.25c.24-.1.39-.19.32-.21l-.43-.14c-.18-.05-.29-.83-.35-.67l.15-.43.17-.5-.36-.42.23-.42.16-.3c.04-.06-.03-.16-.14-.39-.04.03.14-.09.26-.17l.26-.17c.07-.05-.05-.28-.05-.24-.24.05-.3.07-.3.07l-.57-.15.37-.52c.05-.05.19-.27.25-.3l.32-.16c.07-.04-.09-.27-.16-.32l-.67-.45.44-.57.07-.74.09-.44-.46.37-.22-.73.51-.05.04-.74.27.19c.05.04.26-.1.27-.13l-.78-.57c-.06-.05-.25-.28-.17-.32l.34-.15c.06-.03.26-.17.24-.24l-.14-.33-.1-.87-.59.11c.26-.71.95-.35.67-1.06l-.22-.56.18-.3-.19-.47.49-.66-.51.1.07-1.24.03-.33.15-.28-.58-.85.58-.61-.52-.9c0-.15-.04-.26.02-.29l.46-.23-.02-.81-.37-.39.29-.73.34-.34c-.08-.35-.34-.35-.57.05v-.83l.42-.58c.05-.07.18-.29.11-.34l-.3-.16c-.07-.04-.22-.29-.21-.37l.06-.6.45-.37-.1-.79c-.09-.75.26-1.21.02-1.35l-.47-.26.55-.65.15-.5-.42-.35c-.3.25-.32.26-.17.15v-1.13l.12-.46s.25.18.23.19c-.03,0,.15-.15.29-.29l-.62-.45c-.13-.1-.14-.45-.02-.54l.44-.33.12-.61-.44.13-.33-.35.81-.82-.38-.65-.05-.22c-.14.43-.25.43-.35.08l.26-.83.19-.6c.05-.18-.17-.57-.35-.8l.38-.46-.6-.63-.03-.65.82-.09.05-.17-.55-.35-.21-.81c-.15.1.1-.06.23-.15l.35-.21.41-.8-.59-.66.49-.7.49.21-.13-.34c-.04-.1.07-.25.18-.49l-.32-.35-.21.84-.04-.88.66-.58.32-.25.57-.12.23-.39.13-.68.25.19.42-.4.74.1.43.05c.22-.2.35-.35.46-.32l.39.1.55-.03c.06,0,.13-.05.2-.03l.48.1c.76-.62,1.14-.15,1.83-.2l1.12-.07c.23-.66.51.28,1.15.15l.7-.14.34.28.22-.15c.08-.06.33.13.45.22l.45-.36.61.23.4.07-.09-.35.88.26.69.21.5.02.53.09.41.31.51-.11c.11.33.15.44.07.22l-.52.46.87.54.45.35.09.93c.39.02.46.02.03,0l-.08.62,1.03.13-.46.31-.55.4.24.64c.1.05.36.15.4.26l.16.47.13.36c.03.08-.31.12-.38.08-.05-.03-.3-.17-.29-.16s-.16.17-.29.3l.71.35.32.3c.14.13.05.44-.05.72l-.25.75.63.72-.6.08.24.28-.4.14c-.08.03.07.31.15.35l.39.21c.1.05-.11.37-.18.47l.22.32c.04.05-.11.21-.16.25l-.41.28.64.9-.54.46-.37.4.8.84-.11.43-.36.07.05.46.35.66.06.36-.27.31.17.23-.62.09.74.74c.28.02.55.04.28.02l-.57.64.1.52-.15.56.56.15c.2.05.29.07,0,0l-.38.55c-.05.07-.08.07-.49.23-.03-.16.05.26.05.34l.58.36c.15.1.05.59-.08.72-.16.15-.46.44-.44.41l.55.5-.14.44-.29.84-.13.37c-.03.08.42.05.48.11.2.16,0,.73-.16.95l-.44.55.4.41h.5c.08,0-.2.33-.13.21l-.37.16-.1.58c-.05.26.16.77.35.98l-.48.75.36.39-.42.15c-.25.09.68.46.42.65l-.35.25-.15.47-.05.44c.29.1.42.15.2.07l.33-.5.13.58-.1.49c.05.22.13.5.09.35-.24.21-.38.36-.34.44.06.1.23.27.2.34l-.15.46.17.29-.2.42c-.11.14-.2.26-.07.09.32.17.41.2.44.28l.18.48-.55.67-.18.3c-.04.06.13.15.24.2l.45.36-.63.71.28.71.2.44-.31.41-.26.96.43-.35.09.28-.02.85c0,.22-.35.65-.23.85l.36.57c.07.12-.23.35-.5.49,0-.02-.04.29-.05.37l.4.47c.15-.23.05-.08-.1.15l.16.39-.55.63-.16.3.54.55-.45.63c.34.23.37.25.05.04l-.11.53.51.21.41.11c.08.02-.08.29-.15.35l-.51.45-.37.33.45.19c.07.04-.2.3-.19.38.03.22.18.55.32.8l-.29.08-.06.48c-.05.15-.09.26-.07.21.31.03.55.05.51.12l-.15.33c-.03.06-.18.3-.23.35l-.43.48-.4.34.63.24.38.15c.07.03-.02.32-.09.29l-.4-.15-.2.07-.31.35-.25.35.05.47-.36.45c.26.31.28.33.15.17l-.66.34-.29.15c-.06.04-.27-.06-.27-.07-.14-.28-.15-.32-.09-.19l-.46.28-.49.36-.33-.35-.5.38-.3.27-.41.36c-.34.08-.8.15-.95-.02l-.32-.48-.11.55-.44-.02-1.05.03c-.05,0-.28-.37-.25-.33s-.25.24-.3.2l-.46-.36c.03-.3.02-.25,0-.03l-.25.55c0,.25-.39.21-.45-.1l-.35.17-.47-.45-.04-.1ZM196.88,102.86c.06.05.32.19.35.12l.17-.33c.04-.06.1-.25.08-.32l-.17-.44.35.15.28-.68c.11-.08.32-.24.25-.18l-.29-.62.46.1s.16-.2.09-.22l-.41-.15.78-.78-.27-.39c-.05-.06-.19-.13-.4-.25,0-.05-.04-.51-.02-.29l.62-.33.02-.56-.43-.55.05-.22.12-.49c.25.09.32.12.3.12l-.18-.75-.51-.58.47-.72c.09-.14.25-.38.25-.38l-.48-.39-.28-.62.4.06.15-.76c.03-.14-.33-.27-.55-.37l.31-.16.17-.61-.07-.32.55-.25-.48-.39-.29-.19c-.07-.05.06-.25.09-.33l.22-.6-.52-.65-.33-.28c-.08-.07.07-.31.21-.48l.45.41.08-.74c.05-.05.2-.27.15-.31l-.3-.25c-.18-.15-.31-.65-.19-.84l.21-.35c.05-.07.23.08.35.17l.36-.05-.63-.49-.42-.33.42-.64.43-.16c.14-.05.21-.5.06-.56l-.58-.25-.54-.23.79-.35-.25-.36.4-.39c.36.03.33.02.04,0l-.25-.35v-.62c.26-.31.73-.4.48-.52l-.31-.15-.37-.18.06-.85c-.67.11-.14.03,0,0l.13-.67-.41-.95q-.06,0,.51-.1l.17-.89-.64-.25-.12-.47c-.02-.08.23-.08.5-.08.31.03.25-.35-.05-.44l.11-.39c.02-.06-.18-.22-.25-.25l-.33-.15c-.07-.04.12-.22.19-.26l.43-.3-.43-.17.4-.19c.07-.04-.07-.22-.2-.36l.16-.44-.62-.11c.07-.2.26-.55.42-.67l.61-.45-.25-.45-.42-.11.04-.64c-.15.03.05,0,.4-.08.11-.13-.03-.77-.22-.95l-.27-.24s.17-.25.19-.31l.25-.72c.11-.12.15-.51-.15-.19l-.35-.6.42-.4v-1.19l-.52-.25c-.15-.21.15-.47.38-.24.09,0,.39-.26.35-.39l-.19-.48-.3-.75c-.09-.19-.09-.48.14-.16l.37.1c.13-.21.24-.36.16-.4l-.32-.16-.18-.58c.03-.06.12-.27.1-.38l-.11-.48c.03-.18.11-.74.09-.65l-.7-.35.21-.37.13-.72-.45-.42-.45-.14c-.05-.13-.2-.47-.09-.21l-.85.31c-.14-.05-.16-.49-.04-.45l.35-.05-.18-.46-1.03-.08c-.11-.09-.41-.43-.53-.35l-.58.35c.02.05-.05-.13-.12-.34l-.41.36-.39-.16c-.07-.03-.05.22-.03.46l-.32.36-.5.15-.81.45-.31.17c-.19.11.25.35.34.55,0-.02-.03.11-.09.4.24-.15-.06.04-.19.12-.05.19-.12.43-.22.5l-.43.32.86.71.05.3c-.25-.11-.42-.18-.19-.08l-.68.75.34.29.39.34c.13.11.37.3.35.28l-.76.41c-.05.03.24.43.23.36s-.25.25-.21.3l.53.59c.05.06.06.35-.02.34l-.45-.14s0,0,.11.39c.05-.09-.1.18-.2.34-.21.15-.12.74.15.91l.04-.5c-.19.12-.11.06.16-.11.19.15.38.8.15.92l-.65.32c-.1.05.11.44.16.54l.25.42c.05.09-.11.26-.33.51-.04-.05-.02-.02.17.21l.02.4.25.35-.2.63-.33.14c-.07.03.11.26.16.33l.05.69.54.05-.02.45-.61.22-.33.12c-.08.03.15.26.21.35l.52.88c.16.21-.15.54-.35.25l-.39.25.31.72.37.45-.69.76.3.52.48.15c.11.04.22.32.22.37-.25.21-.37.3-.29.24l-.23.28c-.13.13-.29.3-.25.4l.16.32.22.43c.03.06-.24.2-.26.26l-.17.42-.12.29s.16.13.25.2l.38.37.3.17c.07.05-.14.2-.21.22l-.53.34.08.51.11.67.45-.13-.38.42c-.12.06-.26.13-.25.18l.13.3.31.72c.26,0,.41.48-.03.35l-.47.35.25.66.39.55-.64.67.08.81.73-.21-.41.5.07.1-.62.65.45,1.12.13.36c.03.07-.33.05-.4.1l-.32.19c-.18.26.12.47.41.2l.68.65c-.63.05-1,.45-.96.98l.5-.15-.11.88.4.15c.08.03-.17.24-.23.3l-.55.68.59.08-.07.85c0,.06-.17.28-.14.34l.23.28-.38.46.39.37-.26.71-.35.47.55.31v.82l-.34.26c-.26.02-.17.32.04.35l.32.09.33.59-.47.3.66,1.21.54.35.21.34.28.45.55-.07.67.29.14-.36c.08-.22.54.5.74.38l.3-.18.29-.18c.05-.04.29.17.36.16.22-.03.56-.17.78-.29h0Z"/>
      <path class="st0" d="M228.64,107.72l-.48-.29c-.19-.12-.09-.54.05-.98l.39.02s-.14-.3-.19-.42l-.45-.35-.49-.37c-.19,0-.23-.02.02,0l.55-.57c-.15-.22-.25-.41-.35-.44l-.4-.13c-.08-.03.1-.25.15-.32l.11-.75c.03-.19.1-.64.09-.62l-.39-.13-.51-.26.29-.1c.27-.09-.24-.6-.12-.65l.39-.15-.63-.69c.03-.14.17-.61.25-.75l.17-.32c.04-.06-.11-.25-.17-.27l-.55-.22v-.41l.47-.38-.23-.54-.37-.82s.2-.31.12-.34l-.33-.14-.21-.64.27-.26-.03-.12-.5-.24.56-.53-.13-.79c0-.05-.28.21-.32.17l-.19-.18c-.06-.05.06-.25.11-.35l-.33-.69c.14-.12.4-.57.27-.75-.1-.15-.39-.43-.35-.56l.21-.7-.45-.47-.4.17c-.07.04-.07-.3-.05-.38l.18-.8.42-.62-.35.03s-.11-.04-.44-.15c-.05.02.05-.41.15-.51l.79-.72-.62.09-.69-.19-.19-.69-.06-.54.77-.07-.15-.5-.12-.41c-.03-.08-.3.22-.37.19l-.74-.22.64-.52.35-.28-.35-.52c-.1-.15-.46-.33-.68-.41l-.17-.58.32-.57c.09-.15-.4-.5-.45-.41l-.57.07-.22.05c-.33.07-.48-.48-.74-.37l-.51.23s-.31-.19-.19-.12c-.62.32-.94.42-1.65.58-.04-.07.15.36.21.45l.43.69c.05.07.19.29.12.33l-.31.15-.42.21c-.13.06.19.45.27.55-.03.13-.1.47-.05.63l.12.37c.03.08-.23,0-.3-.03l-.46-.04.87.84c.06-.25,0-.02-.03.12l-.25.85-.48-.16v.66l.25-.15.71,1.11-.4-.11c-.06-.02-.12,0-.51.08l-.06.25.53.09c.08.02-.12.3-.13.26-.12-.08-.32-.21-.36-.16l-.3.33.75.09-.17.26c-.04.05.06.26.11.35-.14.17-.34.55-.26.75l.12.35-.12.3.14.47c.03.11-.1.33-.15.44l-.22.38.52.05.2.69-.53.18-.39.14c-.08.03.16.25.19.32l.25.67.03.35c-.52.46.04,1.81-.25,1.47-.04-.05.15.16.18.21.05.07.15-.03.39-.22.04-.25.09-.37.28.1l-.23.24c-.09.08-.26.25-.26.22s.15.25.16.25l-.67.49.39.43c.36.8-.53,1.24-.27,1.44l.48.38c-.15.21-.32.85-.26.98l.65.26.04.51c-.35-.03-.41-.03-.29-.02l.12.52-.47.38v.39l.49.38s-.15.33-.25.38l-.32.17c-.18.09.27.25.37.82l.13.7-.65.26.23.63.45.53-.55.45c-.29-.18-.4-.09-.18.18l-.86.11-.28.73-.66-.55-.73-.14c-.4-.07-.97-.35-1.37-.59l-.4-.33.65-.91-.74-.58v-.22l.7-.55-.46-.22c-.07-.04-.22-.31-.15-.35l.42-.2-.61-.12.41-.53c.05-.05.18-.23.16-.3l-.15-.46c-.2-.59-.55-.71-.4-.81l.29-.18.54-.41-.4-.36.08-.26.24-.81-.41-.52.23-.33c.04-.05-.07-.12-.32-.22-.21.06-.26-.41-.05-.4l.55-.22-.04-.65-.26-.51.12-.38c.04-.1-.1-.33-.15-.41l.37-.17-.63-.36c0-.39.27-.95.63-1.45l-.3-.35c-.27-.12-.46-.2-.45-.19l.18-.56.24-.33.31.11-.19-.6c.11-.24.13-.27.12-.27l-.22-.38c-.05-.07-.29.06-.25.06l.16.39c.04.07-.3.19-.32.12l-.08-.41c-.03-.11.18-.39.25-.47l.51-.51-.72-.43.12-.64c.04-.18.59-.28.57-.45,0,.02-.09-.25-.12-.34l-.22-.73c-.08-.15-.21-.34-.12-.38l.47-.25-.43-.5.26-.3c.05-.05-.13-.2-.26-.28-.41.04-.42-.26-.05-.34l.35-.38-.64-.69.05-.71.44-.38c-.17-.23-.28-.32-.25-.38l.13-.39c-.37-.02-.55-.6.17-.4.05-.23.05-.74-.07-.95l-.25-.47.51-.38-.02-.37-.35-.66-.05-.27-.05-.79.55-.3c.13.37.15.05.13-.05l-.42-.22-.29-.15c-.07-.04.1-.27.12-.35l.22-.68.06-.54-.8-.06.59-.67.14-.58c.02-.08-.02-.5,0-.35-.45-.21-.49-.23-.42-.19l-.07-.77.39.13.17-.43-.4-.15.14-.9-.1-.29c-.04-.1.06-.36.14-.44l.39-.35c.11-.09-.35-.41-.58-.44-.15-.02-.24-.51-.09-.55l.68-.2c.07-.02.25-.25.17-.29l-.45-.29c-.2.24-.37.27-.15-.14l-.26-.27.19-.58.25-.26-.05-.87-.32-.49.74-.46v-.35l-.88-.38.32-.57.45-.38-.3-.51-.23-.39.05-.28-.12-.58.5.28v-.32l-.48-.65.37-.13-.35-.37.73-.53-.38-.53c-.08-.11-.21-.35-.17-.45l.13-.45.05-.67-.49-.27c-.14-.07-.07-.5.06-.56l.4-.18.42-.08c.08-.02-.16-.26-.19-.34l-.27-.66-.31-.13c-.07-.04.15-.27.15-.35l-.04-.42.02-.47c-.17-.15-.4-.37-.32-.44l.49-.38.37-.47s-.02-.14-.03-.23l-.26-.53c-.04-.07.08-.33.16-.35l.45-.15,1.2-.06.21-.17.5.2c.1.05.3-.11.5-.23l.48.43.09-.31.5.32.68.44c.05-.1.05-.08-.13.22l.24.33c.34-.04.45.04-.04.21l.3.29.58.3.02.43-.23-.1c-.15.35-.18.45-.26.47s-.45.03-.42.1l.15.35c.09.23.22.35.53.48,0,0,.14-.09.4-.25l-.04.3-.11.46-.19.34c-.04.06-.12.1-.35.24l.55.09.07.67.05.26-.31.55c-.05.07.14.36.21.41l.86.51c0,.06-.08.54-.05.28-.5-.4-.48-.13-.28.15l-.17.26c-.04.06.1.24.16.25l.41.08c.08.02-.04.34-.11.31l-.39-.16s-.13.19-.05.24l.28.18.34.23c-.12.19-.24.35-.23.36l.27.25v.23c-.14.12-.3.25-.3.26s.15.15.2.19c.06.05.2,0,.25-.04l.41.41-.18.65-.22-.17s-.24.13-.22.18l.11.36.39.58.17.27c.04.06-.1.27-.11.34l-.06.6.24.41.53-.13-.61.73-.09.44c-.2.21.07.4.35.22l.25.29c.33.02.3.35-.08.49l.49.13-.45.82c-.02.14-.05.26.02.29l.46.19.61.25-.73.57.04.31.13.51.5.06-.16.26c-.04.06.04.19.15.42l-.5-.12.05.36c.13.08.32.19.29.25l-.17.42.46.07c-.07.3-.11.84,0,1.09l.27.62.29.43-.12.22c-.05.1.2.24.37.31l-.55.6.25.16.34-.24.74.42c-.55.14-.48.47-.03.54l-.37.46.6.07-.44.53.75-.11c.23-.04.66,0,.99.04l.64-.18.07.2h.43c.04-.32.08-.69.04-.34l.47-.34-.44-.45c-.32,0-.48,0-.48-.08l-.02-.56.35-.02-.08.49.59-.15c.36-.25.64-1.16.39-1.49-.05-.06-.53.09-.57.13l-.2-.17.54-.64.22-.56.03-.52-.08-.41c-.04-.18.27-.45.45-.54q.33-.05.14-.02l-.18-.45-.53-.25c-.03.07-.13-.32-.02-.35l.63-.21v-.84l-.63-.27c0-.34-.02-.75-.02-.61l.7-.44-.68-.75c-.05.06.21-.28.31-.43l.27-.25.27-.41-.75-.66c-.05-.05-.22-.18-.17-.25l.29-.41.18.11c.05-.05.27-.2.27-.31,0-.15-.07-.47-.13-.62l-.34-.92s.11.04.45.14l-.04-.86-.61-.3c.02.11-.06-.37-.07-.42.28-.12.67-.28.68-.28l-.37-.92c-.05-.13-.15-.36-.12-.46l.15-.47.05-.88-.66-.15.78-.37-.09-.21c-.03-.06,0-.29,0-.23l.43.17c.07.03.17-.36.11-.42l-.35-.34-.51-.24c0-.29,0-.37,0-.28.29-.19.57-.41.49-.53l-.37-.56-.02-.77.43-.55c-.2-.31-.22-.35-.12-.19.55-.14.43-.26.03-.24-.35-.2-.44-.75-.21-.94.32-.26.38-.41.54-.76.25-.11.29-.18-.02-.13l-.39-.33.39-.38.41-.08c.1-.02.21.04.59.15l-.14-.43.88.13.81.13c.07,0,.25.17.31.15l.53-.2.26.46.41.51-.53.49s.31.06.35.16l.27.6-.05.28-.14,1.26s.02.05.08.28l-.2.53c-.21.03-.29.04.11-.02l.1.6.57.2c.11.25-.43.84-.72.85-.09,0-.28.28-.25.35l.25.5.38.21-.48.6.24.29c.05.05-.07.23-.15.35l.57.67s-.34.18-.41.23l.02.97.45.45-.65.48c.11.14.27.35.19.38l-.39.15.38.24c.13.07.21.38.26.56l.03.35-.39-.25s-.33.21-.29.25l.33.57-.07.2c.43.15.52.18.44.15l-.3.36.18.3-.29.52-.02.25c.15.1.35.21.31.26l-.24.41-.21.36-.24.14.15.6.16-.04c.04-.38.05-.6.03-.32l.48.54c.02.05-.05.49-.15.62l-.36.5c.05.06.18.26.18.26,0,0-.11.15-.25.35l.26.2c.33-.1.48-.15.48-.15-.08.48-.12.69-.06.33-.56.14-.64.35-.75.65-.15.11-.32.24-.26.19l.52.3c.19.05.46.1.29.06l.1.53c.09-.05-.13.07-.36.22l-.19.52-.16.44c-.05,0-.03,0,.42-.07,0,.02.09.22.06.15l-.08.35c.08.14.19.28.15.35l-.18.28-.45.7.39-.11c-.06-.05.15.12.22.17l.4.52-.38.06c-.14-.19-.21-.3-.02-.03l-.5.26c-.03-.1.05.21.09.38l.07.87c0,.08.23.24.26.25l.05.38-.1.39.4.47c-.12.3-.35.83-.58.9l-.43.13c-.08.03.05.2.18.4l.32-.11s.32.05.3.14c-.02.09-.11.46-.1.42-.27.07-.34.08-.31.08l.38.19c.07.04-.08.26-.13.33l-.09.31-.55.07.63.67.21.22-.65.71c0,.07.09.5.07.39.29-.12.36-.15.22-.09l.29.4c.05.05-.11.24-.15.26-.15.12-.23.17-.17.13.21.22.32.33.3.33,0,0-.17.22-.19.25-.05.25-.11.54-.06.29h-.54l.6.48.55.3-.46.35-.13.39-.35.41c.33-.05.52-.08.29-.05l.45.78-.19.31c-.14.23-.1.81.03,1.03.12.23.25.5.15.3l-.38.4-.16.25c-.05.07-.16.34-.16.33s.35.06.43.08l.65.56-.26.15-.33-.33s-.25.11-.28.15l-.18.37c-.05.1.17.23.36.33,0,0-.11.11-.28.26l-.02.25.3.15.25.13c.49.24.25,0-.1.81l-.13.31c-.03.06.05.2.12.36.02-.04-.12.17-.18.26l.23.3c.06.08-.13.35-.22.41l-.45.35c-.04-.19,0-.02.04.16l.43.15s-.05.19-.11.41l.1.41c.05.18-.05.36-.31.86-.14-.04.1.03.4.11l.61.39-.7.61c-.15.14-.13.55-.05.79l.22.75c.12.39-.16.06-.55.89-.03.06.32.13.35.19l.09.25c-.15.25-.16.27-.15.25.2.25.3.38.21.27l-.04,1.06.48.22-.33.27c-.42-.12-.68.2-.56.35l.22.27-.16.35c.3.04.55.05.52.12l-.16.4.15.19-.45.2-.75.34-.87.32c.37.25.05.04-.21-.15-.03-.27-.1-.26-.19.08l-1.02-.2-.13-.09c-.25.07-.28.08-.28.08-.25-.1-.31-.12-.31-.12-.22.12-.29.16-.21.11l-.41-.25-.03.03Z"/>
      <path class="st0" d="M67.42,90.58l-.76-.85,1.05-.11-.26-.72-.33-.9.35.16c.06.03.31-.14.34-.21l.36-1.07c.05-.25.12-.56.07-.35l.65.06.74-.3c.11.05.35.18.45.15l.49-.13c.11-.03.39.14.45.23l.35.47.35-.56.45.35c.31-.24.46-.18.24.1-.09.14-.24.37-.17.41l.31.16.94.44c.05-.3-.04.18-.05.25l-.45.49-.1.51.33.42.52.78-.84.11c.15.85,1.13,1.04,1.02,1.15l-.24.24s-.25.23-.22.22c.03,0-.24-.19-.21-.17l-.2.67.18.39.57.18-.57.74.08,1.1.36.53-.22.09-.35.55-.15.35c-.04.07.32.08.46.08.16,0,.09.49.03.55-.28-.21-.25-.09-.14.07l-.02.98.05.37c.02.11-.08.27-.17.48-.07.14-.19.34-.11.37l.49.24-.03.76-.54.45c-.19,0-.18.45.04.4.24.21.38.35.35.45l-.15.45c.22.28.1.57-.28.25l-.24.26-.03.28.21.34c.05.06.22-.06.36-.16l.51.51-.69.31c-.02.19-.05.55-.04.49-.3.18-.43.26-.43.26.03,0,.09.24.52.56.09.07-.08.35-.16.42l-.25.24-.32-.23-.34.42-.55.68c.1.1.23.26.28.25l.5-.14-.29.4-.51.17-.3.1c-.1.04-.34-.11-.47-.17l-.65.55-.14-.37-.41.34-.42.38-.19-.15-.15.4c-.03.08-.25-.06-.39-.16,0,0-.06.16-.13.34l-.25-.18c-.16-.12-.69.59-.75.37l-.14-.51-.19.07-.61.15-.78.32c-.03-.59-.45-.56-.51,0l-.45-.41c.08-.08-.28.15-.34.25l-.17.31c-.04.07-.24-.07-.32-.14-.11-.07-.35-.23-.2-.14l-.21-.45-.53.11c.17.67-.36.42-.34.15l-.08-.19-.16.36-.77-.02c-.12-.13-.4-.39-.57-.47s-.48.37-.54.55l-.22-.05-.55.06-.59-.64-.55-.2-.33.05-.69-.3-.38-.16-.71-.49.15-.45s-.19-.17-.29-.26c-.15-.06-.35-.13-.41-.19l-.68-.65.25-.32s-.09-.21-.13-.29l-.35-.83-.09-1.14.44-.43-.67-.25c-.18-.06-.3-.43-.33-.73l.58.38-.17-.58c-.05-.15.08-.55.16-.77l-.41-.54.33-.25c.06-.05.19-.27.25-.38.09-.16-.28-.47-.45-.57.08-.22.05-.35-.25-.62l.74-.35-.49-.26c-.24-.65-.03-1.37.67-1.97l-.72-.36.04-.34.55-.58c-.65-.13-.47-.46-.11-.5l-.03-.2c-.28-.08-.51-.15-.48-.25s.15-.37.19-.45l.3-.45-.36-.52c.11-.48-.27-.42-.4,0-.05-.03-.15-.48,0-.54l.61-.25.16-.59-.15-.62-.76-.07.55-.51.55-.15-.37-.86c-.04-.09-.33-.32-.44-.39l.71-.55-.62-.65c.06-.09.22-.34.23-.32,0,.02-.15-.13-.27-.25,0-.05,0-.23,0-.17l.49-.11s-.12-.25-.16-.34l-.3-.65-.3-.15c-.07-.04.09-.28.1-.25.14.1.34.24.37.16l.16-.32c.05-.08.14-.26.1-.33l-.23-.34c-.2-.3-.35-.77-.29-1.09l.3.62.25-.36.1-.79.07-.62-.53.43-.17-.78c-.03-.11.15-.41.19-.47l.71-.28-.49-.63-.12-.59.35-.05-.04-.28-.34-.69c-.45.02-.39-.33.02-.42l-.34-.22.53-.21c.18.22.56,0,.33-.21l-.15-.59-.74-.04.32-.45.6-.6-.43-.55-.29-.24-.34-.27.47-.42.08-.65c.02-.15-.14-.56-.21-.67l-.15-.33.53-.34c.07-.02.29-.19.22-.22l-.34-.15-.24-.75.56-.49s.17-.35.22-.43l-.79-.9.07-.75c.16.45.5.53.57-.03l-.54-.36.05-.26c-.05-.11-.15-.36-.14-.35l.49-.45-.05-.57-.55-.37c-.03.23,0,.06.02-.18l.44-.32c.1-.09.27-.44.23-.58-.16-.53-.74-.72-.6-.94l.26-.45c.1-.16.14-.71.07-.76-.3-.05-.52-.1-.5-.1l.53-.56-.24-.42c-.25-.44.24-.64.07-.72l-.38-.19.53-.35.09-.45c.05-.06.25-.32.16-.34l-.47-.1c-.18-.04-.05-.55.07-.69l-.14-.34c.05-.04.35-.23.36-.31.06-.25-.34-.78-.55-.79l.88-.44c.23-.07.2-.35-.15-.54l.75-.12-.32-.25-.49-.45.52-.52.78-.08c.02-.51.21-1.21.45-1.39.36.05.69.05.86,0l.59-.23.3.15.25-.31.48.05h.45l.27-.08,1.14.03.41-.36.41.37.92-.13.99-.12c.15-.02.6.11.75.15.37-.15.88-.12,1.21.18l.42-.28c.15-.1.64.07.78.14l.49-.15c.1-.03.29.1.48.2l.34-.22.91.53.55-.12.45.17c.07.03.32.13.29.13s.21-.14.26-.16l.46.23c.27.14-.25,1.16.07,1.05l.44-.15.98.9-.47.65.52.41.25.2c.06.05-.02.25-.05.36l-.06.87c-.11-.09.12.1.28.24l.06.65c.05.02.44.12.27.07l-.63.62.02.49.21.35c.05.07.23-.05.42-.17l.03.64-.44.37c.06.35.07.58.16.65l.39.28c.06.05.26.18.26.18,0,0-.17.29-.2.35l-.47.35c-.15.11,0,.6.12.75l.58.69-.71-.08c-.07.04-.33.31-.27.4l.25.41.55.79s-.18.16-.3.27l-.5.22.52.55.28.45c.05.07-.02.43-.09.4l-.45-.16.15.43-.14.48.63.66c-.28-.06-.47-.16-.55-.08l-.37.43-.89-.02-.69.25-.45-.06-1.97-.12-.46.05s-.23-.15-.22-.15l-.2.16-.51-.52.12-.29.04-1.17c.14.05-.24-.08-.53-.18l.39-.43.53-.33-.92-.96c-.05-.06-.22-.28-.15-.32l.32-.15.45-.2s-.12-.4-.18-.49l-.37-.51.38-.15c.07-.03-.07-.24-.18-.38.35-.15.56-.34.55-.38l-.14-.34-.14-.32c-.03-.07-.33.15-.38.18l-.36-.47c-.05-.06-.18-.33-.11-.36l.31-.15.42-.2c.1-.05-.07-.38-.14-.47l-.35-.49c-.32,0-.38,0,.13,0l.15-.42-.44-.52.08-.19c.03-.06-.03-.22-.07-.37l-.41-.04c-.04.31-.05.4-.04.3-.32-.33-.48-.52-.66-.48l-.69.15.3-.47v-.63c.05,0-.24.04-.32.05-.11.12-.27.27-.25.28.02,0-.23-.15-.27-.18l-.53-.35-.97.42c-.22-.37-.2-.06-.12.09l-.54.59c-.15-.12-.34-.26-.37-.19l-.18.31-.91.44c-.16.08-.1.49.05.82l-.36.21.17.22c.05.05-.02.31-.09.28l-.45-.17.11.47c.05-.02-.16.05-.3.1v.47l1.07.13-.94,1.01c-.21-.17-.17-.14.09.07l-.24.5.55.05.08.6c0,.06-.39-.04-.44,0l-.18.19.17.3-.18.31c-.15.26.81.49.54,1.38l-.64-.14.58.65-.33.09.36.4-.45,1,.04.46.12.84.09.2-.5.09.49.71.31.05-.84.8.85.63-.42.47c.1.13.25.32.2.39l-.34.55.24.15.24.73-.38.55-.16.28c-.04.06.02.19.09.41l.45.25.39.23-.52.36-.58.42.36.46.29.25c.09.08.1.45,0,.51l-.44.24-.13.15.51.42.11.75c.03.17-.43.25-.71.54l.4.39c0,.35,0,.5,0,.45l.42-.15c.07-.03.18.26.11.29s-.32.07-.35.15l-.32.62.02.28.24.55.2.47-.53.55.54.61.14.55-.39.21-.45.24.46.47.1.43.36.13c.29.1-1.13.51-.75.73l.36.21c.07.04-.16.26-.15.35l.05.67-.05,1.04.49.4-.25.24-.29-.1-.38.21c-.07.04.12.25.15.32l.31.61.27.41c.14.21-.15.45-.23.92l-.54-.04.6.48.37.3-.8.78.4.36-.49.13.25.2.41.4s-.08.15-.15.26l-.13.28.13.28s-.14.32-.14.3.15.11.26.2l.35.44-.92.95c.11.08.31.23.39.25l.59.18-.22.49-.65.03-.25.65.7.35.28.71-.44.48.35.27.35.23c.1.06.19.35.3.38l.47.16c-.05.14-.09.56,0,.73l.17.35c.04.07.25-.09.37-.19l.39.36.36-.37.39.37c.11.1.5-.17.65-.16l1.08.05c.12,0,.26-.05.51-.14l.36-.45.61-.09-.16-.26.88-.95-.33-.48c.16-.29.17-.32.15-.25-.04-.29-.06-.54-.05-.45l.71-.77-.47-.6-.35-.37.62-.48c.07-.05.28-.25.21-.27l-.35-.13-.05-.37c0-.08-.19-.15-.37-.24l.55-.56-.17-.37c.14-.25.15-.27.15-.26-.2-.19-.31-.29-.31-.3,0,0,.13-.25.1-.2l.03-.33.04-.97-.42-.35.75-.97-.23-.58-.17.08-.5-.24.47-.39.53-.44c.19.25.06.09-.05-.06-.04-.1-.14-.42-.06-.19l-.42-.16-.05-.02Z"/>
      <path class="st0" d="M90.1,96.54c.23-.23.32-.32.28-.38s-.25-.2-.29-.13l-.15.35-.25-.1c-.06-.03-.29,0-.2,0,.08.27.15.47.05.53l-.44.24-.55.21-.24.26-.46.26.28.61c.05.1-.17.35-.26.42l-.29.21-.29.55c-.06.14-.12.29.13.05l.91.86-.85.19-.34.15c-.07.04.14.24.2.29l.42.29-.42.17c-.07.03.05.22.15.41l.36-.08c0-.05.02.11.06.49.04.19-.43.22-.39,0-.25-.1-.38-.15-.26-.1v1.02l.6.58c.07-.05-.24.15-.32.21l-.58.23.4.55.35.48c.1.15-.17.54-.27.68l-.2.31c-.05.07-.2-.04-.42-.16v.44c-.02.15.24.25.57.44-.07.15-.56.61-.82.73l-.44.2s-.58-.25-.7-.15l-.86.75-.07-.57-.7.04s-.14.45-.08.26l-.8-.36-.5-.12-.72-.64.23-.37c.04-.06.19-.15.26-.19l-.13-.69c-.02-.11-.07-.37-.07-.38,0,0-.21.08-.45.17l.06-.45.3-.27.37-.34-.02-.95-.81-.1.38-.18.67-.23-.37-.77.34-.38-.6-.13.33-.16.36-.18-.35-.9-.3-.47.32-.22.3-.5.19-.26.32.12c-.07-.39-.1-.5-.1-.53,0-.02-.26.1-.38.15l-.52-.23.66-.55c.34.36.35.13.16-.15,0-.02.13-.28.14-.25,0,.03-.14-.19-.14-.2.07-.09.24-.33.18-.36l-.28-.2-.29-.19.37-.16c.07-.04-.05-.23-.14-.4-.11,0-.05,0,.27,0l.34-.41-.64-.66.35-.49.39-.54-.28-.58-.21.17s-.15-.15-.29-.27l.47-.39.48-.05-.36-.3.48-.55-.35-.19-.57-.39.87-.23-.41-.16.08-.48c.63.15.55-.36.1-.37l.12-.55c-.02-.05-.14-.22-.12-.28l.09-.45-.07-.73c.45.25.42-.08.14-.31l.79-.65-.43-.6-.39-.25.75-.51-.35-.23.39-.37-.58-.57.29-.37c.18-.14.45-.38.51-.56s-.2-.56-.36-.66l-.48-.3.59-.1.14-.64c-.25-.25,0-.39.09-.75,0,0-.28-.05-.43-.08-.07-.02-.09-.2-.05-.25l.65-.72-.53-.16v-.92c.28.12.44.18.21.09l.78-.87-.53-.37c-.3-.21-.04-.63.14-1.25.26.08.45.15.36.12l.02-1.01-.17-.63.04-.31-.11-.2c.09-.11.25-.31.17-.35l-.36-.18c-.13-.06.16-.45.25-.55l.51-.47c.3.25-.06-.06-.13-.11l-.28-.2c-.16-.12.39-.52.37-.56l-.17-.41.55-.09-.26-.17c-.06-.04-.14-.19-.18-.25l-.35-.48.81-.87c0-.06-.07-.52-.05-.38l-.43.15c-.07.03-.17-.26-.1-.3l.35-.15-.57-.52.55-.42.42-.45c-.32-.34-.7-.22-.54-.65l.83-.97-.43.04-.33-.8.5-.37.22-.58c.05-.14-.25-.37-.45-.49-.16-.09-.1-.52,0-.7l.35-.78.25-.77c.05-.16.26-.53.35-.67l-.53-.14c-.11-.03-.18-.28-.23-.55-.05-.29.41-.83.72-.94.05-.05.12-.47,0-.51l-.77-.25c-.07.15.06-.13.11-.21.04-.07.24.05.32.1l.09-.48.55-.32-.44-.47.4-.55c-.49-.92.31-.65.2-1.22-.27-.21-.58-.49-.57-.55l.74-.35-.11-.45c.42.18.55.11.27-.1l-.7-.79s.33-.02.39-.02l.64.05.35-.41c.32-.06.35-.09.41-.08l.38.06c.07-.04.35-.15.39-.06.04.08.15.35.15.35l.18-.39c.04-.07.25.08.36.17,0,0,.23-.14.21-.15-.03,0,.11.11.3.32,0,0,.03-.02.25-.15l.65.08.25-.04,1.95-.09.46-.02.73-.05c.11,0,.33.12.52.23l.49-.03.89.26c-.05.04-.05.04-.45.12l.34,1.17c-.07.05-.33.24-.24.17.23.25.31.29.3.35l-.12.45c-.04.15-.05.67-.05.65l.81.38c.07.04.19.33.13.37l-.3.16-.7.39.39.14.74.8-.57.35c-.18.39-.34.65-.23.71l.46.25-.17.23c-.05.05.07.21.17.35l-.41.41.35.34-.09.55c-.03.15.37.3.52.39.16.1-.12.6-.29.67-.1.05-.34.23-.25.25s.31.1.34.17l.2.49.19.49-.55.36.38.18c-.11.15-.25.34-.17.37l.35.19c.14.07-.08.48-.25.63l-.04.47.35.71.22-.42.3.35-.49.91c-.05.08-.15.29-.07.34l.27.17c.37.25.38,1.01-.02,1.73.15.05.58.35.51.54l-.23.63-.56-.08.92.88c.08.08.25.45.2.39l-.95.63.78.39-.06.63.04.31-.32.36.24.38.55.39c.06.05.21.31.14.35l-.36.2-.35-.05c-.02-.07.02.06.08.31l-.06.49.48.61.21.59-.32.28.18.63.6.22s0,.31-.08.29l-.51-.06s0,0,.13.25l-.15.32-.32.66.42-.13c.06.03.35.45.25.62l-.36.66.35.69c.1.2-.16.74-.26.85l-.07.02.41.41.14.49c.02.07.16.23.14.29l-.16.48-.21.29c-.06.09.23.26.3.3l.29.73-.36.42.48.39-.07.91-.03,1.16.35.57c-.58.06-.46.44-.05.46l-.13.27c-.05.09.08.35.15.45l.41.57-.75.23c-.07.02-.3.23-.22.25l.5.09.15.58c.04.13.12.35.11.45l-.05.41-.15.44.52.44c.07.06.25.24.26.23-.19.26-.15.39-.54.65l-.43.3.45.25c.16.09.45.5.36.65l-.39.66.7,1.43-.59.44c-.15-.29-.02-.04.04.06l.56.38-.22.64-.21.59.38-.11.15.49c.07.24.46.62.64.71l-.76.19-.34.15c-.07.04.14.26.17.34l.32.69.23-.2c.08-.07.32.33.27.41l-.62.7.08.85.41-.23s.22.12.21.17l-.07.36-.19.62c-.62-.17-.45.3-.15.33l.71.68-.71.15-.34.4-.68.29c-.09-.19-.2-.28-.15.1l-.94-.04c-.21-.13-.38-.23-.3-.18l-.69-.06c.09-.1-.15.16-.23.25-.09.09-.23.25-.22.25-.4-.1-.69-.65-1.25-.58l-.55-.41.39-.38-.39-.43.52-.09s.24-.26.25-.25c0,.02-.16-.15-.2-.19-.05-.07-.22.04-.29.07l-.6-.6.17-.55.4-.48-.33-.29-.43-.19c-.11-.05.05-.38.16-.41l.56-.15-.32-.21.25-.15.29-.29-.29-.25c-.18.15-.4.32-.42.24l-.1-.43c-.03-.12.15-.35.31-.53l-.02-.44-.25-.69-.14-.38c-.03-.07-.24.07-.36.16,0,.03-.17-.22-.1-.25l.35-.16c.25-.12.53-.77.37-.95l-.56-.37.38-.15-.31-.58c-.09-.16-.34-.47-.48-.58l-.69-.46-.42-.28-.62-.71-.55.25c-.14.06-.38-.21-.53-.35l-.47.21.33.55c-.61,0-.65-1.22-.81-.82l-.15.41-.21-.16-.31.32-.69.58.05-.44v-.04ZM93.9,90.78c.17.1.21-.38.03-.35l-.57-.3.68-.11.6-.54-.09.52.2-.02.4-.95.11-.79c-.27-.13-.44-.2-.35-.15.19-.25.28-.35.28-.35l-.12-.3.15-.46c.04-.1-.1-.33-.13-.38l.38-.33-.14-.5v-.7l-.02-.93-.37-.45.42-1.55-.32-.49-.26-.41.82-.81-.26-.25-.42.13v-.39l-.06-.86.39-.13c.23-.07-.55-.46-.35-.95l.08-.54.04-.68-.44-.07.15-.62c.04-.07.14-.25.1-.31l-.13-.23c.06-.09.22-.31.15-.35l-.28-.16-.37-.4-.45-.41s.16-.08.29-.15l.4-.08-.16.44c-.03.07.29.19.32.11s.09-.31.06-.38l-.13-.45-.1-1.05c-.14.07-.42.2-.49.1-.05-.07-.28-.39-.11-.15.32-.36.42-.47.48-.61s-.14-.53-.26-.6l-.33-.17c-.07-.04,0-.19.11-.44l.59-.27v-.74l-.45.6-.2-.67s.09-.05.35-.17c-.09-.1-.51-.39-.66-.3l-.6.35-.42-.68.45.12.4-.35c.07.23.13.39.11.35.21-.09.32-.15.38-.12l.36.12-.41-.65.35-.14c.07-.03-.04-.35-.11-.31l-.33.19c-.09.05-.3.24-.38.18l-.27-.18-.4-.26.04-.48.25.19s.19-.2.21-.26l.22-.63-.72-.12c.03-.36-.41-.29-.44-.02l-.81-.06c-.08,0-.34.26-.36.18l-.13-.36c-.03-.09-.41.05-.41.14v.23c.15.15.34.35.27.43l-.15.2.46.39-.03.37-.79-.25-.82.85.5-.08.55.49c.17-.09.24-.14.26-.09l.18.23-.83.3c-.25-.25-.33-.15-.14.14l.04.78c-.21-.09-.41-.17-.25-.11.04.54.02,1-.1,1.2l-.5-.18c-.08-.03,0,.25.04.35l-.05.51.21.37.43.48-.79.5-.38.36,1.07.09-.19.46c.07.08.23.31.15.34l-.34.15c-.1.05-.28.44-.25.52l.66.8-.74.45-.37.36c.11.31.24.61.37.56l.38-.13c.07-.03.12.21.05.26l-.25.22-.26.3-.42.48.53.33-.15.4c-.03.07.21.07.48.07v.2l-.74.2c-.15.05-.08.44-.03.59l.26.71c.05.15,0,.61-.16.65l-.54.13.18.52.25.7-.04.27c-.13.12-.36.5-.25.59l.38.31.45.36-.57-.12-.24.68c-.02.05-.18.29-.18.3s.15.17.19.24l.25.32.26.21c.06.05,0,.31-.07.27l-.46-.17.1.78.11.68.55.03-.09.59-.24-.45-.1.51-.51.32c-.11.16.24.36.38.25l1,.84c.23-.28.48-.29.29.06l.61.44.51.4c-.24.34-.14.2,0,0l.45.1h1.15c.1-.02.27-.05.34-.03l.21.07.81-.33.07.04Z"/>
      <path class="st0" d="M170.78,107.68c-.12.03-.43.18-.53.15l-.59-.18.04-.39c.18-.19.34-.35.3-.45l-.17-.5c-.04-.11-.12-.33-.18-.36l-.3-.14-.32-.15c-.07-.04.14-.2.2-.25l.37-.37.32-.45c.05-.06.05-.36-.02-.33l-.47.18.11-.68-.28-.15.53-.84c.08-.13-.42-.43-.51-.45,0,0,.11-.23.1-.2l-.07-.32.22-.52c.05-.11.25-.19.45-.29.13-.06-.2-.44-.24-.43l-.38.12-.04-.66.45-.45c.23.28.17.08.11-.05l.06-.41-.33-.44-.14-.46v-.81l.05-.46-.1-.64.83-.35-.55-.21-.46-.5c-.11-.11-.18-.55-.12-.46l.55-.29.14-.63c.03-.15-.18-.39-.29-.5l-.27-.27s.11-.26.18-.27c.08,0,.43,0,.4-.09l-.13-.35-.22-.6.35-.39-.65-.16.76-.36-.14-.51-.38-.48c-.44.09-.41.08-.06,0l.61-.5-.16-.54-.61-.73.6-.44c-.08-.12-.25-.36-.18-.39l.43-.17-.87-.65.63-.66-.15-.2c.1-.13.25-.33.17-.35l-.35-.14-.08-.47-.35-.13.68-.36c.27,0,.31-.04,0-.11l-.25-.77.14-.34.19-.8c.06-.09.25-.34.15-.36l-.55-.16c-.18-.05-.09-.65.05-.76l.57-.46-.55-.56.44-.45-.43-.48.36-.28-.78-.77c-.07-.32.44-.6.46.03l.47-.44-.23-.61-.42-.25c-.12-.07,0-.43.09-.55l.35-.49-.15-.51-.29-.44-.03-.38.55-.6c.21.16.15.12-.06-.05l-.23-.7-.33-.13c-.07-.03.08-.3.15-.34l.4-.21-.12-.27c.45-.08.43-.4,0-.36l-.47-.34.67-.75v-.15l-.95-.86.6-.3.42-.21c.08.14-.11-.18-.21-.35l-.45-.76c-.16-.04-.24-.45-.05-.43l.5-.25.43-.22c.16-.08-.34-.5-.47-.51l-.2-.39.15-.53.29-.41-.17-.83-.51-.09.55-.4c-.12-.14-.28-.34-.21-.37l.37-.21c.31-.17-1.08-.79-.75-.95l.63-.28.56-.48-1.15-.73c-.03-.07.15-.54.25-.69l.25-.4-.34-.47-.16-.28.77-.35-.43-.22c-.07-.04.11-.26.15-.35.21-.35-.39-.46-.5-.61-.05-.08-.25-.34-.11-.15l.77-.73-.4-.85-.1-.55.33.1c0,.06.02-.16,0-.23l-.11-.27.2-.69.19-.65,2.34.06.41-.05,1.64.06.56.03c.28.16.38.7.43.6l-.25.53.33.35c.12.08.27.18.26.2,0,.03-.15.25-.19.32l-.45.82c0,.18-.03.35-.02.2l.7.47.41.35-.64-.13.14.44c-.21.09-.55.36-.48.54l.2.48c.05.15.17.35.15.46l-.14.45-.1.35c-.05.06-.22.3-.14.33l.34.13.16.33s-.02.43,0,.3c-.32.18-.49.88-.47.94l.15.45.17.52c-.11.07-.49.64-.33.72l.73.37-.35.19c-.13.07-.19.42-.22.56l-.34.39.46.28c.23.15.02.72-.15.95l-.37.52.81.82-.85.9.8.44c.05-.05-.14.12-.13.19l.08.37.03.39c.11-.03-.19.05-.31.09l.05.82.36.55c.08.12-.3.43-.36.4-.24-.19-.54.04-.36.22l.52.55-.02.79c0,.05-.16.3-.16.3l.15.2c-.09.11-.25.33-.17.35l.36.15-.51.45-.33.56.41.42c.13-.11.36-.28.37-.2l.06.31c-.22.16-.37.28-.37.28l.22.47c.04.07-.17.05-.48.03.08-.2.04-.09-.06.16-.26.28-.05.33.26.11l.19.67.05.74c-.25-.05-.48-.05-.47.05l.05.63.37.43.26.44-.46-.1-.42.6c-.05-.03.23.11.29.16l.8.75-.51.45-.36.57c-.08-.18.1.21.13.27l.74.83-.68.27c-.27-.02-.33.23.05.47-.15.27.15.28.39.11l-.02.43-.39.68c-.29-.08-.33.41-.05.35.17.13.31.22.29.27l-.06.22v.49l-.22.61.16.65c.03.09.09.27.08.28l-.21.34c-.49.8.49,1.05.15,1.55.05.07.19.34.12.36l-.37.14.16.3.15.5-.17.45-.11.3c-.04.09.08.37.15.45l.53.66q.31,0,.02,0c-.18.1-.39.19-.43.3l-.19.45-.23.55.45.41-.05.32-.29,1.05s.15.07.51.26c-.02-.13.05.36.05.45-.17.06-.57.21-.54.35l.14.62.24.84-.57.63.56.09s.16.2.15.25l-.05.38c.22-.1-.07.04-.24.11l-.1.83c-.15-.13-.11-.09.19.16l-.17.27.45.33-.32.56-.46.38.3.53.4.4c.36-.05.32-.05-.02,0l-.44.54c-.22.27.13,1.07.31,1.37l-.18.34.24.45.35.65c-.06.07-.25.3-.32.27l-.47-.2-.7.59-.5.14-.41.35c.09.39.05.25,0-.05-.1-.05-.47-.26-.6-.23l-.76.22c-.36.1-.95.11-1.08-.16-.06-.13-.28-.47-.35-.45v-.05Z"/>
    </g>
  </g>
</svg>