<?xml version="1.0" encoding="UTF-8"?>
<svg id="Layer_1" xmlns="http://www.w3.org/2000/svg" xmlns:xlink="http://www.w3.org/1999/xlink" version="1.1" viewBox="0 0 288 162">
  <!-- Generator: Adobe Illustrator 30.5.1, SVG Export Plug-In . SVG Version: 2.1.4 Build 3)  -->
  <defs>
    <style>
      .st0 {
        fill: url(#linear-gradient);
      }
    </style>
    <linearGradient id="linear-gradient" x1="82.29" y1="153.17" x2="202.98" y2="32.48" gradientUnits="userSpaceOnUse">
      <stop offset="0" stop-color="#a7a7a7"/>
      <stop offset="1" stop-color="#fff"/>
    </linearGradient>
  </defs>
  <rect width="288" height="162"/>
  <path class="st0" d="M71.05,84c-4.55-3.24-8.74-3.48-12.8-3.48h-13.24v1.59c3.87,0,4.55,1.3,4.55,6.62v18.94c0,5.36-.68,6.62-4.55,6.62v1.59h13.24c11.31,0,19.28-6.43,19.28-18.21,0-5.46-1.93-10.44-6.48-13.68h0ZM59.03,114.29c-3.96,0-4.74-1.4-4.68-6.57v-19.48c-.05-5.08.53-6.14,4.68-6.14,9.85,0,12.95,6.96,12.95,15.75s-3.19,16.43-12.95,16.43h0v.02ZM99.28,106.71h0l-.02.04.03-.04ZM126.8,46.75h-25.27v1.59c3.82,0,4.49,1.3,4.49,6.63v9.51h6.76c3.82-.25,7.97.05,7.92,6.23h1.4v-13.87h-1.35c-.34,5.22-3.44,6.04-7.97,6.04h-1.98v-9.04c0-4.74.29-5.52,5.22-5.52,7.1,0,8.7,1.73,12.95,7.4l1.21-.72-3.38-8.27h0,0ZM105.82,105.32h-.02M230.68,94.93c-3.38-1.02-7.83-2.7-7.83-6.91,0-3.62,2.8-6.43,6.43-6.43,4.83,0,8.52,4.25,10.88,8.08l1.4-.68-3.2-8.51c-.57.68-1.55.92-2.36.92-1.07,0-1.5-.25-2.62-.58-1.45-.53-2.32-.82-3.87-.82-5.99,0-10.24,3.78-10.24,9.85,0,12.95,19.76,7.24,19.76,18.46,0,4.01-3.44,6.53-7.16,6.53-5.02,0-9.38-4.59-12.32-8.51l-1.45.68,3.53,9.42c.72-.72,1.89-1.4,2.95-1.4,1.93,0,4.55,1.4,7.58,1.4,5.99,0,10.83-4.11,10.83-10.29,0-7.69-6.23-9.33-12.33-11.21h.02,0ZM212.97,109.76l-6.48-11.54c4.64-.58,9.08-3.91,9.08-8.85,0-3.66-2.03-5.92-4.78-7.23h6.49v-1.59c-3.96,0-4.59-1.26-4.59-6.62v-18.94c0-5.32.63-6.62,4.59-6.62v-1.59h-13.81v1.59c3.82,0,4.45,1.3,4.45,6.62v7.69h-15.02v-7.69c0-5.32.68-6.62,4.49-6.62v-1.59h-39.33l-3.48,8.94,1.3.53c2.07-4.11,6.1-7.87,11.02-7.87,3.28,0,2.66,2.95,2.66,5.36v20.2c0,5.2-.6,6.54-4.63,6.62h-.44c-1.18-.14-2.28-.49-3.09-1.4-1.3-1.4-2.57-5.42-3.19-7.3l-8.8-26.29-4.55,1.21-6.04,18.12h2.58l4.72-14.02,5.42,16.24h-13.45l-2.02,6.04c-1.11,3.33-2.41,7.35-6.57,7.4v1.59h2.08c3.64.07,4.23,1.47,4.23,6.62v18.94c0,5.36-.63,6.62-4.59,6.62-1.21-.14-2.32-.48-3.14-1.4-1.3-1.4-2.57-5.42-3.19-7.3l-7.86-23.47h10.39l3.57-9.17-1.16-.48c-4.67,5.88-6.14,7.93-13.34,8.07h-.77c-1.32,0-2.31-.09-3.02-.33-1.65-.53-1.92-1.82-1.92-4.56v-8.94h-4.78v7.2c0,5.36-.68,6.62-4.49,6.62h-8.67c6.37-2.58,10.39-8.25,10.39-16.62,0-5.46-1.93-10.45-6.48-13.68s-8.75-3.48-12.81-3.48h-13.24v1.59c3.87,0,4.55,1.3,4.55,6.63v18.94c0,5.36-.68,6.62-4.55,6.62v1.59h5.59c3.38.12,4.01,1.53,4.01,6.62v18.94c0,5.36-.68,6.62-4.49,6.62v1.59h26.38l3.58-10.58h-2.53c-2.3,5.01-4.01,8.99-13.24,8.99-4.39,0-4.93-.96-4.93-4.88v-11.15h1.98c3.82-.25,7.97.05,7.92,6.23h1.4v-13.87h-1.35c-.34,5.22-3.44,6.04-7.97,6.04h-1.98v-9.04c0-4.74.29-5.52,5.22-5.52,6.79,0,8.54,1.59,12.41,6.67h1.75l-2.73-6.66h9.27l-7.01,20.96h14.89l1.98,5.94c.29.72.82,2.32.82,3.09,0,2.51-3.04,2.03-4.68,2.18v1.59h39.23l3.33-8.89-1.3-.58c-3.19,5.42-6.04,7.87-12.51,7.87-4.78,0-5.17-1.4-5.17-5.65v-19.91c0-5.32.63-6.62,4.64-6.62v-1.59h-3.75c-1.92-.04-4.16-.48-4.16-2.8,0-1.4,1.45-5.17,1.93-6.57l.63-1.84h12.33l1.98,5.94c.29.72.82,2.32.82,3.09,0,2.51-3.04,2.03-4.68,2.18v1.59h8.92c3.51.07,4.14,1.47,4.14,6.62v18.94c0,5.36-.68,6.62-4.49,6.62v1.59h25.89l3.58-9.17-1.16-.48c-4.84,6.1-6.24,8.08-14.12,8.08-4.39,0-4.93-.96-4.93-4.88v-11.15h1.98c3.82-.25,7.97.05,7.92,6.23h1.4v-13.87h-1.35c-.34,5.22-3.44,6.04-7.97,6.04h-1.98v-9.04c0-4.44.26-5.4,4.34-5.5h1.52c6.56.1,8.19,1.92,12.3,7.39l1.21-.72-2.73-6.66h4.05c4.34.15,4.11,2.91,4.11,6.71v18.84c0,5.36-.68,6.62-4.5,6.62v1.59h13.78v-1.59c-3.82,0-4.49-1.26-4.49-6.62v-9.04h3.44l9.9,17.25h8.02v-1.59c-3.91.14-4.34-1.45-6.14-4.55v-.04h0ZM85.33,80.52h-1.29c-3.36-.16-4.04-1.7-4-6.56v-19.48c-.05-5.08.53-6.15,4.68-6.15,9.86,0,12.95,6.96,12.95,15.76s-3.06,16.1-12.36,16.42h0v.02ZM107.36,100.87l5.46-16.24,5.42,16.24h-10.88ZM197.04,80.53c-3.51-.07-4.15-1.42-4.15-6.62v-6.81h-4.78v6.81c0,5.2-.64,6.54-4.16,6.62h-4.96c-4.08-.07-4.67-1.42-4.67-6.62v-20.2c0-2.41-.63-5.36,2.66-5.36,4.18.08,7.87.28,10.16,3.42.62.86.95,3.39.96,4.45v8.65h19.82v9.04c0,5.36-.63,6.62-4.45,6.62h-6.43,0ZM200.27,97.04h-2.51v-9.67c0-3.62.09-5.26,4.16-5.26,4.34,0,8.6,2.47,8.6,7.24,0,5.55-5.36,8.02-10.24,7.69h0Z"/>
</svg>