<?xml version="1.0" encoding="UTF-8"?>
<svg id="Layer_1" xmlns="http://www.w3.org/2000/svg" version="1.1" viewBox="0 0 288 162">
  <!-- Generator: Adobe Illustrator 30.5.1, SVG Export Plug-In . SVG Version: 2.1.4 Build 3)  -->
  <defs>
    <style>
      .st0 {
        fill: #ff1e00;
      }
    </style>
  </defs>
  <rect width="288" height="162"/>
  <g>
    <path class="st0" d="M181.27,64.15c-.55,7.52-1.46,17.89-2.85,23.66h-.26c-1.5-5.71-2.6-16.09-3.26-23.66h-11.38c.35,3.36,1.4,9.73,2.15,12.83-.7,2.86-1.85,7.62-2.56,10.83h-.3c-1.71-7.67-3.31-16.84-4.21-23.66h-10.97c1.85,11.86,3.91,22.23,7.51,34.24,1.65-.24,3.15-.95,4.35-2,1.3,1.13,2.94,1.87,4.75,2.04h2.64c.02-.06.03-.12.05-.18,1.02-3.77,2.87-11.1,3.41-14.56h.35c.54,3.6,2.06,11.12,3.07,14.45.03.1.06.2.09.29h3.02c1.81-.17,3.46-.91,4.75-2.04,1.05.92,2.34,1.59,3.76,1.88,3.38-11.61,5.47-22.35,7.17-34.13h-11.28,0Z"/>
    <path class="st0" d="M196.99,64.15c-3.18,9.45-6.02,21.68-7.64,34.02,1.25-.34,2.37-.95,3.33-1.78,1.29,1.13,2.93,1.87,4.75,2.04h2.17s0-.06,0-.08c.16-1.21.44-3.24.69-3.92h6.52c.19.61.48,2.73.63,3.84,0,.06,0,.11.02.17h2.59c1.81-.17,3.46-.91,4.75-2.04,1.03.9,2.28,1.55,3.67,1.87-1.51-12.82-4.66-25.62-7.75-34.11h-13.74ZM200.9,86.61c.5-3.66,1.75-10.48,2.56-13.73h.35c.7,3.21,1.9,10.07,2.36,13.73,0,0-5.26,0-5.26,0Z"/>
    <path class="st0" d="M231.67,64.15l-3.05,12.73h-.3l-3.36-12.73h-12.63l10.12,21.75v12.3c1.28-.33,2.45-.96,3.42-1.81,1.29,1.13,2.93,1.87,4.75,2.04h2.36v-12.53l10.03-21.75h-11.33,0Z"/>
    <path class="st0" d="M61.63,72.79c2.05,0,6.07.55,8.53,1l1.36-8.87c-3.16-.7-8.12-1.26-11.28-1.26-11.43,0-15.24,4.57-15.24,17.59,0,10.21,2.35,15.24,8.29,17.05h.03c.52.1,1.06.16,1.61.16,2.12,0,4.05-.79,5.53-2.07,1.49,1.29,3.42,2.07,5.54,2.07,1.94,0,3.74-.67,5.17-1.78v-16.68h-9.47v10.28c-.7.16-1.6.2-2.36.2-2.5,0-3.81-1.6-3.81-9.17s1.16-8.53,6.11-8.53h0Z"/>
    <path class="st0" d="M84.29,84.85h9.97v-7.42h-9.97v-4.81h12.43v-8.47h-22.76v33.73c.72.28,1.49.48,2.3.55h1.57c1.81-.17,3.46-.91,4.75-2.04,1.3,1.13,2.94,1.87,4.75,2.04h1.57c1.81-.17,3.45-.91,4.75-2.04.89.78,1.96,1.38,3.13,1.72v-8.25h-12.48v-5.01h0Z"/>
    <path class="st0" d="M99.17,72.88h8.12v25.56h.31c1.81-.17,3.46-.91,4.75-2.04,1.3,1.13,2.94,1.87,4.75,2.04h.67v-25.56h5.06v-8.72h-23.66v8.72Z"/>
    <path class="st0" d="M147.79,85.86c-4.46-8.61-9.6-17.15-15.9-24.54-1.61-1.9-3.47-4.17-5.75-5.33-4.26-2.15-3.01,5.01-2.37,7.24,4.03,13.95,3.8,28.22,1.13,42.44-.04.21-.08.42-.12.63,1.61-.25,3.07-.95,4.24-1.97,1.48,1.29,3.41,2.07,5.53,2.07s4.05-.79,5.54-2.07c1.48,1.29,3.41,2.07,5.53,2.07s4.05-.79,5.53-2.07c1.21,1.05,2.72,1.77,4.38,2-.63-2.89-1.64-6.63-1.79-7.03-1.62-4.63-3.7-9.09-5.96-13.45h0Z"/>
  </g>
</svg>