<?xml version="1.0" encoding="UTF-8"?>
<svg id="Layer_1" xmlns="http://www.w3.org/2000/svg" version="1.1" viewBox="0 0 288 162">
  <!-- Generator: Adobe Illustrator 30.5.1, SVG Export Plug-In . SVG Version: 2.1.4 Build 3)  -->
  <defs>
    <style>
      .st0 {
        fill: #fe0050;
      }

      .st1 {
        fill: #fff;
      }
    </style>
  </defs>
  <rect width="288" height="162"/>
  <g>
    <path class="st1" d="M218.13,100.18l14.66-16.12h-13.45l-12.04,13.29v-13.29h-12.14v34.24l-14.96-34.24h-12.14l-14.96,34.24v-6.92h-18.32v-4.81h15.49v-8.89h-15.49v-4.29h17.64v-9.32h-29.77v10.97c-.31-1.64-.9-3.14-1.78-4.48-1.36-2.09-3.3-3.7-5.81-4.82s-5.46-1.67-8.85-1.67h-17.64v22.12c-.21-.39-.45-.77-.73-1.14-1.19-1.54-2.86-2.7-5.03-3.51,1.67-.84,2.94-1.94,3.79-3.3s1.28-2.89,1.28-4.6c0-2.89-1.25-5.22-3.75-6.96-2.49-1.75-6.18-2.62-11.06-2.62h-19.57v36.63h20.62c5.03,0,8.86-.88,11.51-2.65,1.29-.86,2.26-1.89,2.93-3.1v5.75h12.35v-9.21h3.35l6.23,9.21h54.11l2.46-6.38h13.92l2.45,6.38h23.86v-9.06l2.77-3.09,9.16,12.14h14.28l-15.38-20.51h0ZM65.64,92.7h5.75c2.68,0,4.03.91,4.03,2.72s-1.35,2.72-4.03,2.72h-5.75v-5.45h0ZM73.07,112.06h-7.43v-5.75h7.43c2.72,0,4.08.96,4.08,2.88s-1.36,2.88-4.08,2.88h0ZM109.18,101.04c-.84.75-2.09,1.13-3.76,1.13h-4.5v-8.58h4.5c1.67,0,2.93.37,3.76,1.13.84.75,1.25,1.81,1.25,3.16s-.42,2.42-1.25,3.16ZM115.98,109.39c2.24-1.15,3.95-2.7,5.13-4.65.75-1.25,1.25-2.64,1.52-4.15v18.57l-6.65-9.76h0ZM170.45,105.41l3.55-9.21,3.55,9.21h-7.12.02Z"/>
    <g>
      <path class="st0" d="M137.63,50.22c.02-1.48-.87-2.56-2.35-2.56-1.83,0-4.35,2.4-6.3,4.86-2.9,3.8-6.69,10.02-9.53,16.47h-10.92c3.15-6.06,6.11-13.15,9.63-16.62.99-1.18,2.1-1.92,3.1-2.16.74.49,1.47.95,2.22,1.35,1.19.51,1.78-.66.61-1.13-.84-.37-1.69-.56-2.57-.57-5.06-3.61-9.47-8.55-19.78-8.55-11.03,0-20.41,6.94-20.41,16.96,0,5.49,3.69,9.8,9.81,9.8,5.13,0,10.11-3.1,10.11-8.17,0-1.91-1.25-3.88-3.25-3.93-1.2-.03-2.35.61-2.62,1.44l.24.23c.35-.95,1.45-1.29,2.35-1.26,1.93.02,2.89,1.83,2.89,3.53,0,3.72-3.69,6.74-7.26,6.74-4.51,0-6.94-4.11-6.94-8.47,0-9.13,8.35-15.26,17.7-15.26,7.49,0,12.02,3.99,16.41,6.99-6.96.56-14.82,10.82-18.36,18.12-.18.34-.34.68-.51,1.01h-2.94l-.02.43h2.73c-4.22,8.08-8.52,14.13-14.2,14.13-3.13,0-5.29-2-5.29-5.01,0-2.58,1.83-4.98,4.56-4.98,1.13,0,1.93.47,1.91,1.34h.33c.09-.98-.85-1.72-2.23-1.72-2.94,0-4.89,2.56-4.89,5.35,0,3.74,2.99,5.97,6.71,6.02v-.49h4.05c5.55-1.39,10.73-5.73,14.56-12.53.39-.68.76-1.39,1.15-2.12h10.96c-2.25,5.21-3.85,10.56-3.85,14.93,0,7.92,3.88,13.49,9.83,13.49,3.88,0,7.29-2.28,7.29-5.81,0-1.36-.92-2.44-2.22-2.44v.3c1.02,0,1.88.95,1.88,2.19,0,3.1-3.1,5.32-6.32,5.32-5.04,0-8.15-3.41-8.15-8.75,0-6.8,3.1-13.27,7.05-19.23h3.67l.02-.43h-3.41c3.66-5.46,7.98-10.52,11.19-15.02.78-1.2,1.37-2.61,1.37-3.75l-.02-.03h.01Z"/>
      <path class="st0" d="M144.92,71.58c-.24.41-.46.83-.66,1.25-.02.02-.03.05-.03.06-3.31,6.03-7.33,9.44-10.53,9.44-1.79,0-2.71-1.11-2.71-3.25,0-1.45.37-3.07,1.02-4.7.2,0,.4.02.58.02,6.58,0,13.62-5.51,13.62-10.81,0-2.22-1.27-3.67-3.51-3.67-6,0-13.85,10.26-13.85,17.96,0,3.36,1.44,5.15,4.04,5.15,3.44,0,7.22-2.89,10.47-8.08.64-1.04,1.26-2.15,1.86-3.37-.09-.09-.18-.09-.32,0v.02l.02-.02ZM140.63,65.21c.83,0,1.39.49,1.39,1.4,0,3.52-5.49,7.49-9.88,7.42,1.87-4.52,5.64-8.82,8.49-8.82Z"/>
      <path class="st0" d="M164.94,71.58c-2.96,6.46-5.86,12.88-8.82,12.88-.82,0-1.15-.63-1.15-1.53,0-3.68,4.65-9.66,6.58-12.41,1.44-1.91,4.75-6.09,4.75-8.58,0-1.17-.96-1.91-2.07-1.91s-2.47.88-3.9,2.79c.15-.35.25-.74.26-1.19.02-.98-.61-1.38-1.85-1.38-4.53,0-10.56,5.43-13.82,11.33-.24.41-.46.83-.66,1.25-.02.02-.03.05-.03.06-.34.69-.63,1.38-.85,2.06-.5,1.4-.79,2.78-.82,4.06-.02,2.3.99,3.6,2.62,3.6,3.5,0,8.43-7.31,11.66-13.31h.35c-1.78,3.39-4.23,7.76-4.3,11.5-.05,2.75.97,4.3,2.73,4.3,3.19,0,5.62-4.55,9.66-13.52-.02-.15-.23-.19-.33,0h0ZM156.86,68.69c-2.16,3.79-5.34,8.58-7.68,8.58-.85,0-1.41-.68-1.41-1.93,0-4.62,6.53-14.72,11.26-14.72.87,0,1.31.37,1.29,1.17-.02.68-.4,1.53-.82,2.26-.45.7-.83,1.31-1.34,2.25-.43.75-.9,1.65-1.3,2.37h0v.02Z"/>
      <path class="st0" d="M177.78,71.58c-2.89,6.02-5.63,10.54-8.57,10.54-.91,0-1.59-.55-1.59-1.41,0-5.14,10.73-9.69,10.73-15.9,0-2.84-2.56-4.65-5.06-4.8.36-.41.6-.71.75-.93h0v-.03s.02-.02.02-.03h0v-.03s.02-.02.03-.03h0s0-.03.02-.05c.49-.79.16-1.4-.49-1.4s-1.46.61-1.91,1.4c-.37.81-.12,1.37.54,1.37h.33c-2.01,2.13-5.15,5.91-7.66,11.31h.33c2.49-5.35,5.64-9.02,7.56-11.09.06-.07.13-.13.18-.19,1.12.15,1.95.65,1.92,1.95-.09,3.66-10.13,10.32-10.13,16.81,0,2.23,1.51,3.65,3.67,3.65,3.49,0,6.04-3.65,9.63-11.13-.06-.09-.14-.12-.33,0v-.02h.03Z"/>
      <path class="st0" d="M200.18,70.18c-6.25,0-11.71,8.26-15.43,12.93-.81,1.01-1.65,2.04-2.54,3.06-1.47-1.23-2.35-2.93-2.35-4.95,0-4.51,3.74-9.42,6.14-13.11,2.51-3.93,5.45-7.95,7.5-11.15h4.49l.23-.42h-4.45c.3-.46.56-.91.82-1.32.75-1.32,1.45-2.86,1.45-3.97,0-1.26-.63-1.96-1.95-1.96s-3.15,1.23-5.41,4.91c-.41.68-.88,1.47-1.39,2.35h-4.7l-.23.42h4.68c-.85,1.45-1.79,3.12-2.75,4.89-2.38,2.75-4.85,6.18-6.52,9.74h.33c1.4-3.05,3.57-6.12,5.56-8.54-2.91,5.54-5.68,11.86-5.68,15.97,0,3.35,1.34,6.05,3.71,7.75-3.86,4.3-8.58,8.1-14.68,8.1-4.3,0-7.35-2.23-7.35-5.34,0-1.85,1.27-3.17,2.64-3.17.55,0,1.25.23,1.34.7l.14-.28c-.09-.51-.89-.75-1.44-.75-1.59,0-3.03,1.39-3.03,3.51,0,3.39,3.26,5.66,7.7,5.66,6.24,0,10.94-3.93,14.88-8.29,1.72,1.16,3.96,1.8,6.6,1.8,2.21,0,4.5-.42,6.65-1.18v-.34c-2.08.74-4.29,1.13-6.45,1.12-2.47,0-4.71-.71-6.31-1.96.95-1.05,1.85-2.14,2.7-3.18,3.59-4.35,9.14-12.65,15.09-12.65,3.17,0,5.17,2.02,5.17,5.25s-1.81,6.12-4.53,8.32h.47c2.65-2.22,4.38-5.1,4.38-8.32,0-3.41-2.12-5.56-5.49-5.56v-.03h0Z"/>
    </g>
  </g>
</svg>