<?xml version="1.0" encoding="UTF-8"?>
<svg id="Layer_1" xmlns="http://www.w3.org/2000/svg" version="1.1" viewBox="0 0 288 162">
  <!-- Generator: Adobe Illustrator 30.5.1, SVG Export Plug-In . SVG Version: 2.1.4 Build 3)  -->
  <defs>
    <style>
      .st0 {
        fill: #fff;
      }
    </style>
  </defs>
  <rect width="288" height="162"/>
  <g>
    <g>
      <path class="st0" d="M45.83,111.69v-3.28h4.81v1.9l1.47,1.44h19.59l1.44-1.44v-3.24l-1.24-1.24h-22.6l-3.44-3.44v-5.93l3.64-3.6h24.86l3.6,3.6v3.28h-4.82v-1.9l-1.44-1.44h-19.52l-1.44,1.44v3.08l1.25,1.25h22.6l3.44,3.44v6.09l-3.64,3.6h-24.93l-3.64-3.6h0Z"/>
      <path class="st0" d="M98.86,106.62l-3.8,8.68h-5.8l-9.34-22.34v-.1h5.21l7.27,18.15,4.03-9.17,3.87-8.98h5.34l3.87,8.98,4.03,9.17,7.31-18.15h4.81v.1l-9.3,22.34h-5.86l-3.77-8.68-3.9-8.84-3.96,8.84h0Z"/>
      <path class="st0" d="M128.57,92.86h4.88v22.44h-4.88v-22.44Z"/>
      <path class="st0" d="M150.94,96.76l-.13-.13h-13.95v-3.77h33.05v3.77h-13.95l-.13.13v18.54h-4.88v-18.54h0Z"/>
      <path class="st0" d="M172.59,111.5v-14.84l3.8-3.8h25.78l3.8,3.8v4.88h-4.81v-3.24l-1.64-1.64h-20.38l-1.64,1.64v11.56l1.64,1.64h20.38l1.64-1.64v-3.24h4.81v4.88l-3.8,3.8h-25.78l-3.8-3.8h0Z"/>
      <path class="st0" d="M210.1,92.86h4.88v9.01l.13.13h22.08l.13-.13v-9.01h4.88v22.44h-4.88v-9.3l-.13-.13h-22.08l-.13.13v9.3h-4.88v-22.44h0Z"/>
    </g>
    <g>
      <polygon class="st0" points="106.85 47.83 106.85 47.5 88.61 47.5 73.62 60.71 61.22 60.71 61.06 60.49 61.06 51.3 57.26 47.5 45.8 47.5 45.8 80.78 49.6 84.58 61.06 84.58 61.06 71.48 61.22 71.26 72.91 71.26 87.85 84.58 107.07 84.58 107.07 84.25 87.04 65.69 106.85 47.83"/>
      <polygon class="st0" points="110.78 47.5 110.78 80.78 114.58 84.58 125.99 84.58 125.99 51.3 122.19 47.5 110.78 47.5"/>
      <polygon class="st0" points="146.48 74.19 146.48 51.3 142.68 47.5 131.27 47.5 131.27 80.78 135.07 84.58 184.09 84.58 184.09 74.4 146.69 74.4 146.48 74.19"/>
      <polygon class="st0" points="204.8 74.4 204.58 74.19 204.58 51.3 200.78 47.5 189.37 47.5 189.37 80.78 193.17 84.58 242.2 84.58 242.2 78.2 238.4 74.4 204.8 74.4"/>
    </g>
    <path class="st0" d="M241.1,75.5h0c.7.7,1.9.2,1.9-.79h0c0-.61-.5-1.11-1.11-1.11h0c-.99,0-1.49,1.2-.79,1.9Z"/>
    <path class="st0" d="M204.27,46.7h0c-.99,0-1.49,1.2-.79,1.9h0c.7.7,1.9.2,1.9-.79h0c0-.61-.5-1.11-1.11-1.11Z"/>
    <path class="st0" d="M146.16,46.7h0c-.99,0-1.49,1.2-.79,1.9h0c.7.7,1.9.2,1.9-.79h0c0-.61-.5-1.11-1.11-1.11Z"/>
    <path class="st0" d="M126.79,47.82h0c0-.61-.5-1.11-1.11-1.11h0c-.99,0-1.49,1.2-.79,1.9h0c.7.7,1.9.2,1.9-.79Z"/>
    <path class="st0" d="M60.75,46.7h0c-.99,0-1.49,1.2-.79,1.9h0c.7.7,1.9.2,1.9-.79h0c0-.61-.5-1.11-1.11-1.11Z"/>
    <path class="st0" d="M46.11,85.38h0c.99,0,1.49-1.2.79-1.9h0c-.7-.7-1.9-.2-1.9.79h0c0,.61.5,1.11,1.11,1.11Z"/>
    <path class="st0" d="M111.09,85.38h0c.99,0,1.49-1.2.79-1.9h0c-.7-.7-1.9-.2-1.9.79h0c0,.61.5,1.11,1.11,1.11Z"/>
    <path class="st0" d="M131.58,85.38h0c.99,0,1.49-1.2.79-1.9h0c-.7-.7-1.9-.2-1.9.79h0c0,.61.5,1.11,1.11,1.11Z"/>
    <path class="st0" d="M189.69,85.38h0c.99,0,1.49-1.2.79-1.9h0c-.7-.7-1.9-.2-1.9.79h0c0,.61.5,1.11,1.11,1.11Z"/>
  </g>
</svg>